<?xml version="1.0" standalone="no"?>
<!DOCTYPE svg PUBLIC "-//W3C//DTD SVG 1.1//EN" "http://www.w3.org/Graphics/SVG/1.1/DTD/svg11.dtd" >
<svg xmlns="http://www.w3.org/2000/svg">
<metadata></metadata>
<defs>
<font id="telefonicahand" horiz-adv-x="1228" >
<font-face units-per-em="2048" ascent="1536" descent="-512" />
<missing-glyph horiz-adv-x="573" />
<glyph unicode="&#xfb01;" horiz-adv-x="1241" d="M16 911q11 78 320 107q67 271 171 393.5t281 122.5q75 0 133.5 -32t59.5 -95q1 -32 -19.5 -55t-46.5 -23q-64 74 -161 74q-96 0 -150.5 -82t-95.5 -287q195 18 270 -11.5t43 -119.5q-129 21 -340 -4q-3 -25 -16 -106l-82 -533q-8 -53 -15 -88t-21.5 -78.5t-37.5 -66 t-53 -23.5q-43 -2 -67.5 25t-12.5 98l105 614q13 78 24 133q-74 -9 -144 -26t-95 -17q-61 0 -50 80zM805 121q0 70 78 403t106 404q13 38 42 60t63 20q39 -1 49.5 -33t-0.5 -78q-8 -54 -57 -226t-60 -270q-4 -37 -9.5 -90.5t-10.5 -110.5t-7 -75q-9 -94 -120 -94 q-74 0 -74 90zM1063 1292q0 117 32 167t97 50q36 0 57 -21t19 -54q0 -40 -17.5 -91t-54.5 -93t-82 -42q-51 0 -51 84z" />
<glyph unicode="&#xfb02;" horiz-adv-x="1331" d="M16 911q11 78 320 107q67 271 171 393.5t281 122.5q75 0 133.5 -32t59.5 -95q1 -32 -19.5 -55t-46.5 -23q-64 74 -161 74q-96 0 -150.5 -82t-95.5 -287q195 18 270 -11.5t43 -119.5q-129 21 -340 -4q-3 -25 -16 -106l-82 -533q-8 -53 -15 -88t-21.5 -78.5t-37.5 -66 t-53 -23.5q-43 -2 -67.5 25t-12.5 98l105 614q13 78 24 133q-74 -9 -144 -26t-95 -17q-61 0 -50 80zM856 254q0 185 55 440.5t133 472.5q78 212 129 287q25 37 48 51q35 21 75 21q50 0 50 -45q0 -26 -25 -87t-62.5 -140t-48.5 -105q-72 -179 -128 -419.5t-56 -399.5 q0 -22 3 -42.5t10 -41.5t23 -34t38 -13q15 0 47 10t49 10q27 0 27 -37q0 -62 -54.5 -115t-132.5 -53q-88 0 -134 65t-46 175z" />
<glyph horiz-adv-x="0" />
<glyph horiz-adv-x="682" />
<glyph unicode="&#xd;" horiz-adv-x="573" />
<glyph unicode=" "  horiz-adv-x="573" />
<glyph unicode="&#x09;" horiz-adv-x="573" />
<glyph unicode="&#xa0;" horiz-adv-x="573" />
<glyph unicode="!" horiz-adv-x="505" d="M45 86q0 44 38.5 77.5t84.5 33.5q45 0 78 -31t33 -76q0 -54 -33 -92.5t-78 -38.5q-59 0 -91 40.5t-32 86.5zM160 596q0 174 64.5 401t162.5 435q55 7 92 -27.5t37 -89.5q0 -32 -17.5 -76.5t-57 -133.5t-70.5 -177q-86 -245 -103 -488q-62 -6 -85 31.5t-23 124.5z" />
<glyph unicode="&#x22;" horiz-adv-x="514" d="M111 993q53 169 79 457q17 11 46.5 18t44.5 7q69 0 37 -164q-28 -145 -99 -291l-22 -41q-5 -3 -19.5 -1t-20 3.5t-22 5.5t-24.5 6zM352 1006q65 262 68 446q18 13 47 22t45 9q77 6 24 -207q-35 -138 -98 -281q-39 -10 -86 11z" />
<glyph unicode="#" horiz-adv-x="1124" d="M37 395q70 64 221 123q38 174 51 232q22 96 29 122q-78 -25 -184 -73l-45 53q37 104 262 170q91 395 112 465q33 16 82 3.5t56 -30.5q0 -26 -84 -405q57 8 122 8q122 0 175 -2q70 211 141 375q23 16 68.5 10t62.5 -31q-9 -27 -55 -158t-70 -206q124 -19 188 -80l-14 -62 q-18 -7 -65 0q-98 11 -150 13q-19 -62 -33 -119q-35 -143 -41 -170q183 0 183 -51q0 -41 -35 -56q-4 -2 -25 -3.5t-64.5 -5t-82.5 -7.5q-58 -304 -66 -475q-26 -6 -45.5 -6t-33.5 11.5t-22.5 25t-13.5 34.5t-6.5 40t-1.5 42q3 120 39 312q-56 -7 -147 -25q-80 -16 -152 -43 q-14 -57 -26.5 -112t-19.5 -85.5t-7 -31.5q-23 -96 -65.5 -162t-81.5 -66q-32 0 -35 38t6 67q3 38 57 282q-72 -28 -115 -28q-69 0 -69 67zM426 575q87 23 125 29q123 18 166 21q1 4 2 10.5t2 9.5q32 154 72 281q-26 -1 -80 -2t-82 -2q-77 -3 -127 -11q-25 -103 -37 -159 q-6 -24 -19.5 -84.5t-21.5 -92.5z" />
<glyph unicode="$" horiz-adv-x="1024" d="M55 141q0 13 3.5 23.5t8.5 18t14 13t16 9.5t19.5 6t20 3t21 1h18.5t17.5 -1t13.5 -1q87 -3 158 0q38 207 94 457q-145 71 -212 150t-67 200q0 168 120.5 260t334.5 92h2q40 180 87.5 234t127.5 24l-68 -274q133 -30 218 -102.5t85 -149.5q0 -35 -43 -35q-13 0 -32.5 11.5 t-51 36t-36.5 28.5q-86 60 -172 80q-25 -99 -66 -262t-51 -201q136 -68 200 -143.5t64 -178.5q0 -143 -117 -238.5t-315 -133.5q-47 -191 -72 -267q-33 -92 -57 -92q-34 3 -31 76q4 80 31 264q-78 -4 -123 -4q-74 0 -117 26t-43 70zM334 1047q0 -63 36.5 -117t127.5 -103 q63 238 108 416h-28q-124 0 -184 -51t-60 -145zM508 227q125 20 190.5 68.5t65.5 118.5q0 110 -166 190z" />
<glyph unicode="%" horiz-adv-x="1411" d="M123 45q0 48 204.5 297.5t459.5 523.5t397 398q-62 -32 -103 -51t-99 -36t-105 -16q-42 0 -121 64v-15q0 -98 -73.5 -201t-171.5 -166t-173 -63q-94 0 -148.5 58t-54.5 157q0 104 56.5 206.5t155.5 169.5t210 67h2q46 0 86 -17.5t69.5 -42l59 -49t67.5 -42t81 -17.5 t102.5 21t109.5 46t105.5 46t89.5 20q29 0 47.5 -13.5t18.5 -41.5q-295 -277 -557.5 -588.5t-630.5 -820.5q-84 6 -84 106zM268 1010q0 -51 24.5 -81t67.5 -30q88 0 172 92t84 187q0 65 -19.5 91.5t-66.5 26.5q-68 0 -130 -47.5t-97 -113.5t-35 -125zM739 223q0 77 34 159.5 t90 149.5t135.5 110.5t162.5 43.5q86 0 142.5 -65t56.5 -162q0 -106 -63 -211.5t-166 -172.5t-209 -67q-86 0 -134.5 56t-48.5 159zM872 238q0 -51 25 -81t68 -30t89.5 27.5t82.5 70t60 97t24 104.5q0 119 -86 119q-68 0 -130.5 -51t-97.5 -122t-35 -134z" />
<glyph unicode="&#x26;" horiz-adv-x="1302" d="M57 301q0 137 86.5 235.5t245.5 172.5q-41 127 -41 270q1 84 19 153t45.5 113.5t67 78t76.5 50.5t81 27.5t73.5 13t61.5 2.5q64 0 115 -16.5t82.5 -42.5t53 -61t30 -70t8.5 -72q0 -66 -28 -126t-72.5 -107t-112.5 -92t-134 -78t-151 -68q51 -116 137 -219 q88 -113 164 -189q117 142 172 416q46 16 74 -2t27 -76q0 -88 -58 -217q-51 -114 -127 -202q100 -84 217 -144q60 -31 60 -63q0 -29 -24 -52t-64 -24q-107 0 -305 178q-161 -117 -381 -117q-79 0 -147.5 18t-126 55t-91 102.5t-33.5 152.5zM233 324q0 -107 71 -162.5 t175 -55.5q155 0 269 68q-107 112 -187 215q-92 119 -139 232q-104 -57 -146.5 -129.5t-42.5 -167.5zM504 999q0 -121 31 -229q62 27 110.5 51t103 59t90 70t59.5 80.5t24 93.5q0 25 -9 53t-27.5 55.5t-54 45.5t-81.5 18q-112 0 -179 -72.5t-67 -224.5z" />
<glyph unicode="'" horiz-adv-x="305" d="M109 989q81 262 100 465q17 11 46.5 18t47.5 7q73 0 26 -190q-38 -154 -114 -306q-47 -8 -106 6z" />
<glyph unicode="(" horiz-adv-x="724" d="M45 465q0 311 180 590t473 426q97 -21 97 -113q0 -18 -22 -41t-47 -38.5t-61 -37t-47 -28.5q-203 -138 -301 -331.5t-98 -455.5q0 -251 105.5 -420t308.5 -276q22 -8 22 -29q0 -13 -8.5 -21t-21.5 -7q-163 13 -296.5 123.5t-208.5 284.5t-75 374z" />
<glyph unicode=")" horiz-adv-x="686" d="M-98 -264q0 14 18 20q318 132 467.5 355.5t149.5 564.5q0 509 -412 717q5 35 32 56t70 21q90 0 168 -43.5t133 -116t94.5 -166.5t58.5 -196t19 -203q0 -157 -27 -298t-85 -267t-144.5 -223t-212 -164t-280.5 -92q-22 -3 -35.5 10t-13.5 25z" />
<glyph unicode="*" horiz-adv-x="729" d="M119 1212q0 28 18 58q103 -30 217 -27q-48 48 -80 127.5t-14 112.5q5 10 14 8q25 -7 48.5 -23.5t45.5 -42t37 -45.5t36 -52t30 -44q42 78 97 132t118 54q46 0 76 -30q-12 -9 -26 -20t-24.5 -20.5t-26 -25.5t-23.5 -24.5t-24.5 -27t-21.5 -24t-22 -25.5t-19 -22q14 0 39 2 t43.5 2.5t42 0.5t40.5 -3t32 -8.5t23 -17t8 -27.5q0 -28 -15 -57q-87 24 -215 -4q72 -93 101 -166q9 -23 1 -37t-30 -14q-25 0 -64 30.5t-63 57t-61 71.5q-70 -110 -138 -239q-28 0 -55.5 26t-27.5 58q0 13 7.5 32t24 44t27.5 40t32.5 44t24.5 32q-12 1 -51 1.5t-64 3 t-55.5 10.5t-46.5 28t-16 51z" />
<glyph unicode="+" d="M231 696q3 21 11 35.5t24 23t30.5 13t43 5.5t49 0t61.5 -2.5t68 -2.5q20 0 34.5 2t26.5 8.5t19.5 13t14.5 22t10.5 28.5t8 40t7.5 49t9 63t11 75q3 27 28 43.5t61 13.5q19 -2 27.5 -13t7 -32t-5.5 -40.5t-12 -49t-11 -47.5l-17 -106q-1 -24 -2 -37t7.5 -20t14 -9t17.5 -4 q69 -6 213 -2q23 1 32.5 1.5t29.5 0.5t28.5 -3t19.5 -8t14 -15.5t1 -24.5q-5 -24 -33.5 -49.5t-64.5 -26.5q-43 -1 -99 2.5t-96 3.5q-83 0 -113 -19.5t-38 -66.5q-21 -111 -27 -221q-4 -94 -44.5 -131t-109.5 -12q-2 49 9 137q6 37 22.5 109.5t22.5 109.5q1 5 2.5 17t2.5 18 t0.5 15t-3.5 13t-10 7.5t-17 3.5q-33 0 -91.5 -6t-76.5 -7q-73 -6 -97.5 16t-19.5 66z" />
<glyph unicode="," horiz-adv-x="419" d="M-82 -229q179 46 188 168q7 87 -61 174q-11 11 -4 34q10 32 41.5 59t73.5 27q56 0 87 -43.5t31 -113.5q0 -137 -73.5 -239.5t-173.5 -125.5q-40 -9 -75 8.5t-34 51.5z" />
<glyph unicode="-" horiz-adv-x="714" d="M61 498q2 88 160 88q35 0 105.5 -6.5t76.5 -6.5q83 -8 232 13q24 -9 24 -41q0 -48 -73 -72q-50 -17 -165.5 -26t-203.5 -9q-30 0 -51.5 1.5t-49 7t-42 18.5t-13.5 33z" />
<glyph unicode="." horiz-adv-x="419" d="M18 106q0 56 31.5 93t95.5 37q49 0 79 -30t30 -79q0 -26 -7 -52t-34 -51.5t-70 -25.5q-57 0 -91 30.5t-34 77.5z" />
<glyph unicode="/" horiz-adv-x="806" d="M-12 -313q43 225 198.5 607.5t351.5 733.5t332 463q27 11 95.5 -3.5t76.5 -39.5q-150 -165 -292.5 -384.5t-259 -455t-210.5 -469.5t-165 -463q-7 -22 -40.5 -30t-62.5 3t-24 38z" />
<glyph unicode="0" horiz-adv-x="1091" d="M84 414q0 186 49.5 367t133 321t205 226.5t255.5 86.5q75 0 133.5 -21t96.5 -57t62.5 -88t35 -110t10.5 -127q0 -276 -84 -509t-231 -369t-324 -136q-84 0 -147 27t-99.5 68t-58.5 99t-29.5 110.5t-7.5 111.5zM260 473q0 -323 184 -323q78 0 160.5 72.5t146.5 187 t105 267.5t41 304q0 69 -7.5 122t-26 98.5t-54 70t-86.5 24.5q-87 0 -172 -70t-148.5 -183t-103 -264t-39.5 -306z" />
<glyph unicode="1" horiz-adv-x="917" d="M61 135q0 20 23 27t92 10l170 6q49 218 121 486t135 460q-61 -37 -179 -82t-147 -45q-21 0 -36 17t-15 39q0 27 25 43q44 34 268 156t260 122q8 0 15 -7t9.5 -11.5t8.5 -18.5q26 -61 18 -84q-112 -291 -193.5 -577.5t-121.5 -497.5q150 0 270 -12q10 -53 1 -82.5 t-31 -34.5q-85 -20 -570 -20q-46 0 -84.5 32.5t-38.5 73.5z" />
<glyph unicode="2" horiz-adv-x="1116" d="M74 154q15 80 68 158.5t125 142.5t155.5 127.5t164 124t146 120t106 127.5t40.5 136q0 172 -181 178q-92 2 -197 -44.5t-163 -136.5q-59 15 -59 66q0 59 42 110.5t107.5 83t141.5 49.5t147 17q169 -1 253.5 -74.5t84.5 -212.5q0 -90 -38 -172.5t-100.5 -147t-139 -124 t-157 -115t-151 -109t-125 -117t-74.5 -128.5q274 36 543 14q59 -4 95 -21.5t45.5 -41t6 -47.5t-19.5 -45q-357 35 -797 -11q-44 -4 -60.5 20t-8.5 73z" />
<glyph unicode="3" horiz-adv-x="1052" d="M59 201q2 34 31.5 63t83.5 29q53 -66 118.5 -99.5t164.5 -33.5q73 0 140.5 29.5t114 91t46.5 141.5q0 146 -88.5 208t-243.5 34q-44 -12 -67.5 -3.5t-24.5 48.5v7v9.5t0.5 10t3 10.5t6 9t9.5 8t14 5q52 11 104.5 26.5t121 45.5t119.5 65t86.5 87.5t35.5 111.5 q0 66 -45.5 100.5t-129.5 34.5q-61 0 -113 -14t-80 -31t-58 -31t-52 -14q-49 0 -49 49q0 53 62.5 96.5t150 65.5t174.5 22q155 0 233.5 -60.5t73.5 -176.5q-1 -70 -25.5 -126.5t-71 -99.5t-100 -74.5t-128.5 -62.5q126 -25 185 -113.5t59 -211.5q0 -189 -144 -311.5 t-375 -122.5q-87 0 -163.5 20t-127.5 61.5t-51 96.5z" />
<glyph unicode="4" horiz-adv-x="1118" d="M61 502q0 54 132.5 238.5t280.5 359.5t218 241q16 15 40.5 39.5l36.5 36.5t27 21.5t27 9.5q25 0 37 -15t21 -44q11 -35 -7 -73.5t-86 -103.5q-62 -61 -132 -133t-175.5 -186t-173 -207t-67.5 -133q0 -48 90.5 -67.5t269.5 -22.5q46 0 117 6q62 283 92 496q19 8 41 8 q84 0 84 -96q0 -83 -60 -388q68 12 181 46q17 -7 28 -24.5t11 -31.5q0 -42 -67.5 -76t-180.5 -53q-50 -230 -105 -342q-21 -46 -90 -49q-30 -1 -51 9t-16 22q44 116 102 342q-41 -2 -123 -2q-82 2 -143 6t-133 15.5t-118 29t-77 48.5t-31 73z" />
<glyph unicode="5" horiz-adv-x="1069" d="M86 240q0 39 25.5 59t56.5 18q47 -72 114.5 -110.5t174.5 -38.5q137 0 210.5 75t73.5 208q0 263 -352 270q-24 0 -57.5 -3t-52 -3.5t-37 4t-26 20.5t-5.5 45q5 70 60 260t91 242q32 47 121.5 77t182.5 40t192 10q68 0 119.5 -5t100 -17.5t74.5 -39t26 -65.5 q0 -26 -15 -61q-148 18 -286 18q-252 0 -424 -47q-66 -183 -97 -330q46 8 111 8q94 0 176 -23t146.5 -67.5t101.5 -116.5t37 -163q0 -208 -143 -335.5t-367 -127.5q-86 0 -160.5 22.5t-123 69t-48.5 107.5z" />
<glyph unicode="6" horiz-adv-x="1146" d="M109 457q0 151 37.5 297t108 268t165.5 215t216 145t253 52q50 0 89 -12t61 -30.5t32 -40.5t6.5 -43.5t-18.5 -37.5q-77 36 -180 33q-96 0 -183 -38t-154 -102t-119.5 -149.5t-85 -181t-46.5 -195.5q108 122 236 192t245 70q61 0 109 -17t76.5 -43.5t47 -63t25 -71.5 t6.5 -73q0 -120 -46.5 -237.5t-121.5 -205.5t-176 -142t-205 -54q-175 0 -276.5 132t-101.5 333zM285 455q3 -62 17 -117t40.5 -105t73 -79t108.5 -29q67 0 146.5 64t136.5 169t57 207q0 172 -129 172q-113 0 -235 -77.5t-215 -204.5z" />
<glyph unicode="7" horiz-adv-x="925" d="M131 1158q-25 42 2 110q71 34 202.5 53.5t262.5 17.5q213 -2 300 -29.5t87 -95.5q0 -62 -254 -569q-126 -252 -243 -444.5t-173 -206.5q-98 -12 -98 63q0 36 16 66t62 94q28 36 53.5 72t42 62t55 87t68.5 107q94 145 183 315.5t137 294.5q-191 18 -316 12.5t-301 -39.5 q-61 -12 -86 30z" />
<glyph unicode="8" horiz-adv-x="1107" d="M84 281q0 61 23 119t56 102t87 90.5t99.5 77t109.5 69.5q-85 66 -134 137.5t-62 127t-11 118.5q2 66 28 117.5t70.5 83t92.5 52.5t107 30t101 12.5t86 3.5q119 0 218.5 -36t153 -93.5t50.5 -120.5q0 -55 -53 -77q-41 62 -100 104q-37 -108 -113.5 -205.5t-212.5 -228.5 l6 -4q148 -111 213.5 -204.5t65.5 -195.5q0 -179 -125 -272.5t-359 -93.5q-80 0 -147.5 14.5t-125.5 46t-91 89t-33 137.5zM260 303q0 -83 70.5 -129.5t195.5 -46.5q160 0 231.5 56t71.5 163q0 47 -24 94.5t-66.5 89.5t-83 73t-92.5 65q-63 -43 -108.5 -78.5t-94 -84 t-74.5 -99.5t-26 -103zM408 1102q0 -83 41.5 -141.5t144.5 -135.5q88 74 185 203.5t134 222.5q-92 37 -204 37q-74 0 -140 -18.5t-113.5 -62t-47.5 -105.5z" />
<glyph unicode="9" horiz-adv-x="1042" d="M63 219q0 34 20.5 64.5t63.5 44.5q44 -90 100.5 -130t139.5 -40q68 0 127.5 34t104 88.5t84.5 134.5t67.5 160.5t52.5 178.5q-63 -82 -159.5 -130.5t-200.5 -48.5q-115 0 -188.5 85.5t-73.5 216.5q0 117 45 219t118.5 170.5t169 107.5t195.5 39q154 0 232.5 -74 t78.5 -219q0 -143 -67.5 -372.5t-145.5 -393.5q-45 -79 -88.5 -134.5t-100.5 -102.5t-129 -70.5t-159 -23.5q-73 0 -136 19.5t-107 65.5t-44 111zM358 922q0 -87 37 -141t111 -54q110 0 199 62t135.5 156t46.5 196q0 75 -41 116t-119 41q-110 0 -196 -55t-129.5 -139.5 t-43.5 -181.5z" />
<glyph unicode=":" horiz-adv-x="421" d="M18 106q0 56 31.5 93t95.5 37q49 0 79 -30t30 -79q0 -26 -7 -52t-34 -51.5t-70 -25.5q-57 0 -91 30.5t-34 77.5zM127 719q0 56 31.5 92.5t95.5 36.5q49 0 78.5 -29.5t29.5 -79.5q0 -18 -4.5 -37t-15 -41.5t-34 -36.5t-56.5 -14q-57 0 -91 31t-34 78z" />
<glyph unicode=";" horiz-adv-x="450" d="M-51 -229q179 46 188 168q7 87 -61 174q-11 11 -4 34q11 32 41.5 59t72.5 27q56 0 87.5 -44t31.5 -113q0 -137 -74 -239.5t-174 -125.5q-40 -9 -74.5 8.5t-33.5 51.5zM137 719q0 56 31.5 92.5t95.5 36.5q50 0 79.5 -30t29.5 -79q0 -26 -7 -52t-34 -51.5t-70 -25.5 q-57 0 -91 31t-34 78z" />
<glyph unicode="&#x3c;" d="M206 709q2 27 17 52t32.5 41.5t59.5 37t83.5 36t117.5 42.5q301 92 594 210q33 -24 29 -67q-1 -15 -14.5 -29.5t-45.5 -32.5t-54 -29t-71 -34q-20 -9 -30 -14q-183 -93 -562 -207q121 -27 254.5 -93.5t225.5 -125.5q37 -21 57 -33.5t52.5 -37t48.5 -50.5t16 -53 q0 -32 -18.5 -51.5t-53.5 -37.5q-214 229 -737 408q-3 41 -1 68z" />
<glyph unicode="=" d="M147 434q0 19 3 33t10.5 23t13.5 15t17.5 9t17 4.5t18 2.5t15.5 1q62 8 136 8t144 -3.5t96 -2.5q151 -14 300 0q39 1 63 -2.5t34 -14t12.5 -19.5t2.5 -25q0 -47 -37.5 -64t-99.5 -6q-95 15 -231 15h-40h-46.5t-45.5 -0.5t-52.5 -2t-52.5 -3.5t-60 -5.5t-60 -8.5t-67 -11 q-91 -19 -91 57zM188 864q0 19 3 33t10.5 23t13.5 15t17.5 9t17 4.5t18 2.5t15.5 1q70 8 154 8t161 -3.5t102 -2.5q151 -14 299 0q39 1 63.5 -2.5t34.5 -14t12.5 -19.5t2.5 -25q0 -47 -37.5 -64t-99.5 -6q-95 15 -232 15h-41.5h-48.5t-49 -0.5t-58 -2t-58.5 -3.5t-67 -5.5 t-67 -8.5t-74.5 -11q-91 -19 -91 57z" />
<glyph unicode="&#x3e;" d="M164 301q6 69 215 139q31 12 128.5 50.5t145 56t134.5 47t171 53.5q-122 27 -265.5 95.5t-231.5 123.5q-37 21 -57 33.5t-52.5 37t-48.5 50.5t-16 53q0 35 16 54t55 34q304 -252 758 -407q9 -114 -51 -159t-299 -118q-253 -78 -573 -211q-33 24 -29 68z" />
<glyph unicode="?" horiz-adv-x="727" d="M72 68q0 57 38 85.5t97 28.5q45 0 82 -29t37 -77q0 -45 -40 -78t-87 -33q-60 0 -93.5 34t-33.5 69zM115 530q0 61 29 112.5t75.5 89.5t102.5 73t112 69.5t102.5 71t75.5 86t29 107.5q0 73 -49 113t-121 40q-57 0 -105 -15t-85.5 -30.5t-69.5 -15.5q-36 0 -58 15t-22 42 q0 37 31.5 66t80.5 45.5t100.5 24.5t100.5 8q164 0 257.5 -70.5t93.5 -198.5q0 -85 -29 -154.5t-75.5 -114.5t-102.5 -81.5t-112.5 -65t-103 -56t-75.5 -62t-29 -76.5q0 -56 39 -109q-38 -38 -90 -38q-45 0 -73.5 35t-28.5 89z" />
<glyph unicode="@" horiz-adv-x="1632" d="M96 541q2 153 54 292.5t142 245.5t207.5 185t255.5 120t281 41q136 0 242.5 -30.5t172 -78t108 -112.5t59 -128t16.5 -130q0 -134 -47 -251.5t-120 -194t-159.5 -120.5t-168.5 -44q-85 0 -132.5 70.5t-35.5 195.5q-50 -108 -126 -172.5t-171 -64.5q-84 0 -131 53t-47 135 q0 124 61 247.5t164 204t215 80.5q55 0 85.5 -27t8.5 -77q-43 7 -84 -2q-76 -15 -144 -77.5t-106.5 -143t-38.5 -152.5q0 -86 66 -86q45 0 92.5 36t89 95.5t72 113.5t57.5 114q5 10 16 37t20 46t21 40.5t24 33t24 11.5q44 0 78.5 -24.5t19.5 -49.5q-72 -120 -99.5 -206.5 t-27.5 -191.5q0 -42 24 -78t68 -36q43 0 86.5 24.5t84 74t66 140t25.5 207.5q0 53 -12 104t-44 104.5t-81.5 92.5t-132.5 64.5t-188 25.5q-152 0 -289.5 -60.5t-233 -159t-151.5 -224.5t-56 -256q0 -249 136 -390.5t354 -141.5q286 0 551 176q19 -29 16 -60q-4 -41 -49 -84 t-120 -80.5t-189.5 -61.5t-243.5 -24q-160 0 -283.5 45.5t-200.5 127.5t-115 192t-36 244z" />
<glyph unicode="A" horiz-adv-x="1212" d="M-25 35q0 72 126 311.5t287 491.5t318 451.5t212 199.5q33 0 55 -19q-45 -337 -45 -837q52 0 102 -6q54 -7 70 -25.5t16 -48.5q0 -20 -19.5 -25.5t-58.5 -5.5q-73 0 -110 -2q2 -183 39 -420q-19 -40 -64.5 -70t-79.5 -30q-20 0 -32.5 20t-18.5 72q-20 174 -20 364v50 q-257 -30 -484 -133q-101 -210 -182 -434h-8q-27 -1 -46 5q-22 6 -33 14t-16.5 23.5t-6.5 25.5t-1 28zM350 537q194 67 406 88q14 385 30 583q-223 -268 -436 -671z" />
<glyph unicode="B" horiz-adv-x="1318" d="M96 121q6 77 98.5 396t172.5 484q68 139 153 139q23 0 47 -10q-78 -207 -141 -407q543 169 543 438q0 66 -51 104t-154 38q-127 0 -272.5 -57.5t-245.5 -162.5q-25 0 -43.5 14.5t-18.5 49.5q0 60 63 117.5t158 98t208 65t212 24.5q59 0 113 -12.5t102.5 -39t77.5 -76.5 t29 -118q0 -246 -252 -385q40 4 55 4q54 0 99 -16.5t74 -43.5t49.5 -62t29 -71t8.5 -73q0 -251 -307 -440q-107 -66 -241 -102.5t-226 -36.5q-83 0 -83 74q0 6 1 12q2 39 24 52q19 11 55 11h11q14 -1 27 -1q87 0 175 22q102 26 185 73.5t135 124t52 166.5q0 83 -45 129.5 t-133 46.5q-241 0 -455 -100q-87 -307 -137 -576q-32 -14 -54 -14h-8q-91 4 -91 99q0 11 1 22z" />
<glyph unicode="C" horiz-adv-x="1171" d="M68 426q0 114 35.5 233.5t97 225.5t147.5 200.5t182.5 162.5t206 107.5t215.5 39.5q42 0 73.5 -5t61 -19.5t45 -44t15.5 -73.5q0 -50 -40.5 -146t-94.5 -173.5t-86 -77.5q-30 0 -50 28t-20 64q0 22 7.5 47.5t26.5 60.5t33.5 59t46.5 73.5t48 75.5q-41 12 -76 12 q-103 0 -206 -49.5t-185 -132t-146.5 -184t-99.5 -212.5t-35 -211q0 -73 16 -130t43 -92.5t65 -58t78.5 -31.5t88.5 -9q88 0 174.5 24.5t140 53.5t98 53.5t58.5 24.5q17 0 27 -11t10 -28q0 -61 -94 -128t-233 -111t-263 -44q-189 0 -300 116.5t-111 309.5z" />
<glyph unicode="D" horiz-adv-x="1411" d="M31 90q0 38 109 38q13 0 28 -1q7 0 21.5 -1t21.5 -1q86 626 281 1128q-76 -5 -141 -20t-102 -27t-50 -12q-37 0 -37 23q0 54 75.5 98.5t178.5 66t202 21.5q343 0 528 -155.5t185 -450.5q0 -201 -81 -355.5t-232 -253.5t-360.5 -149.5t-471.5 -50.5q-86 0 -120.5 22.5 t-34.5 79.5zM381 129q168 13 307 57t245.5 119t166 190t59.5 259q0 122 -39.5 216.5t-112 155.5t-170 93.5t-216.5 37.5q-84 -268 -136.5 -526.5t-103.5 -601.5z" />
<glyph unicode="E" horiz-adv-x="1091" d="M68 70q-37 49 -37 156q0 196 125 587q28 88 53 151.5t65.5 139.5t96 133.5t125.5 93.5q75 41 176.5 60.5t152.5 19.5q82 0 138 -13t81 -35.5t34 -45.5q7 -19 7 -41v-10q-3 -66 -53 -95q-30 34 -93.5 53t-141.5 19q-77 0 -137 -12t-104.5 -38t-77 -58t-58 -83t-42.5 -101 t-36 -122l-31 -116q32 3 139 10t157 12t131 20t145 35q30 -24 30 -62v-7q-2 -45 -49 -70.5t-123.5 -33t-156.5 -9.5t-168 -6.5t-137 -17.5l-33 -123q-33 -121 -33 -194.5t40 -105.5t132 -32q112 0 313.5 39t212.5 39q39 0 39 -52v-8q-2 -42 -74 -77t-173 -54.5t-194 -30 t-155 -10.5q-208 0 -286 95z" />
<glyph unicode="F" horiz-adv-x="1140" d="M199 1323q143 78 335 119t394 41q53 0 101 -4t96.5 -14t83 -25.5t60 -39.5t27.5 -56q0 -5 1 -9q0 -29 -13 -65q-109 52 -244 67q-92 9 -174 9q-98 0 -180 -13q-67 -239 -135 -565q21 3 111 18t151.5 22t114.5 7q145 0 145 -95q0 -25 -10 -56l-4 -2q-11 4 -37 8 q-45 8 -100 8h-14q-48 0 -84 -4q-42 -4 -107 -13.5t-96.5 -16t-98.5 -19.5q-22 -118 -106 -602q-13 -10 -49 -19.5t-62 -9.5q-33 0 -41 26q-4 14 -5 33q0 16 3 35q4 43 18 113.5t39 190.5t41 204q-24 -3 -47 -3q-13 0 -26 1q-74 10 -74 91q0 14 2 30q89 10 172 24 q12 61 54 241.5t65 309.5q-74 -21 -182 -65q-26 -11 -47 -11q-31 0 -53 22q-28 28 -28 63q0 11 3 24z" />
<glyph unicode="G" horiz-adv-x="1449" d="M96 477q0 106 33.5 218t93 216t145.5 196.5t186 161t220.5 108.5t243.5 40q126 0 210 -43q79 -40 79 -106v-6q-1 -26 -19.5 -39t-44.5 -11q-26 1 -65 16.5t-88.5 31t-102.5 16.5h-11q-116 0 -220 -40q-110 -41 -191 -113t-140.5 -165.5t-89.5 -198.5t-30 -210 q0 -79 13.5 -148t43.5 -132t87 -99.5t135 -36.5q85 0 171 46t153.5 119t118 162t73.5 177q-12 2 -39 2q-76 0 -146.5 -6t-83.5 -6q-55 0 -55 37q0 83 221 94q20 1 42 1q37 0 79 -3q64 -3 137 -13.5t122 -36.5t50 -63v-5q0 -17 -11 -27q-12 -12 -38 -13q-13 -1 -30.5 1.5 t-53.5 9.5t-49 9l-119 -555q-19 -87 -34 -118q-12 -26 -46.5 -50t-56.5 -24q-21 0 -28 16.5t-5 49.5q4 73 64 327q-97 -136 -221 -200t-258 -64q-98 0 -174.5 24t-127 66.5t-83 103.5t-46.5 130.5t-14 152.5z" />
<glyph unicode="H" horiz-adv-x="1306" d="M84 141q6 84 39.5 243t84 343t123 367.5t144.5 287.5q19 3 35 3q44 -1 66 -27q13 -17 13 -43q0 -32 -18 -80q-93 -216 -163 -453q213 67 553 97q60 196 135.5 367t152.5 278h4q43 0 77 -21q34 -22 38 -49q-157 -309 -235 -566q41 0 57 -3q43 -3 61.5 -28t16.5 -58 q-1 -11 -4 -14.5t-17.5 -7t-44.5 0.5q-20 2 -45 2t-55 -2q-90 -340 -113 -737q-20 -10 -71 -10q-49 0 -70 25t-23 73v15q0 258 103 622q-143 -15 -296 -43.5t-259 -60.5q-88 -333 -140 -715q-18 -2 -34 -2q-69 1 -94 33q-23 30 -23 108q0 25 2 55z" />
<glyph unicode="I" horiz-adv-x="1085" d="M-2 50q-14 22 -14 45q0 32 26 69q44 -7 84 -9q18 -1 37 -1q23 0 47 2q43 2 66.5 4t73.5 9t65 9q15 250 87.5 564t162.5 515q-187 0 -266 -14q-13 -2 -25 -2q-28 1 -41 15q-18 20 -16 59q1 48 27 73t67 25q39 0 185 -11t214 -11q5 0 40.5 -0.5t72.5 -1.5h26q27 0 57 1 q46 1 91 4t78 9q3 -15 3 -29q0 -50 -35 -86q-44 -44 -128 -45q-34 0 -67 2t-71.5 5.5t-62.5 4.5q-84 -155 -150 -471t-75 -591q90 4 146.5 4.5t80.5 -4.5q73 -13 106 -64q17 -26 17 -57q0 -30 -16 -64q-89 41 -238 41q-98 0 -274.5 -25.5t-257.5 -25.5q-89 0 -123 52z" />
<glyph unicode="J" horiz-adv-x="1089" d="M33 281q0 54 28.5 78t67.5 24q30 0 50.5 -30t36 -72.5t35 -85.5t59.5 -74t98 -33h8q96 0 162 65q70 68 119.5 215t93.5 406l83 490h-26q-136 0 -282 -18q-161 -21 -204 -21q-86 0 -86 75q0 78 189 95q154 14 268 14q51 0 88 -1t77 -3.5t67.5 -8t50.5 -13.5t34 -20.5 t11 -29.5q0 -24 -8.5 -70t-20 -96t-36.5 -158t-46 -204q-7 -31 -20 -98q-19 -94 -30.5 -145t-37.5 -144t-50.5 -146.5t-66.5 -123t-89.5 -107.5t-115 -65t-147.5 -27q-169 0 -264.5 94.5t-95.5 237.5z" />
<glyph unicode="K" horiz-adv-x="1265" d="M82 41q0 75 51 205q53 135 74.5 194t60 172.5t61.5 216.5t40 218q6 52 9.5 94.5t5.5 93.5t3 63q1 64 31 91.5t96 27.5q74 0 74 -82q0 -46 -35 -184q-52 -203 -90 -401q113 47 221.5 117.5t189.5 145t140 142.5t94 125q17 28 25 39.5t28.5 36.5t41 36t42.5 11 q33 0 53.5 -25.5t18.5 -52.5q-1 -38 -18.5 -69t-59.5 -80q-82 -96 -230.5 -212.5t-330.5 -215.5q31 -78 47.5 -118.5t51.5 -119.5t60.5 -125t64.5 -107.5t73.5 -95.5t78 -60.5t87.5 -29.5q2 -13 2 -24q0 -44 -30 -73q-38 -36 -103 -36q-62 0 -127 54t-116 131t-102 182 t-82 184t-59 160l-84 -37q0 -3 -1 -8.5t-1 -8.5q-13 -63 -29.5 -128t-35.5 -128t-31.5 -103t-31 -96.5t-21.5 -64.5q-39 -125 -146 -125q-29 0 -45 18.5t-16 51.5z" />
<glyph unicode="L" horiz-adv-x="1024" d="M84 70q0 101 297 1292q12 54 34.5 83.5t51.5 29.5q32 0 67 -45t35 -84q0 -45 -25.5 -133.5t-71 -226.5t-71.5 -232q-7 -26 -27.5 -100.5t-29 -106t-25 -96t-25.5 -107.5t-20 -101.5t-18 -113.5q214 27 348 27q99 0 188.5 -11.5t112.5 -31.5q0 -57 -26.5 -97.5 t-87.5 -40.5q-36 0 -112 7.5t-130 7.5q-87 0 -212 -14q-117 -13 -152 -13h-5q-96 3 -96 107z" />
<glyph unicode="M" horiz-adv-x="1796" d="M76 168q8 70 41.5 217.5t91 336.5t124 359t149.5 287t159 117q35 0 63 -14t49 -43.5t37 -67t26.5 -93t17.5 -113.5q6 -56 8 -134q1 -58 1 -114q-1 -19 -1 -37q0 -73 -4 -168.5t-9 -180.5t-12 -194q328 582 403 705q136 222 215 285q53 42 111 42q120 0 123 -172v-10 q1 -53 -9 -117q-10 -70 -32.5 -195.5t-38.5 -240.5q-41 -295 -45 -568v-26.5t-3 -23.5t-8 -23.5t-16.5 -14t-27.5 -6.5q-19 0 -38.5 4t-44 15.5t-40 39.5t-16.5 68v6q0 69 23 207q24 144 59 321.5t45 239.5q30 190 31 224q-2 57 -33 59q-39 0 -113 -108.5t-157.5 -263.5 t-167.5 -310.5t-160 -264t-117 -108.5q-94 0 -94 217q0 106 11 319t13 294q1 34 1 65q0 286 -75 289h-2q-58 0 -126 -142q-68 -144 -115 -320t-64 -310q-8 -61 -12 -122t-4 -96.5t1 -92.5t1 -76q0 -31 -10.5 -51.5t-29.5 -29.5t-37.5 -12.5t-43.5 -3.5q-58 0 -84 41 q-18 29 -17 70q0 19 3 39z" />
<glyph unicode="N" horiz-adv-x="1382" d="M-2 41q0 24 19 68.5t58.5 126t65.5 141.5q124 290 189 600q49 231 76 309q50 146 112 146q63 0 142.5 -198t145.5 -483.5t105 -572.5q63 109 103 244t80 338q15 73 26.5 155.5t17 137.5t16.5 170t17 178q23 23 54 38t55 15q47 0 47 -80q0 -201 -69 -534.5t-132 -503.5 q-117 -324 -288 -324q-44 0 -66 19q-56 415 -104.5 634.5t-153.5 481.5q-126 -540 -264 -946q-77 -232 -180 -232q-72 0 -72 72z" />
<glyph unicode="O" horiz-adv-x="1230" d="M90 467q0 151 35.5 299t103.5 276t160 226t213.5 154.5t255.5 56.5q160 0 253 -127t93 -326q0 -104 -26.5 -220.5t-74 -230t-118.5 -217.5t-155 -183t-188.5 -126t-213.5 -47q-75 0 -135 29t-97.5 75.5t-62 109.5t-34 124.5t-9.5 126.5zM276 459q0 -160 43.5 -237 t131.5 -77q84 0 172.5 51t164 139t136 197.5t95 235t34.5 242.5q0 131 -53 214t-162 83q-87 0 -167 -39t-140 -104.5t-109.5 -151t-80.5 -180.5t-48 -190.5t-17 -182.5z" />
<glyph unicode="P" horiz-adv-x="1163" d="M129 -8q0 42 23.5 161t65.5 290t78.5 316t83.5 326.5t60 233.5q-75 -17 -135 -59q-53 -41 -80 -41q-17 0 -27 12.5t-8 32.5q3 65 80.5 116t175 74t185.5 23q85 0 162.5 -14.5t152.5 -50t129.5 -89.5t87.5 -138.5t33 -191.5q0 -131 -50.5 -245.5t-134 -192t-191.5 -122 t-222 -44.5q-135 0 -219 31q-33 -143 -94 -447q0 -2 -1 -5q-3 -14 -5 -21t-8 -17t-17.5 -14t-28.5 -4q-34 0 -65 21.5t-31 58.5zM408 547q83 -29 190 -29q77 0 151.5 27.5t136 78t99 131.5t37.5 179q0 190 -111 297t-282 110q-124 -380 -221 -794z" />
<glyph unicode="Q" horiz-adv-x="1359" d="M61 426q0 153 44 304.5t123 276.5t181 222t225.5 151t248.5 54q377 0 377 -453q0 -209 -102.5 -428t-272.5 -369q30 -92 55 -157q73 -179 223 -179q62 0 115 23q6 -18 6 -43q0 -57 -53 -92t-119 -35q-117 0 -196 61t-128 201q-14 39 -38 125q-164 -96 -344 -96 q-76 0 -137.5 29.5t-99 75t-63 104.5t-35.5 115t-10 110zM268 459q0 -324 201 -324q124 0 246 80q-54 221 -58 291q0 19 13.5 30t36.5 11q38 0 70.5 -59.5t66.5 -165.5q119 122 191.5 293.5t72.5 349.5q0 290 -213 290q-117 0 -221 -52.5t-176.5 -137t-125.5 -190 t-78.5 -212.5t-25.5 -204z" />
<glyph unicode="R" horiz-adv-x="1292" d="M141 49q0 202 113.5 602.5t220.5 628.5q-115 -27 -211 -90q-59 -41 -80 -41q-15 0 -24.5 12t-9.5 33q0 75 87 135.5t199.5 89.5t212.5 29q168 0 295 -49q128 -49 200 -151q67 -95 66 -225v-22q-3 -88 -35.5 -161t-82 -123t-120.5 -89t-142 -62t-156 -40q36 -93 87 -177.5 t113 -154.5q63 -70 138 -106q58 -28 115 -28q17 0 34 3q3 -15 3 -29q0 -46 -30 -79q-40 -43 -106 -43q-77 0 -168.5 67.5t-167 168t-131.5 223.5t-67 229q120 14 218.5 42t175.5 72.5t120.5 109t46.5 145.5v13q-1 92 -53 162q-56 76 -150 114.5t-213 41.5 q-109 -291 -181.5 -551.5t-168.5 -715.5q-5 -36 -33.5 -55t-58.5 -19q-35 0 -45.5 23t-10.5 67z" />
<glyph unicode="S" horiz-adv-x="997" d="M0 178q-1 6 -1 12q-1 12 3 28q6 24 18 42q140 -96 291 -96q107 0 194 26.5t142 84t55 137.5q0 57 -23 103t-61 76.5t-86.5 60.5t-98.5 53.5t-98.5 57t-86.5 70t-61 92.5t-23 124q0 116 67.5 205t177.5 134.5t242 45.5q166 0 278.5 -64.5t112.5 -175.5q0 -68 -73 -68 q-20 0 -40 14t-43 35t-54 41.5t-85 36t-124 17.5h-13q-117 0 -199 -51q-87 -54 -87 -148q0 -46 29 -86.5t76 -72.5t103.5 -65t113 -71.5t103.5 -84t76 -112t29 -145.5q0 -193 -155.5 -318.5t-403.5 -125.5q-45 0 -88 8t-89 27t-78 58.5t-40 94.5z" />
<glyph unicode="T" horiz-adv-x="1032" d="M127 1255q0 88 96 113q205 54 526 54q33 0 66 -1q196 -4 278 -17q155 -25 156 -83q0 -31 -17 -43t-58 -12q-31 0 -132.5 11t-230.5 13q-18 -72 -67 -257t-80.5 -314.5t-57.5 -257.5q-51 -242 -61 -428q-1 -24 -27 -33.5t-84 -9.5q-78 0 -78 82q0 43 9.5 98t20 97 t33.5 127.5t36 135.5q15 59 57 208.5t73.5 281.5t51.5 266q-107 -8 -206.5 -33t-158.5 -46t-75 -21q-39 0 -54.5 18t-15.5 51z" />
<glyph unicode="U" horiz-adv-x="1269" d="M141 406q0 195 79.5 502.5t176.5 484.5q22 10 49 10q78 0 78 -105q1 -24 -6 -57.5t-16 -60t-29 -87t-33 -100.5q-38 -106 -73 -268.5t-35 -284.5q0 -146 51.5 -225.5t148.5 -79.5q57 0 107.5 20.5t91.5 54t78.5 88.5t66 112.5t55.5 139t47 154t40.5 170.5t34.5 176.5 t32 184.5q21 126 29 149q17 52 60 66q23 7 55 8q35 0 51 -16q-22 -149 -43 -269.5t-48 -250t-55.5 -231.5t-66 -204t-79 -177.5t-93.5 -142t-111 -108.5t-131 -66t-153 -24q-175 0 -267 112.5t-92 324.5z" />
<glyph unicode="V" horiz-adv-x="1120" d="M238 1393q7 29 33.5 47t58.5 18q83 0 104 -69q20 -69 25 -181q2 -61 2 -132q0 -112 -6 -246q-9 -220 -9 -374q0 -3 -1 -6q0 -150 26 -243q409 490 549 1053q24 96 58 134t106 38q57 0 57 -54v-6q0 -76 -77 -257.5t-190.5 -385.5t-257.5 -407.5t-263 -313.5q-13 -3 -26 -3 q-75 0 -112 106q-36 102 -36 290q0 39 2 82q4 110 4 226q0 127 -5 263q-10 256 -42 421z" />
<glyph unicode="W" horiz-adv-x="1742" d="M86 324q0 217 109.5 552t257.5 568q48 69 86 69q25 0 49 -38t24 -72q0 -31 -38.5 -107t-96 -185.5t-86.5 -190.5q-125 -344 -125 -527q0 -36 0.5 -55t3.5 -52.5t10 -53t18.5 -40.5t31 -30.5t45.5 -9.5q103 0 236.5 180.5t287.5 552.5l25 62.5t23.5 59t21 49.5t23 43.5 t24.5 31t30 22t35 6.5q33 0 33 -38.5t-21 -121.5q-5 -25 -8 -39.5t-8.5 -40.5t-9.5 -49q-25 -136 -27 -285q0 -7 1 -14q0 -139 29 -245q31 -110 91 -111q82 0 170.5 123t149.5 336q21 73 37.5 156t24 137.5t22 171.5t22.5 174q6 48 15.5 72t35.5 53q14 13 41.5 22.5 t42.5 9.5q33 0 32 -71q0 -113 -32 -291.5t-75 -339.5q-14 -53 -29.5 -103.5t-44 -128.5t-58.5 -143.5t-73 -136t-87.5 -119.5t-102 -80.5t-117.5 -31.5q-58 0 -103.5 26t-71.5 68.5t-45 97.5t-24 112.5t-7 113.5q-1 16 -1 32q0 37 4 70q-56 -140 -152 -267t-207.5 -206.5 t-203.5 -79.5q-238 0 -238 332z" />
<glyph unicode="X" horiz-adv-x="1316" d="M-2 35q0 19 5 40t11 39.5t20 42.5t22.5 39.5t28.5 41.5t28.5 38t31.5 38.5t29 33.5t30 33t25 27q13 15 111.5 114t158.5 170t60 101q0 53 -31.5 132t-68.5 147t-67 144q-30 73 -30 120q0 57 40 83q22 14 49 14q21 0 45 -8l217 -530q173 211 365 371q189 157 294 157h4 q52 -2 69 -26q10 -14 10 -40q0 -18 -5 -42q-125 -70 -276.5 -177t-269.5 -216.5t-118 -159.5q0 -32 49 -128.5t108 -197.5t108.5 -205t50.5 -149q0 -36 -27 -60t-59 -24q-40 0 -86.5 63.5t-87.5 154t-78.5 181.5t-72 154.5t-56.5 64.5h-1q-49 0 -196 -184 q-148 -185 -260 -383q-33 -57 -53 -72.5t-51 -15.5q-30 0 -53 20.5t-23 53.5z" />
<glyph unicode="Y" horiz-adv-x="1198" d="M94 139q0 48 25.5 70t66.5 22q24 0 47 -13.5t46 -33.5t50 -39.5t70 -33.5t95 -15h5q44 0 85 17q44 18 80 48.5t70 78t61 98t53 118t45.5 128t39.5 137t34 137t30 135.5q-57 -117 -114.5 -204t-107 -139t-102 -83t-94.5 -42t-87 -11q-125 0 -199 103.5t-74 285.5 q0 124 32.5 252t80.5 227q33 68 74 96.5t79 28.5q54 0 76 -34q-80 -115 -119 -264.5t-39 -278.5q0 -279 129 -279q58 0 122.5 48t119 121t107 164.5t89.5 173t62 153.5l35 98q10 30 33.5 44.5t52.5 12.5q38 -3 61 -28q17 -18 17 -44q0 -7 -2 -16l-127 -567 q-25 -112 -44 -186.5t-51 -172.5t-65 -161.5t-83.5 -132.5t-109.5 -108.5t-139 -65t-176 -25.5q-126 0 -233 55.5t-107 124.5z" />
<glyph unicode="Z" horiz-adv-x="1243" d="M53 143q0 46 84.5 153t207.5 230.5t277 265.5t275.5 248.5t220.5 188.5q-141 38 -360 41h-15q-139 0 -249 -35q-116 -37 -179 -119q-39 6 -60.5 29t-21.5 53q0 54 46 96.5t121.5 67.5t164.5 38t183 13q518 0 518 -168q0 -35 -28.5 -80t-88.5 -103.5t-120 -111.5 t-156.5 -136.5t-163.5 -145.5q-322 -297 -449 -484q151 -13 268 -14q34 0 66 2q114 4 199 15t121.5 21.5t71 19t61.5 8.5q34 0 49.5 -18t15.5 -46q0 -43 -49.5 -76.5t-130 -52.5t-167 -29t-175.5 -12q-26 -1 -52 -1q-70 1 -134 5q-88 6 -171 20t-131.5 44t-48.5 73z" />
<glyph unicode="[" horiz-adv-x="786" d="M8 -172l254 1534q3 20 13.5 35.5t23.5 25t35 15.5t38.5 8.5t43 2.5t40.5 -0.5t39 -2.5t31 -2q134 -9 250 2q7 1 26.5 3.5t27 2.5t19.5 -2.5t17 -10.5t6 -22q0 -60 -61 -89t-133 -25q-22 1 -56.5 5.5t-57 7.5t-51 0.5t-47.5 -13t-36.5 -36.5t-26.5 -67 q-80 -373 -152.5 -771.5t-72.5 -545.5q0 -56 94 -53q106 6 265 59q1 0 15 4.5t19.5 5t15.5 0t16 -7.5t9 -20q4 -18 4.5 -33t-5 -27.5t-11 -21.5t-21.5 -18t-27 -14.5t-36 -13.5t-42 -12.5t-50 -13.5q-75 -20 -172.5 -31t-163.5 -3q-98 13 -80 145z" />
<glyph unicode="\" horiz-adv-x="778" d="M123 1376q11 24 87 33t99 -6q18 -378 146 -883.5t293 -925.5q14 -38 -31.5 -42.5t-89.5 20.5q-20 12 -25 25q-364 834 -479 1779z" />
<glyph unicode="]" horiz-adv-x="778" d="M-55 -184q2 30 16 42t53.5 12t122.5 -15q8 -1 32 -5.5t33.5 -6t30.5 -3.5t31 -1t28 3.5t27.5 9t23 16.5t21.5 24t16.5 34t14.5 45q80 347 155 758.5t75 558.5q0 29 -23.5 40t-71.5 13q-136 4 -264 -38q-5 -1 -19.5 -6t-24 -7.5t-19.5 2.5t-13 21q-4 17 -4.5 30.5 t3.5 24.5t10 19t17 15t23 12.5t29.5 11t35.5 10l42 10.5q21 5 33 8q209 51 336 35q48 -6 69 -44t11 -102l-238 -1421q-11 -67 -40 -114.5t-69.5 -72t-82.5 -34.5t-89 -8q-167 3 -251 31.5t-80 91.5z" />
<glyph unicode="^" horiz-adv-x="907" d="M122 757q1 16 1 29q2 30 22 70t35.5 61.5t44.5 57.5q65 83 176 239q159 229 189 267q30 37 49 37q18 0 47 -52q10 -22 20.5 -48.5t17.5 -46.5t18 -58.5t16 -57t19 -71.5t20 -74q37 -141 55 -303q5 -45 -12.5 -88t-51.5 -43q-82 0 -98 151q-33 291 -90 420 q-194 -231 -303 -420q-71 -114 -125 -114q-26 0 -38.5 14t-11.5 30z" />
<glyph unicode="_" horiz-adv-x="1333" d="M-57 -131q0 44 18 70q68 -17 148.5 -25.5t136 -10t162.5 -1.5q418 0 757 39q47 -28 47 -82q0 -30 -24.5 -51.5t-88.5 -33t-163 -5.5q-215 15 -526 -7q-191 -13 -273 -16q-51 -2 -92 6.5t-71.5 38t-30.5 78.5z" />
<glyph unicode="`" d="M-18 1464q0 41 38 67t91 23q45 -106 119 -181t194 -126q0 -17 -22.5 -33t-59.5 -16q-59 0 -143.5 39.5t-150.5 103.5t-66 123z" />
<glyph unicode="a" horiz-adv-x="1130" d="M-2 225q0 114 42 233t112.5 218t157 178.5t182 124.5t180.5 45q109 0 109 -92q0 -9 -1 -19q-30 5 -59 5q-34 0 -64 -7q-92 -18 -179.5 -84.5t-148.5 -154t-98.5 -186t-37.5 -181.5q0 -160 98 -160q63 0 127.5 41.5t116 103.5t102 146.5t85 158.5t64.5 150q64 162 102 212 q30 40 56 40q42 0 62 -35q11 -18 11 -38q0 -19 -9 -39q-70 -155 -120 -332t-50 -277v-11q0 -79 43 -79q19 0 47 14.5t39 14.5q24 0 24 -45q0 -59 -59 -108.5t-137 -49.5q-79 0 -109 78q-16 41 -15 104q0 57 13 132q-84 -145 -206 -233.5t-263 -88.5q-99 0 -158 62.5 t-59 158.5z" />
<glyph unicode="b" horiz-adv-x="1026" d="M49 354q0 135 53 361t123 432q100 310 178 358q30 21 66 21q49 0 49 -45q0 -26 -19 -87.5t-51.5 -150.5t-41.5 -115q-95 -273 -121 -368q92 123 230 203.5t263 80.5q25 0 50.5 -6t53 -23t48.5 -42.5t35 -68.5t14 -97q0 -138 -43.5 -266.5t-115 -224.5t-158.5 -168 q-88 -74 -180 -110q-87 -35 -163 -34h-8q-82 1 -135 25.5t-80 73.5t-37 107t-10 144zM221 311q0 -35 2 -59.5t9.5 -50.5t21 -41t37 -25t57.5 -10q62 0 139.5 50t148.5 132.5t119 205.5t48 253q0 71 -19 108t-73 37q-68 0 -154 -53.5t-160 -136t-125 -194t-51 -216.5z" />
<glyph unicode="c" horiz-adv-x="897" d="M-6 313q0 122 44.5 235t117 197t161.5 147t182 95.5t175 32.5q188 0 188 -131q0 -79 -80 -111q-46 78 -161 78q-77 0 -157.5 -36t-149 -98.5t-112.5 -160t-44 -209.5q0 -109 50 -166t140 -57q105 0 217.5 62.5t182.5 185.5q43 -3 43 -60q0 -95 -71.5 -171.5t-178.5 -115 t-224 -38.5q-87 0 -151 24.5t-101 69t-54 101t-17 126.5z" />
<glyph unicode="d" horiz-adv-x="1138" d="M6 283q0 135 66.5 273.5t171 244t240.5 172.5t268 67q63 0 114 -26q26 110 43 174q74 276 146 321q35 21 75 21q50 0 50 -45q0 -26 -17 -82t-43.5 -131t-34.5 -101q-66 -206 -119 -430.5t-53 -365.5q0 -205 88 -264q-5 -32 -37 -58t-71 -26q-52 0 -90.5 47.5t-55 111.5 t-16.5 131q-181 -307 -469 -307q-123 0 -189.5 70.5t-66.5 202.5zM195 338q0 -95 36 -138.5t109 -43.5q39 0 83.5 15.5t99.5 55.5t104.5 101t97 162.5t78.5 228.5q17 70 37 164q-46 26 -107 26q-108 -1 -209.5 -55t-172.5 -137.5t-113.5 -184.5t-42.5 -194z" />
<glyph unicode="e" horiz-adv-x="991" d="M4 340q0 144 59.5 275t155 221.5t216.5 144t243 53.5q106 0 168.5 -55t62.5 -141q0 -97 -62 -184t-161 -145q-100 -59 -228 -89q-99 -24 -198 -23q-29 0 -59 2v-37q0 -100 66.5 -160.5t154.5 -60.5q116 0 212.5 52.5t192.5 168.5q18 -3 27.5 -19.5t5.5 -41.5 q-10 -50 -52 -102.5t-108 -97t-160.5 -73t-197.5 -28.5q-42 0 -84.5 9t-89 33t-82 60.5t-59 98t-23.5 139.5zM213 494h25q92 0 180 26q100 30 167 77.5t107.5 106t40.5 111.5q0 98 -96 98q-143 0 -265.5 -117t-158.5 -302z" />
<glyph unicode="f" horiz-adv-x="753" d="M16 911q11 78 320 107q67 271 171 393.5t281 122.5q75 0 134 -32q59 -33 59 -98q0 -30 -19 -52q-21 -23 -47 -23q-64 74 -161 74q-96 0 -150.5 -82t-95.5 -287q74 7 131 7q92 0 139 -19q53 -20 53 -71q0 -21 -10 -48q-59 10 -135 10q-90 0 -205 -14q-3 -25 -16 -106 l-82 -533q-8 -53 -15 -88t-21.5 -78.5t-37.5 -66t-53 -23.5h-6q-39 0 -62 25q-16 18 -16 56q0 19 4 42l105 614q13 78 24 133q-74 -9 -144 -26t-95 -17q-52 0 -52 57q0 11 2 23z" />
<glyph unicode="g" horiz-adv-x="1056" d="M-57 -307q0 62 53 65q25 1 54.5 -11.5t56 -27.5t76.5 -28t110 -13q59 0 109.5 24t88 62.5t71 100t56.5 121.5t46 143t38 149t34 154q2 9 3 14.5t3 13.5t3 15q-68 -179 -188 -283t-272 -104q-125 0 -201 78t-76 211q0 125 50 252.5t131 227.5t193 163t228 63 q121 0 127 -88q-19 3 -39 3q-74 0 -154 -39q-102 -49 -181.5 -133.5t-132 -196.5t-52.5 -217q0 -85 44.5 -133t125.5 -48q60 0 119 37.5t104.5 96t85 133.5t66 144.5t43.5 135.5q4 13 12.5 43.5t14.5 49.5t15.5 47t18.5 45.5t21 35.5t26.5 27t30.5 10h7q38 0 54 -21 q11 -16 11 -47q0 -13 -2 -28q-61 -445 -174 -887q-64 -255 -204 -386.5t-339 -131.5q-122 0 -215.5 44t-99.5 114z" />
<glyph unicode="h" horiz-adv-x="1128" d="M61 145q0 216 62.5 523.5t198.5 662.5q42 112 84.5 162.5t105.5 50.5q25 0 25 -33q0 -28 -15 -75q-189 -501 -274 -1022q82 143 205.5 290.5t248 248t197.5 100.5q66 0 66 -88q0 -67 -50.5 -335t-50.5 -335q0 -129 74 -129q8 0 24 4.5t21 9.5q18 -26 18 -69 q0 -44 -37.5 -75.5t-91.5 -31.5q-172 0 -172 256q0 124 34 302.5t34 213.5q0 29 -14 29q-44 0 -149 -101t-189 -229q-108 -165 -165 -270.5t-93 -206.5q-52 5 -74.5 36t-22.5 111z" />
<glyph unicode="i" horiz-adv-x="487" d="M51 121q0 70 78.5 403t106.5 404q14 38 42 60q26 20 56 20h6q40 -1 50 -33q5 -16 5 -35q0 -20 -6 -43q-8 -54 -57 -226t-60 -270q-6 -50 -15.5 -160t-10.5 -116q-4 -46 -35.5 -70t-85.5 -24q-74 0 -74 90zM309 1292q0 117 32 167t97 50q36 0 57 -21q19 -19 19 -48v-6 q0 -40 -17 -91t-54.5 -93t-82.5 -42q-51 0 -51 84z" />
<glyph unicode="j" horiz-adv-x="518" d="M-422 -319q0 40 16.5 62t45.5 24q20 0 39.5 -12t35.5 -27t47.5 -27t71.5 -12q39 0 72.5 20t61 61t49 84t41.5 109t33 114t30 120q34 139 62 350t28 332q0 63 24.5 96t65.5 33q100 0 100 -119q0 -92 -71 -459q-53 -285 -101 -432q-149 -461 -432 -461q-84 0 -151 38 t-68 106zM274 1323q0 49 14.5 97.5t45.5 84t72 35.5h8q33 0 53 -16q22 -18 22 -53q0 -59 -59 -148q-59 -90 -100 -90h-2q-23 0 -37 23q-15 25 -17 67z" />
<glyph unicode="k" horiz-adv-x="1019" d="M4 147q126 450 199 742q3 10 16.5 63.5t16 66t13.5 58t14.5 64t11 59.5t11 69.5t8 68t7.5 79.5q2 23 4 34t8 28t18 24.5t31 7.5q62 0 85 -47q18 -36 18 -77q0 -12 -2 -25q-23 -189 -89.5 -455.5t-164.5 -544.5q121 152 293.5 316t305 264t169.5 100q47 0 47 -59 q-2 -111 -72 -149q-231 -125 -405 -263q65 -209 131 -313t156 -104q47 0 77 26q33 -30 33 -71q0 -52 -43.5 -80.5t-107.5 -28.5q-67 0 -128.5 41t-107.5 109t-79.5 147t-51.5 162q-111 -116 -205 -279q-5 -9 -19.5 -39.5t-24.5 -46.5t-26.5 -38t-36.5 -32t-44 -10 q-76 0 -76 71q0 26 10 62z" />
<glyph unicode="l" horiz-adv-x="557" d="M82 254q0 185 55 440.5t133 472.5q72 196 117 270q32 51 59 68q35 21 76 21q49 0 49 -45q0 -26 -24.5 -87t-62 -140t-48.5 -105q-72 -179 -128 -419.5t-56 -399.5q0 -22 3 -42.5t10 -41.5t23 -34t38 -13q15 0 47 10t49 10q27 0 27 -37q0 -62 -54.5 -115t-132.5 -53 q-88 0 -134 65t-46 175z" />
<glyph unicode="m" horiz-adv-x="1767" d="M75 76q-12 38 -12 93q0 58 13 136q27 204 87.5 400.5t119.5 310.5h3q72 0 89 -48q6 -16 6 -39q0 -46 -23 -120q-40 -121 -106 -432q59 111 147.5 234.5t179.5 225.5t178.5 169t139.5 67q25 0 44 -24t28.5 -61.5t14.5 -75.5t5 -74q0 -213 -80 -500q163 242 305 398.5 t220 156.5q42 0 72 -31t42 -66.5t17 -74.5q6 -51 9 -113t3 -104t-1 -107t-1 -90q0 -129 90 -162q0 -65 -39.5 -93.5t-81.5 -28.5q-41 0 -70.5 21t-44.5 57t-21.5 76t-6.5 87q0 48 7 160.5t7 138.5q0 123 -53 123q-37 0 -97.5 -64t-125 -155l-129 -182t-123.5 -155t-94 -64 q-80 0 -80 100q0 62 49.5 275.5t50.5 324.5q0 11 -1.5 23t-10.5 28.5t-25 16.5q-47 0 -164.5 -140t-240 -339t-183.5 -353h-9q-81 0 -104 74z" />
<glyph unicode="n" horiz-adv-x="1148" d="M62 234q4 82 22 208q11 75 34.5 164t60.5 188t92.5 164.5t117.5 65.5q36 0 45 -18q-78 -179 -117 -311.5t-65 -293.5q84 136 210 284.5t256 257t202 108.5q40 0 53.5 -29.5t13.5 -79.5q0 -31 -14 -103t-35.5 -181.5t-34.5 -198.5q-18 -120 -18 -192q0 -109 41 -109 q4 0 21 2t28 2q21 0 26 -12q4 -8 4 -21q0 -5 -1 -12q-6 -51 -51 -93t-93 -42h-3q-68 0 -103 51q-36 52 -40 151q-1 19 -1 39q0 87 14 201q9 72 21 142t21 109.5t15 71.5t5 44.5t-11 13.5h-3q-43 0 -144 -97q-105 -100 -201 -233q-101 -142 -152 -242t-106 -243q-6 -1 -12 -1 q-36 -1 -59 21q-27 24 -35 84q-6 38 -5 86q-1 25 1 54z" />
<glyph unicode="o" horiz-adv-x="997" d="M12 324q0 132 49 262.5t130 231.5t194.5 163.5t235.5 62.5q145 0 227 -89t82 -244q0 -122 -52 -247.5t-137 -224t-204 -161t-244 -62.5q-130 0 -205.5 83.5t-75.5 224.5zM193 332q0 -185 137 -185q88 0 174.5 53.5t148 134t100 176t38.5 177.5q0 89 -44.5 146t-130.5 57 q-96 0 -179.5 -59t-134.5 -146.5t-80 -181.5t-29 -172z" />
<glyph unicode="p" horiz-adv-x="1110" d="M-85 -418q2 37 8.5 72.5t19.5 85.5q105 410 170 801q8 46 23 132t27 157.5t21 132.5q3 30 21 47.5t45 19.5q36 0 58 -38t22 -99q0 -45 -13 -182q60 82 132.5 145t141 97t129 50.5t111.5 16.5q64 0 111.5 -21.5t72.5 -56t36.5 -71t11.5 -74.5q0 -125 -46 -236.5 t-117.5 -189t-158 -135t-167 -84.5t-144.5 -27q-59 0 -83.5 15t-24.5 50q0 38 19 48t62 10q102 0 194 50.5t152.5 127.5t96 165t35.5 165q0 121 -113 121q-107 0 -249 -96.5t-230 -239.5l-111 -506q-18 -83 -36.5 -172.5t-27.5 -134t-19 -87.5t-17.5 -64t-16.5 -34 q-32 -35 -100 -35q-25 0 -37 19q-9 16 -9 45v10z" />
<glyph unicode="q" horiz-adv-x="1013" d="M14 348q0 92 34 185t89.5 168.5t125 138t142.5 103t140 54.5q51 10 89 10q43 0 68 -13q39 -19 39 -61q0 -10 -2 -22q-14 1 -27 1q-80 0 -155 -31q-116 -50 -201.5 -139t-125.5 -187.5t-40 -196.5q0 -64 24.5 -99.5t66.5 -35.5q58 0 115 36.5t99.5 88t85.5 128.5t70 137.5 t56 134.5q4 11 16 43t19 49t19.5 45.5t23 45t23.5 34.5t26.5 26t27.5 8q62 0 62 -78q0 -15 -2 -34q-12 -71 -78 -326q-38 -150 -91 -418.5t-79 -461.5q127 57 179 67q23 4 42 4q39 0 39 -37q0 -30 -59.5 -86t-145.5 -101.5t-147 -45.5q-86 0 -86 106q0 44 16.5 155t48.5 243 q44 179 90 407q-74 -158 -186 -244t-246 -86q-96 0 -150.5 77t-54.5 208z" />
<glyph unicode="r" horiz-adv-x="708" d="M63 182q0 108 58 360t121 466q24 6 43 6q64 0 73 -72q2 -15 2 -33q0 -64 -26 -157q70 122 167.5 195t188.5 73q56 0 82.5 -26.5t26.5 -67.5q0 -43 -28 -74t-62 -31q-46 16 -88 16q-112 0 -201 -112q-74 -94 -123.5 -263.5t-89.5 -426.5q-13 -2 -25 -2q-54 1 -83 35 q-36 42 -36 114z" />
<glyph unicode="s" horiz-adv-x="882" d="M20 209q0 72 41 84q135 -117 275 -117q93 0 155 35.5t62 107.5q0 37 -26 65.5t-68 48t-92.5 38.5t-101.5 42t-93 52t-68 75t-26 105q0 132 108 206.5t275 74.5q104 0 195 -30q92 -30 150 -90q53 -55 52 -124v-12q-4 -46 -40 -70q-27 -18 -55 -18q-11 0 -22 2 q-13 99 -95.5 153t-196.5 54q-77 0 -128 -40t-51 -95q0 -39 25 -71.5t64.5 -56t88 -46t96.5 -47t87.5 -52.5t64.5 -70t25 -94q0 -75 -37.5 -133.5t-97.5 -91t-125.5 -49t-130.5 -16.5q-142 0 -226 52t-84 128z" />
<glyph unicode="t" horiz-adv-x="933" d="M-6 897q1 34 31.5 58.5t87 38.5t107.5 21.5t122 12.5q78 315 127 432q9 6 29 6q32 0 54 -12t31 -31.5t12 -34t3 -28.5q0 -16 -7 -46t-19.5 -72t-16.5 -60l-39 -146q63 2 115 2h49q68 -2 121.5 -8t83.5 -17q29 -11 49 -29q19 -17 19 -39t-9 -58q-89 17 -223 17 q-107 0 -242 -11q-110 -434 -110 -606q0 -25 0.5 -39t6.5 -38.5t17.5 -37.5t35.5 -24t58 -11q127 0 291 158q27 -5 44.5 -20t17.5 -35q0 -10 -15 -33q-68 -106 -187.5 -163.5t-227.5 -57.5q-217 0 -217 262q0 137 110 622q-36 -7 -97 -21t-101 -22t-62 -8q-31 1 -41 21 q-8 17 -8 45v12z" />
<glyph unicode="u" horiz-adv-x="1122" d="M66 260q0 170 78.5 413t150.5 365q113 -5 113 -94q0 -25 -25.5 -95t-55.5 -147t-55.5 -180t-25.5 -186q0 -65 16.5 -105.5t48.5 -40.5q40 0 85 31.5t91 92t85.5 121.5t84.5 148.5t71.5 142t62.5 133t43 93.5q16 34 42 62q26 27 56 26h2q28 0 58 -40q27 -37 26 -58 q0 -14 -34 -110q-30 -84 -55.5 -202.5t-31.5 -267.5v-20q1 -72 13 -126q14 -60 53 -120q-14 -27 -43 -47t-58 -20q-67 0 -104 56.5t-40 171.5v18q0 111 34 272q-256 -524 -521 -524q-80 0 -122.5 60.5t-42.5 176.5z" />
<glyph unicode="v" horiz-adv-x="892" d="M53 1026q31 39 84 39q85 0 142 -208t77 -591q199 237 353 645q1 3 5.5 18t7 20t8.5 17.5t13.5 18t18.5 12.5t27 10t36 3q70 0 70 -56q0 -68 -130.5 -292t-287 -423.5t-217.5 -199.5q-29 0 -43.5 19.5t-15.5 68.5q-8 434 -148 899z" />
<glyph unicode="w" horiz-adv-x="1396" d="M59 279q0 102 28.5 234t74 250.5t110 199.5t129.5 81q64 0 64 -40q0 -8 -2 -16t-8.5 -19t-11 -18.5t-16.5 -26t-19 -29.5q-82 -127 -129.5 -277.5t-47.5 -300.5q0 -170 64 -170q74 0 184 171t207 413q12 29 26 68.5t19.5 54.5t16.5 32t23 22t32 5q65 0 65 -61 q0 -9 -6 -51q-37 -242 -43 -331q-3 -41 -3 -76q0 -198 87 -199q58 0 123.5 102t106.5 238q40 131 51.5 215t11.5 204q0 39 23 58.5t63 19.5q12 0 21 -2t22 -8.5t20 -23.5t7 -44q0 -74 -22.5 -197.5t-67.5 -246.5q-72 -200 -193.5 -342.5t-237.5 -142.5q-61 0 -110 80.5 t-49 216.5q0 58 6 122q-80 -185 -208 -324q-127 -138 -241 -138h-2q-71 2 -119.5 71t-48.5 226z" />
<glyph unicode="x" horiz-adv-x="1056" d="M-31 -12q0 51 44.5 125.5t108 147.5t127 140.5t108 120t44.5 70.5q0 24 -25.5 52t-61.5 56t-72.5 59t-62 73t-25.5 86q0 17 6 40.5t24 47.5t43 24q24 0 90 -87t130.5 -174t84.5 -87q14 0 53 37t88.5 89.5t102.5 105t105 89.5t86 37q37 0 65 -34q26 -30 25 -63v-7 q-3 -37 -44 -75t-97.5 -70.5t-113.5 -64.5q-56 -33 -98 -70q-45 -40 -45 -74q0 -28 51 -111q53 -86 106.5 -177t53.5 -130q0 -29 -25 -53.5t-54 -24.5q-6 0 -11.5 1t-10.5 4t-8.5 5.5t-7.5 8t-6.5 8.5t-6 9.5t-4.5 9t-4.5 10t-4.5 8.5q-20 47 -55 114t-84 136t-78 69 q-73 0 -391 -461q-46 -67 -103 -67q-19 0 -33 13t-14 34z" />
<glyph unicode="y" horiz-adv-x="1163" d="M-111 -289q0 30 18.5 50t47.5 20q35 0 93 -26.5t127 -53.5t130 -27q67 0 125 22t102.5 59t82.5 95.5t65.5 120t52.5 145t42 158.5t36 172q-104 -186 -261 -319t-278 -133q-88 0 -132 84t-44 223q0 142 38.5 313.5t106 299.5t138.5 128q41 0 58.5 -17t15.5 -48 q-2 -22 -25 -78q-71 -158 -119.5 -339t-48.5 -314q0 -103 49 -103q95 0 213 118.5t222 310t163 399.5q13 47 49 47q32 0 55 -50t23 -96q0 -164 -98 -593q-22 -94 -43 -167.5t-52 -154.5t-66 -140.5t-84.5 -116t-107 -92t-134 -56.5t-166.5 -21q-83 0 -172.5 21.5 t-155.5 64.5t-66 94z" />
<glyph unicode="z" horiz-adv-x="1028" d="M12 152q0 16 7.5 33t27.5 40t39.5 42.5t60.5 53.5t72.5 59.5t92 74.5t104.5 84q134 109 207.5 175.5t152.5 151.5q-86 18 -183 18q-43 0 -89 -4q-148 -12 -279 -61q-40 7 -65 41.5t-25 75.5q0 31 39 52t101 30t111 12.5t97 3.5q116 0 204 -10t140 -28t77.5 -39.5 t25.5 -47.5q0 -158 -705 -688q42 -4 170 -4q145 0 412 62q45 14 74 14q8 0 15 -1q32 -5 32 -50q0 -25 -8 -58q-8 -32 -76 -57.5t-167.5 -39.5t-193 -21t-178.5 -9h-36q-257 0 -257 95z" />
<glyph unicode="{" horiz-adv-x="813" d="M47 -100q0 47 22.5 89.5t56.5 71.5t73.5 60t73.5 56.5t56.5 59.5t22.5 70q0 60 -65 101.5t-137 50.5q-11 15 -11 30q0 21 21.5 46t73.5 69t71 62q109 89 109 141q0 19 -23 42t-56 47.5t-66 54t-56 72.5t-23 91q0 69 54.5 136t136 113t177 74.5t177.5 28.5q31 0 58.5 -13 t27.5 -36q0 -35 -68 -64t-198 -61q-110 -27 -161.5 -65t-51.5 -109q0 -28 23.5 -54.5t56.5 -50.5t66.5 -50t57 -62.5t23.5 -79.5q0 -28 -16.5 -59.5t-36 -55.5t-58.5 -57.5t-59.5 -49.5t-64.5 -48q178 -114 178 -236q0 -56 -30.5 -107t-74 -89t-87.5 -72t-74.5 -69.5 t-30.5 -67.5q0 -46 57.5 -93.5t149.5 -47.5q67 0 127 8q2 -6 2 -19q0 -29 -18.5 -48.5t-52 -27.5t-63.5 -11t-69 -3q-45 0 -96.5 16.5t-97.5 45.5t-76.5 74t-30.5 96z" />
<glyph unicode="|" horiz-adv-x="559" d="M36.5 -388.5q-8.5 82.5 6 213.5t40 276t58.5 286q59 250 111.5 422.5t163.5 480.5q60 167 75 198q27 52 56 48q41 -6 61.5 -33.5t14.5 -66.5q-4 -37 -56 -189q-12 -35 -60.5 -171t-68.5 -196.5t-54.5 -171t-55.5 -202t-35 -182.5q-68 -336 -98 -652q-6 -39 -10.5 -57 t-16 -42t-33 -34t-55.5 -10q-35 0 -43.5 82.5z" />
<glyph unicode="}" horiz-adv-x="811" d="M0 -233q106 -6 197.5 21.5t150 89.5t58.5 147q0 34 -19 76.5t-41.5 77t-41.5 79t-19 82.5q0 39 34.5 84t88.5 80q-84 2 -148.5 52t-64.5 130q0 48 24.5 95.5t63.5 86t86 76t94 71.5t86 65.5t63.5 64.5t24.5 63q0 37 -53.5 66t-127 41.5t-143.5 9.5q-16 31 -16 57 q0 45 33.5 61.5t91.5 16.5q86 0 169 -30t139 -85t56 -120q0 -55 -32.5 -111t-81 -100.5t-105.5 -90t-105.5 -80.5t-81 -69.5t-32.5 -60.5q0 -47 39 -72t107 -25q98 0 208 43q25 -21 25 -45t-30 -50.5t-73.5 -52t-87 -54t-75 -66.5t-33.5 -80q-1 -24 16 -59.5t37.5 -68.5 t38 -83t17.5 -100q0 -67 -21.5 -126t-65 -108t-118.5 -77.5t-174 -28.5q-158 0 -158 107z" />
<glyph unicode="~" d="M158 647q0 129 80 196.5t192 67.5q47 0 88 -15.5t69 -39t58 -51t55.5 -51t61 -39t74.5 -15.5q47 0 84 30t55 66.5t34.5 66.5t26.5 30q25 0 41.5 -20t16.5 -52q0 -121 -79.5 -197.5t-193.5 -76.5q-59 0 -109 23.5t-84 57.5t-65 67.5t-67 57t-74 23.5q-47 0 -76 -31 t-29 -73q0 -27 -2.5 -43t-10.5 -35t-28.5 -28t-52.5 -9q-29 0 -47 25.5t-18 64.5z" />
<glyph unicode="&#xa1;" horiz-adv-x="485" d="M-51 -311q0 32 17.5 76.5t57 133.5t70.5 177q43 122 68 233.5t35 253.5q62 6 85 -31.5t23 -123.5q0 -174 -64.5 -401t-162.5 -435q-55 -7 -92 27.5t-37 89.5zM186 913q0 54 33 92.5t78 38.5q59 0 91 -40.5t32 -85.5q0 -44 -38.5 -77.5t-84.5 -33.5q-45 0 -78 30.5 t-33 75.5z" />
<glyph unicode="&#xa2;" horiz-adv-x="1028" d="M115 532q0 159 65.5 299.5t183.5 237t267 129.5q23 133 46.5 197t57.5 82t82 -4q-7 -31 -53 -259h10q230 0 230 -127q0 -78 -80 -110q-55 74 -195 78q-72 -335 -72 -338q-6 -35 -82 -379q108 24 211 96t164 182q43 -3 43 -59q0 -85 -64 -163.5t-166.5 -129.5t-219.5 -67 q-1 -3 -58 -254q-21 -84 -57 -84q-23 0 -28 15t-3 50q2 91 31 266q-164 9 -238.5 101t-74.5 241zM279 571q0 -107 44.5 -168t127.5 -73q25 137 69 360q22 109 50.5 219.5t33.5 132.5q-158 -37 -241.5 -166.5t-83.5 -304.5z" />
<glyph unicode="&#xa3;" horiz-adv-x="1083" d="M4 76q0 70 37 86q28 10 91.5 20t88.5 19q74 28 105 122.5t36 260.5q-32 0 -115.5 -8.5t-113.5 -8.5q-13 0 -20 17.5t-7 38.5q0 23 11.5 42t32.5 25q22 5 65 7.5t94 3.5t60 1q-3 55 -1 141.5t7 135.5q20 186 144.5 301t305.5 115q126 0 208.5 -51.5t82.5 -124.5 q0 -47 -18 -70t-51 -35q-34 82 -95.5 118t-132.5 36q-70 0 -122.5 -21.5t-84 -56t-51 -86.5t-26.5 -106t-7 -121q0 -115 2 -166l308 6q42 1 63 -12t19 -37q-3 -37 -34.5 -54t-80.5 -14q-85 6 -170 6q-70 0 -105 -4q-8 -231 -120 -379q69 -3 132.5 -30.5t117 -52.5t102.5 -25 q42 0 71.5 19.5t42 43t28.5 43.5t34 21q25 2 41 -13.5t16 -48.5q0 -103 -70.5 -158t-174.5 -55q-59 0 -121.5 18t-108 39.5t-105.5 39.5t-114 18q-44 0 -128.5 -40t-115.5 -40q-27 0 -40 21.5t-13 52.5z" />
<glyph unicode="&#xa4;" d="M37 141q0 84 201 285q-35 65 -35 162q0 121 59.5 233t159.5 193q-160 152 -207 209q-14 17 -14 37q0 27 35 51q18 12 38 12t44 -12.5t44 -27.5t49 -45t44.5 -47.5t46 -54t39.5 -46.5q118 59 243 59q99 0 172 -39q191 166 275 166q29 0 51 -19q31 -24 31 -51 q0 -22 -25 -35q-143 -80 -233 -157q37 -61 37 -146q0 -98 -42 -196t-114 -180q145 -182 145 -267q0 -60 -75 -88q-58 114 -181 254q-149 -104 -305 -104q-107 0 -180 37q-163 -156 -236 -263q-67 31 -67 80zM362 598q0 -39 2 -61.5t11.5 -51t27.5 -43.5t51.5 -25.5 t82.5 -10.5q99 0 193.5 61t153 160t58.5 204q0 91 -43.5 140t-150.5 49q-82 0 -156 -40t-123.5 -102t-78 -136t-28.5 -144z" />
<glyph unicode="&#xa5;" horiz-adv-x="1161" d="M156 539q0 25 17.5 45.5t41.5 19.5q191 -10 219 -12h21q-16 36 -36.5 92t-38.5 110.5t-39.5 125t-34.5 114t-29.5 101t-18.5 65.5q-37 123 -37 141q0 21 26 32t64 11q71 0 101 -30q52 -376 180 -762q20 29 69.5 98.5t66.5 95t54.5 83t56.5 95t48.5 97.5t53.5 123.5 t50 140.5q41 37 101 37q33 0 57.5 -19.5t24.5 -42.5q0 -33 -13 -73t-43.5 -93t-57.5 -95.5t-80 -112.5t-84.5 -109.5t-97.5 -122t-93 -116.5q173 3 397 -15q19 -1 30 -12.5t11 -26.5q0 -25 -26.5 -40.5t-59 -21t-70.5 -5.5q-147 0 -311 6q-23 0 -35 2l-23 -115 q44 -2 93 -5.5t104 -8t82 -6.5q17 -1 26 -14.5t9 -30.5q0 -20 -11 -35.5t-30 -18.5q-61 -6 -137 -6q-48 0 -158 4l-16 -86q-18 -112 -41 -144q-16 -23 -37 -24q-32 0 -64 21t-32 55q0 40 16 123l12 68q-252 18 -252 80q0 64 58 55q97 -16 215 -21l22 119q-83 7 -297 33 q-24 6 -24 31z" />
<glyph unicode="&#xa6;" horiz-adv-x="559" d="M13 -306.5q8 133.5 47 321t96 368.5q11 39 34 56t48 12q37 -6 59 -46t8 -90q-83 -263 -129 -643q-16 -79 -32 -103q-30 -45 -101 -36q-38 27 -30 160.5zM238 723q39 149 71.5 252.5t106.5 314.5q60 167 75 198q27 52 56 48q41 -6 61.5 -33.5t14.5 -66.5q-9 -79 -56 -189 q-49 -116 -69.5 -168t-47.5 -142t-55 -214q-8 -43 -59 -47q-29 -2 -57 11t-41 36z" />
<glyph unicode="&#xa7;" horiz-adv-x="1060" d="M31 -78q0 38 32 58q132 -74 240 -74q49 0 95 5t92.5 17t75 36.5t28.5 58.5q0 22 -11.5 43t-28 37t-49.5 36.5t-59 34.5t-74.5 39t-80.5 43q-111 53 -153 111.5t-42 142.5q0 78 51 151t132 126t172 91t180 56q-166 40 -242 97.5t-76 166.5q0 61 36.5 108t96 74t128 40.5 t141.5 13.5q93 0 167 -13t116 -33t63.5 -41t21.5 -40q0 -24 -26 -51t-62 -27q-18 1 -66 22.5t-114 42.5t-129 21q-86 0 -143.5 -23t-57.5 -75q0 -66 64.5 -108.5t234.5 -96.5q140 -44 190 -98t50 -142q0 -93 -50 -175.5t-131.5 -139t-181.5 -91.5t-202 -42q5 -2 143 -70 q32 -19 53 -35t53.5 -46t50 -68t17.5 -80q0 -67 -41.5 -118t-109 -80t-144.5 -43.5t-157 -14.5q-293 0 -293 153zM256 547q0 -105 131 -105q116 0 228.5 34t191 102.5t78.5 154.5q0 45 -35.5 67.5t-93.5 22.5q-102 0 -221 -44.5t-199 -110t-80 -121.5z" />
<glyph unicode="&#xa8;" d="M324 1307q0 47 12.5 79t36 46.5t46 20t52.5 5.5q44 0 64 -26t20 -66q0 -55 -43 -111.5t-102 -56.5q-86 0 -86 109zM713 1309q0 88 44 127t105 39q40 0 61 -28.5t21 -66.5q0 -55 -43.5 -108t-114.5 -53q-30 0 -51.5 25.5t-21.5 64.5z" />
<glyph unicode="&#xa9;" horiz-adv-x="1724" d="M111 565q0 134 39 267.5t120 255.5t193.5 216t270.5 149.5t339 55.5q129 0 241 -40.5t197.5 -116.5t135 -195.5t49.5 -267.5q0 -150 -36.5 -286.5t-113.5 -254.5t-187.5 -204t-267 -135.5t-343.5 -49.5q-141 0 -252.5 34.5t-182.5 92t-117.5 137.5t-65.5 164t-19 178z M283 651q0 -73 13.5 -143t49 -143.5t89 -128.5t141 -90t198.5 -35q148 0 273.5 39.5t214 109t150.5 163t92 201t30 224.5q0 126 -40 227t-110 165.5t-163 99t-201 34.5q-134 0 -254 -46.5t-206 -122t-150 -170.5t-95.5 -194t-31.5 -190zM514 629q0 107 55.5 211t139.5 177.5 t183.5 119t186.5 45.5t126.5 -35t39.5 -94q0 -76 -78 -109q-42 76 -139 76q-134 0 -243 -106t-109 -246q0 -98 43.5 -148.5t122.5 -50.5q97 0 199 60.5t171 181.5q43 -3 43 -58q0 -93 -66.5 -168t-167.5 -113t-210 -38q-155 0 -226 80t-71 215z" />
<glyph unicode="&#xaa;" horiz-adv-x="690" d="M72 983q0 116 69.5 232t172.5 188t198 72q38 0 57.5 -22.5t16.5 -61.5q-43 7 -84 -2q-76 -15 -144 -77.5t-106.5 -143t-38.5 -152.5q0 -127 66 -127q45 0 92.5 40t89 106.5t71.5 126.5t58 126q5 11 16 37t20 45.5t20.5 41t23.5 33t24 11.5q30 0 52.5 -24t11.5 -50 q-127 -281 -127 -397q0 -23 0.5 -34t2 -24.5t6 -18.5t11.5 -5q14 0 32.5 10.5t25.5 10.5q16 0 16 -31q0 -40 -39.5 -76.5t-91.5 -36.5q-109 0 -74 219q-50 -103 -124.5 -164t-166.5 -61q-74 0 -115.5 58.5t-41.5 150.5z" />
<glyph unicode="&#xab;" horiz-adv-x="1382" d="M104 520q0 61 47.5 102.5t139.5 82.5q42 18 109.5 45t101.5 42.5t80.5 41t82.5 58.5t72 79q78 -55 35 -136.5t-164 -136.5q-24 -11 -157 -60t-193 -89q48 -18 91.5 -40.5t70 -39t76.5 -49.5q61 -42 84 -58.5t52.5 -43t38.5 -46.5t9 -45q0 -31 -22.5 -52t-57.5 -21 q-32 0 -69.5 23t-67.5 59q-50 60 -101 101t-87 60.5t-127 62.5q-20 10 -31 15q-13 21 -13 45zM649 522q0 58 45.5 97.5t134.5 78.5q39 17 90 38t82 33.5t70.5 31.5t67.5 38.5t60 48.5t61 66q73 -52 31.5 -130.5t-156.5 -131.5q-22 -10 -150 -57t-186 -86q67 -25 112.5 -51 t114.5 -72q114 -79 140 -105q38 -39 38 -81q0 -29 -22.5 -49.5t-55.5 -20.5q-30 0 -66.5 22t-64.5 56q-16 19 -31.5 36t-28 30t-30 27t-27 22t-31 20.5t-30 18t-35 19t-35 17.5t-41.5 20t-44 21q-13 18 -13 43z" />
<glyph unicode="&#xac;" d="M188 754q0 19 3 33t10.5 23t13.5 15t17.5 9t17 4.5t18 2.5t15.5 1q70 8 146 8t142 -3.5t88 -2.5q151 -14 299 0q39 1 63.5 -3t34.5 -14t12.5 -19.5t2.5 -25.5q-6 -56 -46 -184.5t-54 -212.5q-7 -37 -17 -59t-26 -30t-25 -9.5t-31 -1.5q-27 0 -33.5 44.5t5.5 100.5 q67 194 94 287q-92 10 -236 10h-37.5h-43t-42.5 -0.5t-50.5 -2t-52 -3.5t-61 -5.5t-63.5 -8.5t-73 -11q-91 -19 -91 58z" />
<glyph unicode="&#xad;" horiz-adv-x="714" d="M61 498q2 88 160 88q35 0 105.5 -6.5t76.5 -6.5q83 -8 232 13q24 -9 24 -41q0 -48 -73 -72q-50 -17 -165.5 -26t-203.5 -9q-30 0 -51.5 1.5t-49 7t-42 18.5t-13.5 33z" />
<glyph unicode="&#xae;" horiz-adv-x="1724" d="M111 565q0 134 39 267.5t120 255.5t193.5 216t270.5 149.5t339 55.5q129 0 241 -40.5t197.5 -116.5t135 -195.5t49.5 -267.5q0 -150 -36.5 -286.5t-113.5 -254.5t-187.5 -204t-267 -135.5t-343.5 -49.5q-141 0 -252.5 34.5t-182.5 92t-117.5 137.5t-65.5 164t-19 178z M283 651q0 -73 13.5 -143t49 -143.5t89 -128.5t141 -90t198.5 -35q148 0 273.5 39.5t214 109t150.5 163t92 201t30 224.5q0 126 -40 227t-110 165.5t-163 99t-201 34.5q-134 0 -254 -46.5t-206 -122t-150 -170.5t-95.5 -194t-31.5 -190zM545 442q-2 28 4 74 q21 116 123.5 360t167.5 320q383 27 401 -219q5 -77 -75 -166t-222 -119q73 -37 139 -119.5t70 -152.5q2 -27 -6 -40.5t-35 -14.5q-46 -3 -84 23t-62.5 61.5t-65 86t-81.5 82.5q-23 20 -41 25t-53 0q-24 -88 -29 -133q-1 -4 -4 -21t-5.5 -29t-7.5 -31t-10.5 -32t-13.5 -26.5 t-18.5 -20.5t-22.5 -8q-32 -3 -49.5 31.5t-19.5 68.5zM754 737q87 -1 175.5 33t143.5 88.5t51 108.5q-5 62 -58 93.5t-157 24.5q-75 -89 -155 -348z" />
<glyph unicode="&#xaf;" d="M219 1337q3 52 121 72t266 10q163 -11 189 -37q10 -14 7 -43t-14 -59q-294 16 -550 -31q-10 14 -15.5 42.5t-3.5 45.5z" />
<glyph unicode="&#xb0;" horiz-adv-x="815" d="M213 1092q0 82 34.5 163t90.5 143t134 101t159 39q105 0 167 -56.5t62 -152.5q0 -84 -36.5 -169.5t-97 -152.5t-144 -109t-170.5 -42q-92 0 -145.5 56.5t-53.5 179.5zM352 1112q0 -154 92 -154q75 0 142.5 53.5t106 135.5t38.5 166q0 53 -26 83.5t-78 30.5t-97.5 -21.5 t-77.5 -56t-55 -77t-34 -84t-11 -76.5z" />
<glyph unicode="&#xb1;" d="M117 125q0 76 90 57q52 -10 98.5 -16.5t93.5 -8.5t68 -3t70.5 -0.5t52.5 0.5q188 0 293 14q62 11 99.5 -6t37.5 -64q0 -16 -2.5 -25t-12.5 -19.5t-34.5 -14t-63.5 -2.5q-134 13 -319 0q-218 -18 -377 0q-3 0 -15.5 1t-18 2.5t-17 4.5t-17.5 9t-13 15t-10 23t-3 33z M197 739q4 24 31 49.5t63 26.5q39 1 88.5 -2.5t85.5 -3.5q82 0 109.5 18.5t37.5 67.5q7 27 13.5 79.5t11.5 80.5q16 96 52 131.5t104 11.5q1 -69 -12.5 -135.5t-43.5 -159.5q-10 -26 -3 -55.5t36 -36.5q66 -17 184 -10q79 4 101.5 -3.5t19.5 -37.5q-2 -21 -9.5 -35.5 t-24 -23t-32 -13t-46 -5.5t-52.5 0t-66 2.5t-73 2.5q-22 0 -38 -2.5t-29 -5.5t-21.5 -11.5l-15 -15t-10.5 -24t-6 -29.5t-3 -39.5t-1 -47t-0.5 -58.5t-0.5 -68q-3 -27 -26.5 -43.5t-59.5 -13.5q-19 2 -28 13t-9 32t3 40t9.5 49.5t8.5 47.5l12 106q3 30 -3 45.5t-13.5 18.5 t-24.5 6q-61 6 -192 2q-23 -1 -32.5 -1.5t-29.5 -0.5t-29 3t-20 8t-14.5 15.5t-1.5 24.5z" />
<glyph unicode="&#xb2;" horiz-adv-x="583" d="M111 950q0 41 33.5 79.5t80.5 68.5t94.5 59t81 62t33.5 65q0 55 -112 55q-90 0 -140 -45q-28 8 -28 45q0 43 56 70t134 27q197 0 197 -160q0 -43 -19.5 -76t-52 -55.5t-67.5 -41t-74.5 -43t-63.5 -50.5l76 6q184 14 245.5 -2t61.5 -80q-288 -38 -516 -21q-20 8 -20 37z " />
<glyph unicode="&#xb3;" horiz-adv-x="430" d="M129 940q0 33 104.5 76.5t167.5 50.5l-170 43q-32 7 -44.5 22.5t-12.5 43.5q14 4 52 13.5t70.5 18t67 21t54.5 27.5t20 32q0 45 -86 45q-53 0 -86 -20q-11 0 -19.5 15.5t-8.5 27.5q0 40 33 54.5t98 14.5q31 0 69 -11.5t71.5 -42t33.5 -71.5q0 -53 -49.5 -83t-139.5 -50 q67 -8 114 -32t44 -54q0 -32 -69 -77.5t-148 -76t-113 -30.5q-23 0 -38 11t-15 32z" />
<glyph unicode="&#xb4;" d="M248 1237q116 63 182 133.5t131 183.5q54 3 93.5 -23.5t35.5 -66.5q-5 -59 -77.5 -123t-165 -103.5t-158.5 -39.5q-19 0 -30 11.5t-11 27.5z" />
<glyph unicode="&#xb5;" horiz-adv-x="1103" d="M-66.5 -437q-0.5 15 2 38.5t5.5 42.5t8 48t8 48q48 348 111 639q39 179 97 371.5t111 287.5q113 -5 113 -94q0 -25 -22 -95t-48.5 -147t-48.5 -180t-22 -186q0 -61 26 -103.5t60 -42.5q35 0 75.5 27t77 67.5t77.5 103t73.5 119.5t70 131t60.5 123t51 111t37 80 q16 34 42.5 61.5t57.5 26.5q28 0 57.5 -40.5t26.5 -61.5q-5 -24 -24 -81.5t-37.5 -115t-36 -160.5t-22.5 -219q-2 -85 12.5 -146t52.5 -120q-14 -27 -43 -47t-57 -20q-103 0 -133 128t24 392q-250 -498 -522 -498q-70 0 -100 68q-11 -97 -22 -199.5t-16.5 -155.5 t-11.5 -103.5t-12.5 -76.5t-15.5 -41q-32 -35 -101 -35q-15 0 -24 6.5t-13 20t-4.5 28.5z" />
<glyph unicode="&#xb6;" horiz-adv-x="1216" d="M160 1018q0 140 73 246t189.5 158.5t255.5 52.5q75 0 139.5 -21t87.5 -61q13 -20 11 -88t-11.5 -147t-23.5 -159q-36 -264 -263 -1101q-22 -76 -32 -93q-34 -45 -107 -47q-23 0 -31 16t-2.5 45.5t16 60t27.5 71.5q126 317 170 635q-116 5 -205.5 33.5t-144 70.5t-89 98.5 t-47.5 112t-13 117.5zM805 -80q-1 36 6.5 87.5t15 86.5t28.5 122t30 126q46 174 72 284t53 279t32 314q0 5 1 27t1.5 32t2 27.5t4.5 31.5t8 27q9 31 42.5 48.5t74.5 17.5q21 0 28.5 -32t3 -79.5t-10 -81.5t-11.5 -59q-40 -181 -56 -324q-11 -101 -36 -221t-67.5 -301 t-65.5 -291q-10 -43 -15 -91t-6.5 -76t-7 -53.5t-18.5 -36.5t-37 -11q-31 0 -51.5 38.5t-20.5 108.5z" />
<glyph unicode="&#xb7;" horiz-adv-x="440" d="M68 532q0 56 31.5 93t95.5 37q49 0 78.5 -29.5t29.5 -79.5q0 -18 -4.5 -37t-15 -41.5t-34 -36.5t-56.5 -14q-57 0 -91 30.5t-34 77.5z" />
<glyph unicode="&#xb8;" d="M61 -463q0 40 31 62q34 -6 80 -2.5t87.5 11.5t70 35t28.5 68q0 30 -24 45t-64 15q-48 0 -106 -15q-25 -7 -32.5 17.5t1.5 42.5l109 260l114 -6l-77 -179q18 3 34 3q77 0 122.5 -42t45.5 -112q0 -116 -90.5 -178t-224.5 -62q-45 0 -75 10t-30 27z" />
<glyph unicode="&#xb9;" horiz-adv-x="370" d="M78 1268q0 14 14 24q26 19 185.5 101t181.5 82q13 0 28 -23q18 -23 9 -41q-79 -171 -112.5 -257.5t-47.5 -170.5q-3 -18 -28.5 -30.5t-53.5 -12.5q-26 0 -40.5 8t-10.5 27q42 174 131 332q-197 -93 -225 -93q-11 0 -21 20t-10 34z" />
<glyph unicode="&#xba;" horiz-adv-x="622" d="M76 1010q0 82 34.5 163t90.5 143t134 101t159 39q105 0 167 -56.5t62 -152.5q0 -113 -61.5 -222.5t-166.5 -180t-221 -70.5q-92 0 -145 56.5t-53 179.5zM215 1030q0 -153 92 -153q75 0 142.5 53.5t106 135t38.5 165.5q0 53 -26.5 84t-78.5 31q-64 0 -118 -33t-87 -82.5 t-51 -102.5t-18 -98z" />
<glyph unicode="&#xbb;" horiz-adv-x="1290" d="M115 237.5q31 67.5 125 135.5q33 26 128.5 81.5t120.5 90.5q-189 104 -294 309q17 57 79 57q34 0 63 -22.5t69 -71.5q41 -56 77.5 -91.5t62.5 -53t101 -62.5q10 -20 10 -43q0 -58 -46.5 -99.5t-135.5 -84.5q-86 -46 -134 -76t-107.5 -81.5t-106.5 -116.5 q-43 61 -12 128.5zM600 179q4 46 42 94t103 96q36 29 135.5 85t127.5 91q-193 105 -310 323q18 60 84 60q35 0 65 -24t71 -75q78 -105 106 -133q58 -59 145 -82q13 -21 13 -45q0 -60 -48 -102t-143 -90q-128 -68 -200 -122.5t-144 -152.5q-51 31 -47 77z" />
<glyph unicode="&#xbc;" horiz-adv-x="1347" d="M98 1268q0 13 15 24q26 19 185 101t181 82q14 0 29 -23q17 -22 8 -41q-79 -171 -112.5 -257.5t-47.5 -170.5q-3 -18 -28.5 -30.5t-53.5 -12.5q-26 0 -40.5 8t-10.5 27q42 174 131 332q-197 -93 -225 -93q-11 0 -21 20t-10 34zM207 -88q32 166 125 404.5t209.5 466.5 t249.5 425.5t237 282.5q27 11 95.5 -3.5t76.5 -39.5q-305 -337 -516 -717t-350 -829q-7 -22 -40.5 -30.5t-62.5 2.5t-24 38zM711 229q5 100 55 192.5t108 92.5q37 0 46 -22q-31 -32 -58.5 -95t-27.5 -94q-4 -65 40 -65q16 0 78 4q63 197 142 305q20 14 43 14q28 0 28 -35 q0 -32 -92 -270q100 15 156 33q20 -17 20 -49q0 -22 -16 -31q-25 -14 -79.5 -28.5t-104.5 -20.5q-4 -21 -8.5 -53t-7.5 -48t-7.5 -38t-9 -33t-12 -23t-17 -17t-22.5 -7q-41 -8 -58 16q-8 68 19 193q-44 -7 -86 -7q-72 0 -102 19.5t-27 66.5z" />
<glyph unicode="&#xbd;" horiz-adv-x="1433" d="M98 1268q0 13 15 24q26 19 185 101t181 82q14 0 29 -23q17 -22 8 -41q-79 -171 -112.5 -257.5t-47.5 -170.5q-3 -18 -28.5 -30.5t-53.5 -12.5q-26 0 -40.5 8t-10.5 27q42 174 131 332q-197 -93 -225 -93q-11 0 -21 20t-10 34zM311 -18q42 222 183.5 551t321 621.5 t317.5 406.5q27 11 95.5 -3.5t76.5 -39.5q-305 -337 -516.5 -717.5t-350.5 -829.5q-7 -22 -40.5 -30t-62.5 3t-24 38zM864 59q0 41 33.5 79.5t81 68.5t95 59t81 62t33.5 65q0 26 -29 41t-84 15q-87 0 -139 -46q-29 9 -29 46q0 43 56.5 69.5t134.5 26.5q196 0 196 -160 q0 -52 -31 -91.5t-71.5 -60.5t-93 -52t-80.5 -62l76 6q184 14 245.5 -2t61.5 -80q-283 -37 -516 -20q-21 8 -21 36z" />
<glyph unicode="&#xbe;" horiz-adv-x="1478" d="M102 940q0 33 105 76.5t168 50.5l-170 43q-32 7 -45 22.5t-13 43.5q14 4 52 13t70.5 18t67 21.5t55 27.5t20.5 32q0 45 -86 45q-53 0 -86 -20q-11 0 -20 15.5t-9 27.5q0 40 33 54.5t98 14.5q31 0 69 -11.5t71.5 -42t33.5 -71.5q0 -53 -49 -83t-139 -50q67 -8 113.5 -32 t43.5 -54q0 -32 -69 -77.5t-147.5 -76t-112.5 -30.5q-23 0 -38.5 11t-15.5 32zM260 -88q32 166 125 404.5t209.5 466.5t249.5 425.5t237 282.5q27 11 95.5 -3.5t76.5 -39.5q-305 -337 -516 -717t-350 -829q-7 -22 -40.5 -30.5t-62.5 2.5t-24 38zM842 229q5 99 55.5 192 t108.5 93q36 0 45 -22q-31 -32 -58.5 -95t-27.5 -94q-4 -65 41 -65q15 0 77 4q63 197 142 305q20 14 43 14q28 0 28 -35q0 -32 -92 -270q100 15 156 33q20 -17 20 -49q0 -22 -16 -31q-25 -14 -79.5 -28.5t-104.5 -20.5q-4 -21 -8.5 -53t-7.5 -48t-7.5 -38t-9 -33t-12 -23 t-17 -17t-22.5 -7q-41 -8 -58 16q-8 68 19 193q-44 -7 -86 -7q-72 0 -102 19.5t-27 66.5z" />
<glyph unicode="&#xbf;" horiz-adv-x="747" d="M-68 -154q0 85 29 154.5t75.5 114.5t103 82t112.5 65.5t102.5 56t75.5 62t29 76.5q0 33 -8.5 55.5t-30.5 52.5q39 39 90 39q45 0 73.5 -35.5t28.5 -89.5q0 -61 -29 -112.5t-75.5 -89.5t-102.5 -72.5l-112 -69t-102.5 -71t-75.5 -86t-29 -107.5q0 -73 49 -113.5t121 -40.5 q57 0 105 15.5t85.5 31t69.5 15.5q36 0 58 -15.5t22 -42.5q0 -37 -31.5 -66t-80.5 -45t-100.5 -24t-100.5 -8q-164 0 -257.5 70t-93.5 198zM401 934q0 45 40 77.5t87 32.5q60 0 93.5 -33.5t33.5 -68.5q0 -57 -38 -86t-97 -29q-45 0 -82 29.5t-37 77.5z" />
<glyph unicode="&#xc0;" horiz-adv-x="1212" d="M-25 35q0 72 126 311.5t287 491.5t318 451.5t212 199.5q33 0 55 -19q-45 -337 -45 -837q52 0 102 -6q54 -7 70 -25.5t16 -48.5q0 -20 -19.5 -25.5t-58.5 -5.5q-73 0 -110 -2q2 -183 39 -420q-19 -40 -64.5 -70t-79.5 -30q-20 0 -32.5 20t-18.5 72q-23 197 -20 414 q-257 -30 -484 -133q-101 -210 -182 -434q-32 -1 -54 5.5t-33 14t-16.5 23t-6.5 25.5t-1 28zM350 537q194 67 406 88q14 385 30 583q-223 -268 -436 -671zM633 1782q-6 41 28 72t87 36q59 -99 143.5 -163t210.5 -97q2 -17 -18.5 -36t-55.5 -25q-59 -8 -148.5 19.5t-164 81.5 t-82.5 112z" />
<glyph unicode="&#xc1;" horiz-adv-x="1212" d="M-25 35q0 72 126 311.5t287 491.5t318 451.5t212 199.5q33 0 55 -19q-45 -337 -45 -837q52 0 102 -6q54 -7 70 -25.5t16 -48.5q0 -20 -19.5 -25.5t-58.5 -5.5q-73 0 -110 -2q2 -183 39 -420q-19 -40 -64.5 -70t-79.5 -30q-20 0 -32.5 20t-18.5 72q-23 197 -20 414 q-257 -30 -484 -133q-101 -210 -182 -434q-32 -1 -54 5.5t-33 14t-16.5 23t-6.5 25.5t-1 28zM350 537q194 67 406 88q14 385 30 583q-223 -268 -436 -671zM766 1624q126 37 206.5 93t166.5 153q53 -9 86 -43.5t20 -73.5q-17 -56 -101 -103t-183 -67t-164 -6q-18 4 -26 17.5 t-5 29.5z" />
<glyph unicode="&#xc2;" horiz-adv-x="1191" d="M-25 35q0 72 126 311.5t287 491.5t318 451.5t212 199.5q33 0 55 -19q-45 -337 -45 -837q52 0 102 -6q54 -7 70 -25.5t16 -48.5q0 -20 -19.5 -25.5t-58.5 -5.5q-73 0 -110 -2q2 -183 39 -420q-19 -40 -64.5 -70t-79.5 -30q-20 0 -32.5 20t-18.5 72q-23 197 -20 414 q-257 -30 -484 -133q-101 -210 -182 -434q-32 -1 -54 5.5t-33 14t-16.5 23t-6.5 25.5t-1 28zM350 537q194 67 406 88q14 385 30 583q-223 -268 -436 -671zM565 1579.5q-2 7.5 5.5 14.5t31.5 22q93 49 187.5 123.5t142.5 132.5q12 15 32 15t29 -15q34 -62 109.5 -151 t142.5 -146q-21 -43 -63 -43q-57 -3 -124.5 52t-119.5 126q-96 -91 -246 -145q-90 -24 -110 -6q-15 13 -17 20.5z" />
<glyph unicode="&#xc3;" horiz-adv-x="1212" d="M-25 35q0 72 126 311.5t287 491.5t318 451.5t212 199.5q33 0 55 -19q-45 -337 -45 -837q52 0 102 -6q54 -7 70 -25.5t16 -48.5q0 -20 -19.5 -25.5t-58.5 -5.5q-73 0 -110 -2q2 -183 39 -420q-19 -40 -64.5 -70t-79.5 -30q-20 0 -32.5 20t-18.5 72q-23 197 -20 414 q-257 -30 -484 -133q-101 -210 -182 -434q-32 -1 -54 5.5t-33 14t-16.5 23t-6.5 25.5t-1 28zM350 537q194 67 406 88q14 385 30 583q-223 -268 -436 -671zM625 1638q0 76 55 124t131 48q44 0 87 -20t70.5 -43.5t59.5 -43.5t57 -20q53 0 81 36t30 96q64 -18 64 -91 q0 -50 -22 -85.5t-55 -51t-58.5 -22t-45.5 -6.5q-43 0 -82 18.5t-63.5 40.5t-57.5 40.5t-65 18.5q-40 0 -70.5 -33t-48.5 -92q-67 15 -67 86z" />
<glyph unicode="&#xc4;" horiz-adv-x="1212" d="M-25 35q0 72 126 311.5t287 491.5t318 451.5t212 199.5q33 0 55 -19q-45 -337 -45 -837q52 0 102 -6q54 -7 70 -25.5t16 -48.5q0 -20 -19.5 -25.5t-58.5 -5.5q-73 0 -110 -2q2 -183 39 -420q-19 -40 -64.5 -70t-79.5 -30q-20 0 -32.5 20t-18.5 72q-23 197 -20 414 q-257 -30 -484 -133q-101 -210 -182 -434q-32 -1 -54 5.5t-33 14t-16.5 23t-6.5 25.5t-1 28zM350 537q194 67 406 88q14 385 30 583q-223 -268 -436 -671zM635 1665q0 47 12.5 79t36 47t46.5 20.5t52 5.5q44 0 64 -26.5t20 -66.5q0 -55 -43 -111.5t-102 -56.5q-86 0 -86 109 zM1024 1667q0 88 44.5 127t105.5 39q40 0 60.5 -28t20.5 -66q0 -56 -43 -109t-114 -53q-30 0 -52 25.5t-22 64.5z" />
<glyph unicode="&#xc5;" horiz-adv-x="1212" d="M-25 35q0 72 126 311.5t287 491.5t318 451.5t212 199.5q33 0 55 -19q-45 -337 -45 -837q52 0 102 -6q54 -7 70 -25.5t16 -48.5q0 -20 -19.5 -25.5t-58.5 -5.5q-73 0 -110 -2q2 -183 39 -420q-19 -40 -64.5 -70t-79.5 -30q-20 0 -32.5 20t-18.5 72q-23 197 -20 414 q-257 -30 -484 -133q-101 -210 -182 -434q-32 -1 -54 5.5t-33 14t-16.5 23t-6.5 25.5t-1 28zM350 537q194 67 406 88q14 385 30 583q-223 -268 -436 -671zM750 1704q0 117 99 211t241 94q67 0 110 -37.5t43 -103.5q0 -79 -52 -151t-134 -115t-168 -43q-60 0 -99.5 36.5 t-39.5 108.5zM864 1735q0 -34 21 -55t53 -21q77 0 134.5 58.5t57.5 117.5q0 38 -22 57t-51 19q-82 0 -137.5 -54.5t-55.5 -121.5z" />
<glyph unicode="&#xc6;" horiz-adv-x="1826" d="M-25 35q13 64 93 210.5t196 307.5q106 149 216.5 277.5t231 241.5t247.5 191.5t245 108.5q65 16 174.5 20t141.5 -1q97 -7 160 -19.5t93 -30t40 -35t8 -40.5q-1 -31 -16 -56t-38 -39q-47 54 -235 72q-81 10 -142.5 8t-127.5 -20q-71 -97 -144 -402l-24 -94q196 32 393 35 q52 0 66 -20.5t8 -51.5q-5 -37 -84 -49q-335 -43 -420 -55l-35 -133q-33 -121 -33 -194.5t40 -105.5t132 -32q83 0 193 19.5t193 39t100 19.5q42 0 39 -60q-2 -42 -68 -77t-159 -54.5t-180.5 -30t-148.5 -10.5q-208 0 -286 95q-108 101 6 485q-280 -61 -510 -172 q-153 -238 -244 -444q-69 -1 -98.5 28t-22.5 68zM461 561q193 83 434 135q9 30 37 117q90 267 180 406q-91 -19 -262.5 -177.5t-327.5 -392.5q-12 -18 -35 -51t-26 -37z" />
<glyph unicode="&#xc7;" horiz-adv-x="1171" d="M68 426q0 114 35.5 233.5t97 225.5t147.5 200.5t182.5 162.5t206 107.5t215.5 39.5q42 0 73.5 -5t61 -19.5t45 -44t15.5 -73.5q0 -50 -40.5 -146t-94.5 -173.5t-86 -77.5q-30 0 -50 28t-20 64q0 22 7.5 47.5t26.5 60.5t33.5 59t46.5 73.5t48 75.5q-41 12 -76 12 q-103 0 -206 -49.5t-185 -132t-146.5 -184t-99.5 -212.5t-35 -211q0 -73 16 -130t43 -92.5t65 -58t78.5 -31.5t88.5 -9q88 0 174.5 24.5t140 53.5t98 53.5t58.5 24.5q17 0 27 -11t10 -28q0 -55 -78 -116t-198.5 -106t-239.5 -57l-49 -113q18 3 35 3q77 0 122.5 -42 t45.5 -112q0 -78 -44.5 -133.5t-114.5 -81t-157 -25.5q-45 0 -74.5 10t-29.5 27q0 41 30 62q35 -6 81 -2.5t87 11.5t70 35t29 68q0 30 -24 45t-64 15q-48 0 -107 -15q-25 -7 -32.5 17.5t1.5 42.5l78 186q-171 13 -269.5 127.5t-98.5 296.5z" />
<glyph unicode="&#xc8;" horiz-adv-x="1091" d="M68 70q-105 140 88 743q28 88 53 151.5t65.5 139.5t96 133.5t125.5 93.5q75 41 176.5 60.5t152.5 19.5q82 0 138 -13t81 -35.5t34 -45.5t7 -51q-3 -66 -53 -95q-30 34 -93.5 53t-141.5 19q-77 0 -137 -12t-104.5 -38t-77 -58t-58 -83t-42.5 -101t-36 -122l-31 -116 q32 3 139 10t157 12t131 20t145 36q33 -26 30 -70q-2 -45 -49 -70.5t-123.5 -33t-156.5 -9.5t-168 -6.5t-137 -17.5l-33 -123q-33 -121 -33 -194.5t40 -105.5t132 -32q112 0 313.5 39t212.5 39q42 0 39 -60q-2 -42 -74 -77t-173 -54.5t-194 -30t-155 -10.5q-208 0 -286 95z M506 1761q-6 41 28 72.5t87 36.5q59 -99 143.5 -163t210.5 -97q2 -17 -18.5 -36.5t-55.5 -25.5q-59 -8 -148.5 19.5t-164 81.5t-82.5 112z" />
<glyph unicode="&#xc9;" horiz-adv-x="1091" d="M68 70q-105 140 88 743q28 88 53 151.5t65.5 139.5t96 133.5t125.5 93.5q75 41 176.5 60.5t152.5 19.5q82 0 138 -13t81 -35.5t34 -45.5t7 -51q-3 -66 -53 -95q-30 34 -93.5 53t-141.5 19q-77 0 -137 -12t-104.5 -38t-77 -58t-58 -83t-42.5 -101t-36 -122l-31 -116 q32 3 139 10t157 12t131 20t145 36q33 -26 30 -70q-2 -45 -49 -70.5t-123.5 -33t-156.5 -9.5t-168 -6.5t-137 -17.5l-33 -123q-33 -121 -33 -194.5t40 -105.5t132 -32q112 0 313.5 39t212.5 39q42 0 39 -60q-2 -42 -74 -77t-173 -54.5t-194 -30t-155 -10.5q-208 0 -286 95z M639 1604q127 37 207 93t166 152q53 -9 86 -43t20 -73q-17 -56 -101 -103.5t-183 -67.5t-164 -6q-18 4 -26 18t-5 30z" />
<glyph unicode="&#xca;" horiz-adv-x="1091" d="M68 70q-105 140 88 743q28 88 53 151.5t65.5 139.5t96 133.5t125.5 93.5q75 41 176.5 60.5t152.5 19.5q82 0 138 -13t81 -35.5t34 -45.5t7 -51q-3 -66 -53 -95q-30 34 -93.5 53t-141.5 19q-77 0 -137 -12t-104.5 -38t-77 -58t-58 -83t-42.5 -101t-36 -122l-31 -116 q32 3 139 10t157 12t131 20t145 36q33 -26 30 -70q-2 -45 -49 -70.5t-123.5 -33t-156.5 -9.5t-168 -6.5t-137 -17.5l-33 -123q-33 -121 -33 -194.5t40 -105.5t132 -32q112 0 313.5 39t212.5 39q42 0 39 -60q-2 -42 -74 -77t-173 -54.5t-194 -30t-155 -10.5q-208 0 -286 95z M479 1558.5q-2 7.5 5.5 14.5t31.5 22q93 49 187.5 123.5t142.5 132.5q12 15 32 15t29 -15q34 -62 109.5 -151t142.5 -146q-21 -43 -63 -43q-57 -3 -124.5 52.5t-119.5 126.5q-98 -92 -246 -146q-90 -24 -110 -6q-15 13 -17 20.5z" />
<glyph unicode="&#xcb;" horiz-adv-x="1091" d="M68 70q-105 140 88 743q28 88 53 151.5t65.5 139.5t96 133.5t125.5 93.5q75 41 176.5 60.5t152.5 19.5q82 0 138 -13t81 -35.5t34 -45.5t7 -51q-3 -66 -53 -95q-30 34 -93.5 53t-141.5 19q-77 0 -137 -12t-104.5 -38t-77 -58t-58 -83t-42.5 -101t-36 -122l-31 -116 q32 3 139 10t157 12t131 20t145 36q33 -26 30 -70q-2 -45 -49 -70.5t-123.5 -33t-156.5 -9.5t-168 -6.5t-137 -17.5l-33 -123q-33 -121 -33 -194.5t40 -105.5t132 -32q112 0 313.5 39t212.5 39q42 0 39 -60q-2 -42 -74 -77t-173 -54.5t-194 -30t-155 -10.5q-208 0 -286 95z M508 1645q0 47 12.5 79t36 46.5t46 20t52.5 5.5q44 0 64 -26t20 -66q0 -55 -43 -111.5t-102 -56.5q-86 0 -86 109zM897 1647q0 88 44.5 126.5t105.5 38.5q40 0 60.5 -28t20.5 -66q0 -56 -43 -109t-114 -53q-30 0 -52 26t-22 65z" />
<glyph unicode="&#xcc;" horiz-adv-x="1085" d="M-2 49.5q-34 51.5 12 114.5q44 -7 84.5 -9t83.5 0.5t66.5 4.5t73.5 9t65 9q15 250 87.5 564t162.5 515q-187 0 -266 -14q-48 -8 -66 12.5t-16 59.5q1 48 27 73t67 25q39 0 185 -11t214 -11q5 0 40.5 -0.5t72.5 -1t83 0.5t91 4t78 9q12 -71 -32 -115.5t-128 -44.5 q-34 0 -67 2t-71.5 5.5t-62.5 4.5q-84 -155 -150 -471t-75 -591q180 9 227 0q73 -13 106 -64t1 -121q-89 41 -238 41q-98 0 -274.5 -25.5t-257.5 -25.5q-89 0 -123 51.5zM459 1761q-6 41 27.5 72.5t86.5 36.5q59 -99 144 -163t211 -97q2 -17 -18.5 -36.5t-55.5 -25.5 q-59 -8 -148.5 19.5t-164 81.5t-82.5 112z" />
<glyph unicode="&#xcd;" horiz-adv-x="1085" d="M-2 49.5q-34 51.5 12 114.5q44 -7 84.5 -9t83.5 0.5t66.5 4.5t73.5 9t65 9q15 250 87.5 564t162.5 515q-187 0 -266 -14q-48 -8 -66 12.5t-16 59.5q1 48 27 73t67 25q39 0 185 -11t214 -11q5 0 40.5 -0.5t72.5 -1t83 0.5t91 4t78 9q12 -71 -32 -115.5t-128 -44.5 q-34 0 -67 2t-71.5 5.5t-62.5 4.5q-84 -155 -150 -471t-75 -591q180 9 227 0q73 -13 106 -64t1 -121q-89 41 -238 41q-98 0 -274.5 -25.5t-257.5 -25.5q-89 0 -123 51.5zM592 1604q127 37 207 93t166 152q53 -9 86 -43t20 -73q-17 -56 -101 -103.5t-183 -67.5t-164 -6 q-18 4 -26 18t-5 30z" />
<glyph unicode="&#xce;" horiz-adv-x="1085" d="M-2 49.5q-34 51.5 12 114.5q44 -7 84.5 -9t83.5 0.5t66.5 4.5t73.5 9t65 9q15 250 87.5 564t162.5 515q-187 0 -266 -14q-48 -8 -66 12.5t-16 59.5q1 48 27 73t67 25q39 0 185 -11t214 -11q5 0 40.5 -0.5t72.5 -1t83 0.5t91 4t78 9q12 -71 -32 -115.5t-128 -44.5 q-34 0 -67 2t-71.5 5.5t-62.5 4.5q-84 -155 -150 -471t-75 -591q180 9 227 0q73 -13 106 -64t1 -121q-89 41 -238 41q-98 0 -274.5 -25.5t-257.5 -25.5q-89 0 -123 51.5zM432 1558.5q-2 7.5 5.5 14.5t31.5 22q93 49 187.5 123.5t142.5 132.5q12 15 32 15t29 -15 q34 -62 109.5 -151t142.5 -146q-22 -43 -63 -43q-57 -3 -124.5 52.5t-119.5 126.5q-98 -92 -246 -146q-90 -24 -110 -6q-15 13 -17 20.5z" />
<glyph unicode="&#xcf;" horiz-adv-x="1085" d="M-2 49.5q-34 51.5 12 114.5q44 -7 84.5 -9t83.5 0.5t66.5 4.5t73.5 9t65 9q15 250 87.5 564t162.5 515q-187 0 -266 -14q-48 -8 -66 12.5t-16 59.5q1 48 27 73t67 25q39 0 185 -11t214 -11q5 0 40.5 -0.5t72.5 -1t83 0.5t91 4t78 9q12 -71 -32 -115.5t-128 -44.5 q-34 0 -67 2t-71.5 5.5t-62.5 4.5q-84 -155 -150 -471t-75 -591q180 9 227 0q73 -13 106 -64t1 -121q-89 41 -238 41q-98 0 -274.5 -25.5t-257.5 -25.5q-89 0 -123 51.5zM461 1645q0 47 12.5 79t36 46.5t46 20t52.5 5.5q44 0 64 -26t20 -66q0 -55 -43 -111.5t-102 -56.5 q-86 0 -86 109zM850 1647q0 88 44 126.5t105 38.5q40 0 61 -28t21 -66q0 -56 -43 -109t-114 -53q-30 0 -52 26t-22 65z" />
<glyph unicode="&#xd0;" horiz-adv-x="1361" d="M45 715q132 16 285 45q4 1 12 2t12 2q70 260 158 489q-76 -5 -141 -20t-102 -27t-50 -12q-37 0 -37 23q0 54 75.5 98.5t179 66t202.5 21.5q343 0 528 -155.5t185 -450.5q0 -201 -81 -355.5t-232 -253.5t-360.5 -149.5t-471.5 -50.5q-86 0 -121 22.5t-35 79.5q0 42 137 37 q7 0 21.5 -1t21.5 -1q41 280 88 491q-150 -29 -202 -22q-87 12 -72 121zM401 129q134 10 249.5 39.5t213.5 81.5t168 122.5t109 168t39 213.5q0 122 -40 216.5t-112.5 155.5t-170 93.5t-216.5 37.5q-77 -256 -123 -466q164 24 240 24q182 0 135 -151l-4 -2q-11 4 -37 8 q-126 20 -363 -19q-45 -231 -88 -522z" />
<glyph unicode="&#xd1;" horiz-adv-x="1382" d="M-2 41q0 24 19 68.5t58.5 126t65.5 141.5q124 290 189 600q49 231 76 309q50 146 112 146q63 0 142.5 -198t145.5 -483.5t105 -572.5q63 109 103 244t80 338q15 73 26.5 155.5t17 137.5t16.5 170t17 178q23 23 54 38t55 15q47 0 47 -80q0 -201 -69 -534.5t-132 -503.5 q-117 -324 -288 -324q-44 0 -66 19q-56 415 -104.5 634.5t-153.5 481.5q-126 -540 -264 -946q-77 -232 -180 -232q-72 0 -72 72zM584 1618q0 76 55 124t131 48q44 0 87 -20t70.5 -43.5t59.5 -43.5t57 -20q53 0 81 35.5t30 95.5q64 -18 64 -90q0 -50 -22 -85.5t-55 -51.5 t-58.5 -22.5t-45.5 -6.5q-43 0 -82 18.5t-63.5 41t-57.5 41t-65 18.5q-40 0 -70.5 -33t-48.5 -92q-67 15 -67 86z" />
<glyph unicode="&#xd2;" horiz-adv-x="1230" d="M90 467q0 151 35.5 299t103.5 276t160 226t213.5 154.5t255.5 56.5q160 0 253 -127t93 -326q0 -104 -26.5 -220.5t-74 -230t-118.5 -217.5t-155 -183t-188.5 -126t-213.5 -47q-75 0 -135 29t-97.5 75.5t-62 109.5t-34 124.5t-9.5 126.5zM276 459q0 -160 43.5 -237 t131.5 -77q84 0 172.5 51t164 139t136 197.5t95 235t34.5 242.5q0 131 -53 214t-162 83q-87 0 -167 -39t-140 -104.5t-109.5 -151t-80.5 -180.5t-48 -190.5t-17 -182.5zM555 1823q-6 41 28 72t87 36q59 -99 143.5 -163t210.5 -97q2 -17 -18.5 -36t-55.5 -25 q-59 -8 -148.5 19.5t-164 81.5t-82.5 112z" />
<glyph unicode="&#xd3;" horiz-adv-x="1230" d="M90 467q0 151 35.5 299t103.5 276t160 226t213.5 154.5t255.5 56.5q160 0 253 -127t93 -326q0 -104 -26.5 -220.5t-74 -230t-118.5 -217.5t-155 -183t-188.5 -126t-213.5 -47q-75 0 -135 29t-97.5 75.5t-62 109.5t-34 124.5t-9.5 126.5zM276 459q0 -160 43.5 -237 t131.5 -77q84 0 172.5 51t164 139t136 197.5t95 235t34.5 242.5q0 131 -53 214t-162 83q-87 0 -167 -39t-140 -104.5t-109.5 -151t-80.5 -180.5t-48 -190.5t-17 -182.5zM688 1665q126 37 206.5 93t166.5 153q53 -9 86 -43.5t20 -73.5q-17 -56 -101 -103t-183 -67t-164 -6 q-18 4 -26 17.5t-5 29.5z" />
<glyph unicode="&#xd4;" horiz-adv-x="1230" d="M90 467q0 151 35.5 299t103.5 276t160 226t213.5 154.5t255.5 56.5q160 0 253 -127t93 -326q0 -104 -26.5 -220.5t-74 -230t-118.5 -217.5t-155 -183t-188.5 -126t-213.5 -47q-75 0 -135 29t-97.5 75.5t-62 109.5t-34 124.5t-9.5 126.5zM276 459q0 -160 43.5 -237 t131.5 -77q84 0 172.5 51t164 139t136 197.5t95 235t34.5 242.5q0 131 -53 214t-162 83q-87 0 -167 -39t-140 -104.5t-109.5 -151t-80.5 -180.5t-48 -190.5t-17 -182.5zM528 1627.5q4 8.5 37 29.5q93 49 187.5 123.5t142.5 132.5q12 15 32 15t29 -15q34 -62 109.5 -151 t142.5 -146q-22 -43 -63 -43q-57 -3 -124.5 52t-119.5 126q-96 -91 -246 -145q-91 -24 -110 -7q-21 20 -17 28.5z" />
<glyph unicode="&#xd5;" horiz-adv-x="1230" d="M90 467q0 151 35.5 299t103.5 276t160 226t213.5 154.5t255.5 56.5q160 0 253 -127t93 -326q0 -104 -26.5 -220.5t-74 -230t-118.5 -217.5t-155 -183t-188.5 -126t-213.5 -47q-75 0 -135 29t-97.5 75.5t-62 109.5t-34 124.5t-9.5 126.5zM276 459q0 -160 43.5 -237 t131.5 -77q84 0 172.5 51t164 139t136 197.5t95 235t34.5 242.5q0 131 -53 214t-162 83q-87 0 -167 -39t-140 -104.5t-109.5 -151t-80.5 -180.5t-48 -190.5t-17 -182.5zM547 1679q0 76 55 124t131 48q44 0 87 -20t71 -43.5t60 -43.5t57 -20q53 0 80.5 35.5t29.5 95.5 q64 -18 64 -90q0 -50 -22 -85.5t-55 -51.5t-58.5 -22.5t-45.5 -6.5q-43 0 -82 18.5t-63.5 41t-57.5 41t-65 18.5q-40 0 -70.5 -33t-48.5 -92q-67 15 -67 86z" />
<glyph unicode="&#xd6;" horiz-adv-x="1230" d="M90 467q0 151 35.5 299t103.5 276t160 226t213.5 154.5t255.5 56.5q160 0 253 -127t93 -326q0 -104 -26.5 -220.5t-74 -230t-118.5 -217.5t-155 -183t-188.5 -126t-213.5 -47q-75 0 -135 29t-97.5 75.5t-62 109.5t-34 124.5t-9.5 126.5zM276 459q0 -160 43.5 -237 t131.5 -77q84 0 172.5 51t164 139t136 197.5t95 235t34.5 242.5q0 131 -53 214t-162 83q-87 0 -167 -39t-140 -104.5t-109.5 -151t-80.5 -180.5t-48 -190.5t-17 -182.5zM557 1706q0 47 13 79t36.5 47t46.5 20.5t52 5.5q44 0 63.5 -26.5t19.5 -66.5q0 -55 -43 -111.5 t-102 -56.5q-86 0 -86 109zM946 1708q0 88 44.5 127t105.5 39q40 0 61 -28t21 -66q0 -55 -43.5 -108.5t-114.5 -53.5q-30 0 -52 25.5t-22 64.5z" />
<glyph unicode="&#xd7;" d="M217 354q0 35 68 95q17 15 65 54.5t99 82.5q8 8 21.5 21t19 19t15.5 16t14 15t10.5 13.5t9 14t5.5 12.5t4 14t1 14q0 49 -54 103t-135 92q-53 24 -70.5 43.5t-17.5 52.5q0 24 22.5 50.5t63.5 33.5q45 -16 90.5 -52.5t79.5 -76.5t64.5 -78t55.5 -63t42 -25q18 0 51.5 32 t72.5 77.5t80.5 90.5t86 77t78.5 32q27 0 53.5 -24.5t26.5 -57.5q-102 -62 -224 -162q-69 -58 -93.5 -94t-24.5 -69q0 -17 9 -34t29.5 -37.5t41 -38.5t57.5 -49.5t65 -58.5q8 -7 22 -19t19 -17t12 -12.5t9 -14t2 -14.5q0 -33 -34.5 -65t-72.5 -32q-30 0 -52.5 22.5 t-57.5 80.5t-58 88q-69 92 -110 92q-28 0 -65 -29t-75 -70.5t-79 -83.5t-88.5 -71t-91.5 -29q-26 0 -44 12.5t-18 26.5z" />
<glyph unicode="&#xd8;" horiz-adv-x="1183" d="M-70 -125q-2 10 4 21q31 59 189 282q-60 123 -60 289q0 151 35.5 299t103.5 276t160 226t213.5 154.5t255.5 56.5q141 0 236 -101q117 132 174 174q26 6 56 -14.5t34 -48.5q-93 -81 -203 -203q50 -103 50 -239q0 -106 -26.5 -224.5t-74 -234.5t-119 -222.5t-155 -187 t-188.5 -128.5t-214 -48q-129 0 -211 82q-37 -49 -90 -123t-69 -96q-18 -25 -60 -19q-37 5 -41 29zM240 459q0 -67 8 -111q387 524 713 909q-57 70 -150 70q-88 0 -168 -36t-141.5 -99t-111.5 -147t-82.5 -180.5t-50 -200t-17.5 -205.5zM287 219q50 -78 137 -78 q84 0 172.5 52.5t164 143t136 203t95 241.5t34.5 249q0 68 -14 123q-287 -332 -725 -934z" />
<glyph unicode="&#xd9;" horiz-adv-x="1269" d="M141 406q0 195 79.5 502.5t176.5 484.5q22 10 49 10q78 0 78 -105q1 -24 -6 -57.5t-16 -60t-29 -87t-33 -100.5q-38 -106 -73 -268.5t-35 -284.5q0 -146 51.5 -225.5t148.5 -79.5q57 0 107.5 20.5t91.5 54t78.5 88.5t66 112.5t55.5 139t47 154t40.5 170.5t34.5 176.5 t32 184.5q21 126 29 149q17 52 60 66q23 7 55 8q35 0 51 -16q-22 -149 -43 -269.5t-48 -250t-55.5 -231.5t-66 -204t-79 -177.5t-93.5 -142t-111 -108.5t-131 -66t-153 -24q-175 0 -267 112.5t-92 324.5zM535 1761q-6 41 27.5 72.5t86.5 36.5q59 -99 144 -163t211 -97 q2 -17 -18.5 -36.5t-55.5 -25.5q-59 -8 -148.5 19.5t-164 81.5t-82.5 112z" />
<glyph unicode="&#xda;" horiz-adv-x="1269" d="M141 406q0 195 79.5 502.5t176.5 484.5q22 10 49 10q78 0 78 -105q1 -24 -6 -57.5t-16 -60t-29 -87t-33 -100.5q-38 -106 -73 -268.5t-35 -284.5q0 -146 51.5 -225.5t148.5 -79.5q57 0 107.5 20.5t91.5 54t78.5 88.5t66 112.5t55.5 139t47 154t40.5 170.5t34.5 176.5 t32 184.5q21 126 29 149q17 52 60 66q23 7 55 8q35 0 51 -16q-22 -149 -43 -269.5t-48 -250t-55.5 -231.5t-66 -204t-79 -177.5t-93.5 -142t-111 -108.5t-131 -66t-153 -24q-175 0 -267 112.5t-92 324.5zM668 1604q126 37 206 92.5t166 152.5q53 -9 86.5 -43.5t20.5 -72.5 q-17 -56 -101.5 -103.5t-183.5 -67.5t-164 -6q-18 4 -25.5 18t-4.5 30z" />
<glyph unicode="&#xdb;" horiz-adv-x="1269" d="M141 406q0 195 79.5 502.5t176.5 484.5q22 10 49 10q78 0 78 -105q1 -24 -6 -57.5t-16 -60t-29 -87t-33 -100.5q-38 -106 -73 -268.5t-35 -284.5q0 -146 51.5 -225.5t148.5 -79.5q57 0 107.5 20.5t91.5 54t78.5 88.5t66 112.5t55.5 139t47 154t40.5 170.5t34.5 176.5 t32 184.5q21 126 29 149q17 52 60 66q23 7 55 8q35 0 51 -16q-22 -149 -43 -269.5t-48 -250t-55.5 -231.5t-66 -204t-79 -177.5t-93.5 -142t-111 -108.5t-131 -66t-153 -24q-175 0 -267 112.5t-92 324.5zM507.5 1558.5q-1.5 7.5 6 14.5t31.5 22q93 49 187 123.5t142 132.5 q12 15 32.5 15t29.5 -15q34 -62 109.5 -151t142.5 -146q-22 -43 -64 -43q-57 -3 -124 52t-119 127q-98 -92 -246 -146q-91 -24 -111 -6q-15 13 -16.5 20.5z" />
<glyph unicode="&#xdc;" horiz-adv-x="1269" d="M141 406q0 195 79.5 502.5t176.5 484.5q22 10 49 10q78 0 78 -105q1 -24 -6 -57.5t-16 -60t-29 -87t-33 -100.5q-38 -106 -73 -268.5t-35 -284.5q0 -146 51.5 -225.5t148.5 -79.5q57 0 107.5 20.5t91.5 54t78.5 88.5t66 112.5t55.5 139t47 154t40.5 170.5t34.5 176.5 t32 184.5q21 126 29 149q17 52 60 66q23 7 55 8q35 0 51 -16q-22 -149 -43 -269.5t-48 -250t-55.5 -231.5t-66 -204t-79 -177.5t-93.5 -142t-111 -108.5t-131 -66t-153 -24q-175 0 -267 112.5t-92 324.5zM537 1645q0 47 12.5 79t36 46.5t46 20t52.5 5.5q44 0 64 -26t20 -66 q0 -55 -43 -111.5t-102 -56.5q-86 0 -86 109zM926 1647q0 88 44 126.5t105 38.5q40 0 61 -28t21 -66q0 -55 -43.5 -108.5t-114.5 -53.5q-30 0 -51.5 26t-21.5 65z" />
<glyph unicode="&#xdd;" horiz-adv-x="1198" d="M94 139q0 48 25.5 70t66.5 22q24 0 47 -13.5t46 -33.5t50 -39.5t70 -33.5t95 -15q47 -1 90.5 17t79.5 48.5t70 78t61 98t53 118t45.5 128t39.5 137t34 137t30 135.5q-57 -117 -114.5 -204t-107 -139t-102 -83t-94.5 -42t-87 -11q-125 0 -199 103.5t-74 285.5 q0 124 32.5 252t80.5 227q33 68 74 96.5t79 28.5q54 0 76 -34q-80 -115 -119 -264.5t-39 -278.5q0 -279 129 -279q58 0 122.5 48t119 121t107 164.5t89.5 173t62 153.5l35 98q10 30 33.5 44.5t52.5 12.5q38 -3 60.5 -27.5t15.5 -60.5l-127 -567q-25 -112 -44 -186.5 t-51 -172.5t-65 -161.5t-83.5 -132.5t-109.5 -108.5t-139 -65t-176 -25.5q-126 0 -233 55.5t-107 124.5zM688 1686q127 37 207 93t166 152q53 -9 86 -43t20 -73q-17 -56 -101 -103.5t-183 -67.5t-164 -6q-18 4 -26 18t-5 30z" />
<glyph unicode="&#xde;" horiz-adv-x="1083" d="M66 -8q0 106 109.5 608.5t186.5 806.5q37 40 96 51t99 -14q-39 -115 -78 -256q25 2 68 2q80 0 153 -12t143.5 -42t121.5 -74.5t82.5 -115t31.5 -158.5q0 -109 -53 -204t-140.5 -159t-200.5 -101t-232 -37q-93 0 -168 20l-64 -334q0 -1 -2 -9.5t-2.5 -10t-2.5 -9t-3.5 -9 t-5 -7t-7 -7t-9 -4.5t-12.5 -4t-15 -1q-34 0 -65 21.5t-31 58.5zM309 436q64 -20 144 -20q82 0 161.5 22t145 62.5t105.5 105.5t40 144q0 148 -105.5 227.5t-269.5 77.5q-22 0 -88 -4q-63 -259 -133 -615z" />
<glyph unicode="&#xdf;" horiz-adv-x="1071" d="M-43 -213q0 115 63 426q158 720 297 1020q28 55 57.5 97.5t75 87t108.5 69t138 24.5q120 0 194.5 -56.5t74.5 -178.5q0 -70 -30 -139.5t-72.5 -123.5t-85.5 -100t-73 -84t-30 -61q0 -29 16.5 -54t43.5 -44.5t59 -40t64.5 -45.5t59.5 -54.5t43.5 -73t16.5 -96.5 q0 -145 -102 -245.5t-279 -100.5q-119 0 -203 57t-84 111q0 31 21.5 50.5t42.5 19.5q23 0 48.5 -15.5t47 -33.5t59 -33.5t80.5 -15.5q97 0 157 55.5t60 134.5q0 46 -22.5 82t-56.5 58.5t-73.5 47t-73.5 47t-56.5 59t-22.5 81.5q0 53 29 104t70 95t82.5 89.5t70.5 105 t29 124.5q0 62 -38 98.5t-95 34.5q-149 -2 -239 -222q-2 -5 -3 -7q-16 -37 -33.5 -84.5t-32.5 -95t-31.5 -106t-29 -107.5t-27 -110t-24.5 -103t-21.5 -97t-17.5 -82t-14 -67.5t-9 -44.5q-45 -245 -73 -547q-59 -30 -93.5 -18t-48.5 40t-14 68z" />
<glyph unicode="&#xe0;" horiz-adv-x="1130" d="M-2 225q0 114 42 233t112.5 218t157 178.5t182 124.5t180.5 45q120 0 108 -111q-67 10 -123 -2q-92 -18 -179.5 -84.5t-148.5 -154t-98.5 -186t-37.5 -181.5q0 -160 98 -160q63 0 127.5 41.5t116 103.5t102 146.5t85 158.5t64.5 150q64 162 102 212q30 40 56 40 q42 0 62.5 -35t1.5 -77q-70 -155 -120 -332t-50 -277q-3 -90 43 -90q19 0 47 14.5t39 14.5q24 0 24 -45q0 -59 -59 -108.5t-137 -49.5t-108.5 78.5t-2.5 235.5q-84 -145 -206 -233.5t-263 -88.5q-99 0 -158 62.5t-59 158.5zM410 1464q0 41 38 67t91 23q45 -106 119 -181 t194 -126q0 -17 -22.5 -33t-59.5 -16q-59 0 -143.5 39.5t-150.5 103.5t-66 123z" />
<glyph unicode="&#xe1;" horiz-adv-x="1130" d="M-2 225q0 114 42 233t112.5 218t157 178.5t182 124.5t180.5 45q120 0 108 -111q-67 10 -123 -2q-92 -18 -179.5 -84.5t-148.5 -154t-98.5 -186t-37.5 -181.5q0 -160 98 -160q63 0 127.5 41.5t116 103.5t102 146.5t85 158.5t64.5 150q64 162 102 212q30 40 56 40 q42 0 62.5 -35t1.5 -77q-70 -155 -120 -332t-50 -277q-3 -90 43 -90q19 0 47 14.5t39 14.5q24 0 24 -45q0 -59 -59 -108.5t-137 -49.5t-108.5 78.5t-2.5 235.5q-84 -145 -206 -233.5t-263 -88.5q-99 0 -158 62.5t-59 158.5zM569 1237q116 63 182.5 133.5t131.5 183.5 q54 3 93.5 -23.5t35.5 -66.5q-5 -59 -78 -123t-165.5 -103.5t-158.5 -39.5q-19 0 -30 11.5t-11 27.5z" />
<glyph unicode="&#xe2;" horiz-adv-x="1130" d="M-2 225q0 114 42 233t112.5 218t157 178.5t182 124.5t180.5 45q120 0 108 -111q-67 10 -123 -2q-92 -18 -179.5 -84.5t-148.5 -154t-98.5 -186t-37.5 -181.5q0 -160 98 -160q63 0 127.5 41.5t116 103.5t102 146.5t85 158.5t64.5 150q64 162 102 212q30 40 56 40 q42 0 62.5 -35t1.5 -77q-70 -155 -120 -332t-50 -277q-3 -90 43 -90q19 0 47 14.5t39 14.5q24 0 24 -45q0 -59 -59 -108.5t-137 -49.5t-108.5 78.5t-2.5 235.5q-84 -145 -206 -233.5t-263 -88.5q-99 0 -158 62.5t-59 158.5zM413.5 1223q4.5 13 37.5 34q89 47 179.5 124.5 t143.5 142.5q12 15 33 16t29 -16q47 -71 120 -168.5t125 -147.5q-21 -43 -63 -43q-39 -2 -87 32t-83.5 76t-67.5 91q-123 -123 -239 -166q-94 -25 -111 -6q-21 18 -16.5 31z" />
<glyph unicode="&#xe3;" horiz-adv-x="1130" d="M-2 225q0 114 42 233t112.5 218t157 178.5t182 124.5t180.5 45q120 0 108 -111q-67 10 -123 -2q-92 -18 -179.5 -84.5t-148.5 -154t-98.5 -186t-37.5 -181.5q0 -160 98 -160q63 0 127.5 41.5t116 103.5t102 146.5t85 158.5t64.5 150q64 162 102 212q30 40 56 40 q42 0 62.5 -35t1.5 -77q-70 -155 -120 -332t-50 -277q-3 -90 43 -90q19 0 47 14.5t39 14.5q24 0 24 -45q0 -59 -59 -108.5t-137 -49.5t-108.5 78.5t-2.5 235.5q-84 -145 -206 -233.5t-263 -88.5q-99 0 -158 62.5t-59 158.5zM391 1292q0 76 55.5 124t131.5 48q44 0 87 -20 t70.5 -43.5t59.5 -43.5t57 -20q53 0 81 35.5t30 95.5q63 -18 63 -90q0 -50 -22 -85.5t-54.5 -51.5t-58 -22.5t-45.5 -6.5q-43 0 -82 18.5t-63.5 41t-57.5 41t-65 18.5q-40 0 -70.5 -33t-48.5 -92q-68 15 -68 86z" />
<glyph unicode="&#xe4;" horiz-adv-x="1130" d="M-2 225q0 114 42 233t112.5 218t157 178.5t182 124.5t180.5 45q120 0 108 -111q-67 10 -123 -2q-92 -18 -179.5 -84.5t-148.5 -154t-98.5 -186t-37.5 -181.5q0 -160 98 -160q63 0 127.5 41.5t116 103.5t102 146.5t85 158.5t64.5 150q64 162 102 212q30 40 56 40 q42 0 62.5 -35t1.5 -77q-70 -155 -120 -332t-50 -277q-3 -90 43 -90q19 0 47 14.5t39 14.5q24 0 24 -45q0 -59 -59 -108.5t-137 -49.5t-108.5 78.5t-2.5 235.5q-84 -145 -206 -233.5t-263 -88.5q-99 0 -158 62.5t-59 158.5zM457 1307q0 47 12.5 79t36 46.5t46 20t52.5 5.5 q44 0 64 -26t20 -66q0 -55 -43 -111.5t-102 -56.5q-86 0 -86 109zM846 1309q0 88 44 127t105 39q40 0 61 -28.5t21 -66.5q0 -55 -43 -108t-114 -53q-30 0 -52 25.5t-22 64.5z" />
<glyph unicode="&#xe5;" horiz-adv-x="1130" d="M-2 225q0 114 42 233t112.5 218t157 178.5t182 124.5t180.5 45q120 0 108 -111q-67 10 -123 -2q-92 -18 -179.5 -84.5t-148.5 -154t-98.5 -186t-37.5 -181.5q0 -160 98 -160q63 0 127.5 41.5t116 103.5t102 146.5t85 158.5t64.5 150q64 162 102 212q30 40 56 40 q42 0 62.5 -35t1.5 -77q-70 -155 -120 -332t-50 -277q-3 -90 43 -90q19 0 47 14.5t39 14.5q24 0 24 -45q0 -59 -59 -108.5t-137 -49.5t-108.5 78.5t-2.5 235.5q-84 -145 -206 -233.5t-263 -88.5q-99 0 -158 62.5t-59 158.5zM504 1315q0 117 99 211t241 94q67 0 110 -37.5 t43 -103.5q0 -79 -52 -151.5t-134 -115.5t-168 -43q-60 0 -99.5 37t-39.5 109zM618 1346q0 -34 21 -55t53 -21q77 0 135 58.5t58 117.5q0 38 -22.5 57t-51.5 19q-82 0 -137.5 -54.5t-55.5 -121.5z" />
<glyph unicode="&#xe6;" horiz-adv-x="1660" d="M-2 225q0 114 42 233t112.5 218t157 178.5t182 124.5t180.5 45q120 0 108 -111q-67 10 -123 -2q-92 -18 -179.5 -84.5t-148.5 -154t-98.5 -186t-37.5 -181.5q0 -81 26.5 -120.5t71.5 -39.5q57 0 120 42t116.5 105t107 147t92 158.5t70.5 147.5q11 24 30 73.5t33.5 83.5 t32.5 71t36.5 56.5t35.5 19.5q37 0 54 -31t3 -86q155 102 326 102q106 0 168.5 -55t62.5 -141q0 -129 -104.5 -236t-268 -161t-336.5 -42v-37q0 -100 67 -160.5t155 -60.5q116 0 212.5 52.5t192.5 168.5q18 -3 27.5 -19.5t5.5 -41.5q-10 -50 -52 -102.5t-108 -97t-160.5 -73 t-197.5 -28.5q-39 0 -79 9t-84 33t-77.5 60.5t-55.5 98t-22 139.5v4q-85 -149 -214.5 -244.5t-264.5 -95.5q-99 0 -158 62.5t-59 158.5zM883 494q106 -4 205.5 25.5t166.5 77.5t107.5 106.5t40.5 111.5q0 98 -96 98q-143 0 -265.5 -117t-158.5 -302z" />
<glyph unicode="&#xe7;" horiz-adv-x="897" d="M-6 313q0 122 44.5 235t117 197t161.5 147t182 95.5t175 32.5q188 0 188 -131q0 -79 -80 -111q-46 78 -161 78q-77 0 -157.5 -36t-149 -98.5t-112.5 -160t-44 -209.5q0 -109 50 -166t140 -57q105 0 217.5 62.5t182.5 185.5q43 -3 43 -60q0 -85 -59 -156t-150 -112 t-197 -53l-45 -105q18 3 35 3q77 0 122.5 -42t45.5 -112q0 -78 -44.5 -133.5t-114.5 -81t-157 -25.5q-45 0 -74.5 10t-29.5 27q0 40 31 62q34 -6 80 -2.5t87.5 11.5t70 35t28.5 68q0 30 -24 45t-64 15q-48 0 -107 -15q-25 -7 -32 17.5t2 42.5l73 178q-144 13 -209 98 t-65 221z" />
<glyph unicode="&#xe8;" horiz-adv-x="991" d="M4 340q0 144 59.5 275t155 221.5t216.5 144t243 53.5q106 0 168.5 -55t62.5 -141q0 -97 -62 -184t-161 -145t-227.5 -88.5t-257.5 -21.5v-37q0 -100 66.5 -160.5t154.5 -60.5q116 0 212.5 52.5t192.5 168.5q18 -3 27.5 -19.5t5.5 -41.5q-10 -50 -52 -102.5t-108 -97 t-160.5 -73t-197.5 -28.5q-42 0 -84.5 9t-89 33t-82 60.5t-59 98t-23.5 139.5zM213 494q106 -4 205.5 25.5t166.5 77.5t107.5 106.5t40.5 111.5q0 98 -96 98q-143 0 -265.5 -117t-158.5 -302zM297 1464q0 41 38 67t91 23q45 -106 119 -181t194 -126q0 -17 -22.5 -33 t-59.5 -16q-59 0 -143.5 39.5t-150.5 103.5t-66 123z" />
<glyph unicode="&#xe9;" horiz-adv-x="991" d="M4 340q0 144 59.5 275t155 221.5t216.5 144t243 53.5q106 0 168.5 -55t62.5 -141q0 -97 -62 -184t-161 -145t-227.5 -88.5t-257.5 -21.5v-37q0 -100 66.5 -160.5t154.5 -60.5q116 0 212.5 52.5t192.5 168.5q18 -3 27.5 -19.5t5.5 -41.5q-10 -50 -52 -102.5t-108 -97 t-160.5 -73t-197.5 -28.5q-42 0 -84.5 9t-89 33t-82 60.5t-59 98t-23.5 139.5zM213 494q106 -4 205.5 25.5t166.5 77.5t107.5 106.5t40.5 111.5q0 98 -96 98q-143 0 -265.5 -117t-158.5 -302zM457 1237q116 63 182 133.5t131 183.5q54 3 93.5 -23.5t35.5 -66.5 q-5 -59 -77.5 -123t-165 -103.5t-158.5 -39.5q-19 0 -30 11.5t-11 27.5z" />
<glyph unicode="&#xea;" horiz-adv-x="991" d="M4 340q0 144 59.5 275t155 221.5t216.5 144t243 53.5q106 0 168.5 -55t62.5 -141q0 -97 -62 -184t-161 -145t-227.5 -88.5t-257.5 -21.5v-37q0 -100 66.5 -160.5t154.5 -60.5q116 0 212.5 52.5t192.5 168.5q18 -3 27.5 -19.5t5.5 -41.5q-10 -50 -52 -102.5t-108 -97 t-160.5 -73t-197.5 -28.5q-42 0 -84.5 9t-89 33t-82 60.5t-59 98t-23.5 139.5zM213 494q106 -4 205.5 25.5t166.5 77.5t107.5 106.5t40.5 111.5q0 98 -96 98q-143 0 -265.5 -117t-158.5 -302zM300.5 1223q4.5 13 37.5 34q89 47 180 125t144 142q12 15 32.5 16t28.5 -16 q46 -70 120 -168t126 -148q-21 -43 -64 -43q-56 -3 -120.5 58t-116.5 141q-122 -122 -240 -166q-94 -25 -111 -6q-21 18 -16.5 31z" />
<glyph unicode="&#xeb;" horiz-adv-x="991" d="M4 340q0 144 59.5 275t155 221.5t216.5 144t243 53.5q106 0 168.5 -55t62.5 -141q0 -97 -62 -184t-161 -145t-227.5 -88.5t-257.5 -21.5v-37q0 -100 66.5 -160.5t154.5 -60.5q116 0 212.5 52.5t192.5 168.5q18 -3 27.5 -19.5t5.5 -41.5q-10 -50 -52 -102.5t-108 -97 t-160.5 -73t-197.5 -28.5q-42 0 -84.5 9t-89 33t-82 60.5t-59 98t-23.5 139.5zM213 494q106 -4 205.5 25.5t166.5 77.5t107.5 106.5t40.5 111.5q0 98 -96 98q-143 0 -265.5 -117t-158.5 -302zM344 1307q0 47 13 79t36.5 46.5t46 20t52.5 5.5q44 0 63.5 -26t19.5 -66 q0 -55 -43 -111.5t-102 -56.5q-86 0 -86 109zM733 1309q0 88 44.5 127t105.5 39q40 0 61 -28.5t21 -66.5q0 -55 -43.5 -108t-114.5 -53q-30 0 -52 25.5t-22 64.5z" />
<glyph unicode="&#xec;" horiz-adv-x="487" d="M51 121q0 70 78.5 403t106.5 404q13 38 41.5 60t62.5 20q39 -1 49.5 -33t-0.5 -78q-8 -54 -57 -226t-60 -270q-6 -50 -15.5 -160t-10.5 -116q-4 -46 -35.5 -70t-85.5 -24q-74 0 -74 90zM63 1464q0 41 38.5 67t91.5 23q45 -106 119 -181t194 -126q0 -17 -22.5 -33 t-59.5 -16q-59 0 -144 39.5t-151 103.5t-66 123z" />
<glyph unicode="&#xed;" horiz-adv-x="487" d="M51 121q0 70 78.5 403t106.5 404q13 38 41.5 60t62.5 20q39 -1 49.5 -33t-0.5 -78q-8 -54 -57 -226t-60 -270q-6 -50 -15.5 -160t-10.5 -116q-4 -46 -35.5 -70t-85.5 -24q-74 0 -74 90zM223 1237q116 63 182.5 133.5t131.5 183.5q54 3 93.5 -23.5t35.5 -66.5 q-5 -59 -78 -123t-165.5 -103.5t-158.5 -39.5q-19 0 -30 11.5t-11 27.5z" />
<glyph unicode="&#xee;" horiz-adv-x="487" d="M51 121q0 70 78.5 403t106.5 404q13 38 41.5 60t62.5 20q39 -1 49.5 -33t-0.5 -78q-8 -54 -57 -226t-60 -270q-6 -50 -15.5 -160t-10.5 -116q-4 -46 -35.5 -70t-85.5 -24q-74 0 -74 90zM67 1223q4 14 37 34q89 47 180 125t144 142q12 15 32.5 16t28.5 -16 q46 -70 120 -168t126 -148q-21 -43 -63 -43q-39 -2 -87 32t-83.5 76t-67.5 91q-123 -123 -239 -166q-94 -25 -111 -6q-21 17 -17 31z" />
<glyph unicode="&#xef;" horiz-adv-x="487" d="M51 121q0 70 78.5 403t106.5 404q13 38 41.5 60t62.5 20q39 -1 49.5 -33t-0.5 -78q-8 -54 -57 -226t-60 -270q-6 -50 -15.5 -160t-10.5 -116q-4 -46 -35.5 -70t-85.5 -24q-74 0 -74 90zM111 1307q0 47 12.5 79t36 46.5t46 20t52.5 5.5q44 0 64 -26t20 -66 q0 -55 -43 -111.5t-102 -56.5q-86 0 -86 109zM500 1309q0 88 44 127t105 39q40 0 61 -28.5t21 -66.5q0 -55 -43.5 -108t-114.5 -53q-30 0 -51.5 25.5t-21.5 64.5z" />
<glyph unicode="&#xf0;" horiz-adv-x="1038" d="M2 324q0 166 78.5 317.5t215 245.5t294.5 94q152 0 215 -111q17 285 -78 414l-22 -10q-53 -22 -159.5 -81t-133.5 -69q-18 -3 -31 3t-19 13t-16 25q-8 13 19 38t76.5 54.5t99.5 56t102 50.5q-85 51 -215 51q-82 0 -156 -18q-27 -5 -34 21t4 42q35 76 200 76 q213 0 340 -121q89 28 149 40t99.5 9t56.5 -21t15 -54q-111 -11 -254 -58q118 -188 96 -538q-12 -167 -61 -308t-131 -246t-202.5 -164t-266.5 -59q-130 0 -205.5 83.5t-75.5 224.5zM168 332q0 -89 40.5 -137t110.5 -48q87 0 173 51t147.5 127.5t100.5 167t40 169.5 q0 98 -47 143t-127 45q-78 0 -149.5 -36t-122.5 -93.5t-89.5 -126.5t-57.5 -137.5t-19 -124.5z" />
<glyph unicode="&#xf1;" horiz-adv-x="1148" d="M62.5 234.5q4.5 82.5 21.5 207.5q11 75 34.5 164t60.5 188t92.5 164.5t117.5 65.5q36 0 45 -18q-78 -179 -117 -311.5t-65 -293.5q84 136 210 284.5t256 257t202 108.5q40 0 53.5 -29.5t13.5 -79.5q0 -31 -14 -103t-35.5 -181.5t-34.5 -198.5q-45 -301 23 -301q4 0 21 2 t28 2q21 0 26 -11.5t3 -33.5q-6 -51 -51 -93t-93 -42q-70 -1 -106 51t-40 151t13 240q9 72 21 142t21 109.5t15 71.5t5 44.5t-11 13.5q-42 3 -147 -97t-201 -233q-101 -142 -152 -242t-106 -243q-45 -4 -71 20.5t-34.5 83t-4 141zM326 1292q0 76 55 124t131 48q44 0 87 -20 t70.5 -43.5t59.5 -43.5t57 -20q53 0 81 35.5t30 95.5q64 -18 64 -90q0 -50 -22 -85.5t-55 -51.5t-58.5 -22.5t-45.5 -6.5q-43 0 -82 18.5t-63.5 41t-57.5 41t-65 18.5q-40 0 -70.5 -33t-48.5 -92q-67 15 -67 86z" />
<glyph unicode="&#xf2;" horiz-adv-x="997" d="M12 324q0 132 49 262.5t130 231.5t194.5 163.5t235.5 62.5q145 0 227 -89t82 -244q0 -122 -52 -247.5t-137 -224t-204 -161t-244 -62.5q-130 0 -205.5 83.5t-75.5 224.5zM193 332q0 -185 137 -185q88 0 174.5 53.5t148 134t100 176t38.5 177.5q0 89 -44.5 146t-130.5 57 q-96 0 -179.5 -59t-134.5 -146.5t-80 -181.5t-29 -172zM328 1464q0 41 38 67t91 23q45 -106 119 -181t194 -126q0 -17 -22.5 -33t-59.5 -16q-59 0 -143.5 39.5t-150.5 103.5t-66 123z" />
<glyph unicode="&#xf3;" horiz-adv-x="997" d="M12 324q0 132 49 262.5t130 231.5t194.5 163.5t235.5 62.5q145 0 227 -89t82 -244q0 -122 -52 -247.5t-137 -224t-204 -161t-244 -62.5q-130 0 -205.5 83.5t-75.5 224.5zM193 332q0 -185 137 -185q88 0 174.5 53.5t148 134t100 176t38.5 177.5q0 89 -44.5 146t-130.5 57 q-96 0 -179.5 -59t-134.5 -146.5t-80 -181.5t-29 -172zM487 1237q116 63 182.5 133.5t131.5 183.5q54 3 93.5 -23.5t35.5 -66.5q-5 -59 -78 -123t-165.5 -103.5t-158.5 -39.5q-19 0 -30 11.5t-11 27.5z" />
<glyph unicode="&#xf4;" horiz-adv-x="997" d="M12 324q0 132 49 262.5t130 231.5t194.5 163.5t235.5 62.5q145 0 227 -89t82 -244q0 -122 -52 -247.5t-137 -224t-204 -161t-244 -62.5q-130 0 -205.5 83.5t-75.5 224.5zM193 332q0 -185 137 -185q88 0 174.5 53.5t148 134t100 176t38.5 177.5q0 89 -44.5 146t-130.5 57 q-96 0 -179.5 -59t-134.5 -146.5t-80 -181.5t-29 -172zM331.5 1223q4.5 13 37.5 34q89 47 179.5 124.5t143.5 142.5q12 15 33 16t29 -16q47 -71 120 -168.5t125 -147.5q-21 -43 -63 -43q-39 -2 -87 32t-83.5 76t-67.5 91q-123 -123 -239 -166q-94 -25 -111 -6 q-21 18 -16.5 31z" />
<glyph unicode="&#xf5;" horiz-adv-x="997" d="M12 324q0 132 49 262.5t130 231.5t194.5 163.5t235.5 62.5q145 0 227 -89t82 -244q0 -122 -52 -247.5t-137 -224t-204 -161t-244 -62.5q-130 0 -205.5 83.5t-75.5 224.5zM193 332q0 -185 137 -185q88 0 174.5 53.5t148 134t100 176t38.5 177.5q0 89 -44.5 146t-130.5 57 q-96 0 -179.5 -59t-134.5 -146.5t-80 -181.5t-29 -172zM309 1292q0 76 55.5 124t131.5 48q44 0 87 -20t70.5 -43.5t59.5 -43.5t57 -20q53 0 81 35.5t30 95.5q63 -18 63 -90q0 -50 -22 -85.5t-54.5 -51.5t-58 -22.5t-45.5 -6.5q-43 0 -82 18.5t-63.5 41t-57.5 41t-65 18.5 q-40 0 -70.5 -33t-48.5 -92q-68 15 -68 86z" />
<glyph unicode="&#xf6;" horiz-adv-x="997" d="M12 324q0 132 49 262.5t130 231.5t194.5 163.5t235.5 62.5q145 0 227 -89t82 -244q0 -122 -52 -247.5t-137 -224t-204 -161t-244 -62.5q-130 0 -205.5 83.5t-75.5 224.5zM193 332q0 -185 137 -185q88 0 174.5 53.5t148 134t100 176t38.5 177.5q0 89 -44.5 146t-130.5 57 q-96 0 -179.5 -59t-134.5 -146.5t-80 -181.5t-29 -172zM375 1307q0 47 12.5 79t36 46.5t46 20t52.5 5.5q44 0 64 -26t20 -66q0 -55 -43 -111.5t-102 -56.5q-86 0 -86 109zM764 1309q0 88 44 127t105 39q40 0 61 -28.5t21 -66.5q0 -55 -43 -108t-114 -53q-30 0 -52 25.5 t-22 64.5z" />
<glyph unicode="&#xf7;" d="M188 659q0 19 3 33t10.5 23t13 15t17.5 9.5t17 4.5t18.5 2.5t15.5 1.5q70 8 158.5 8t171 -3.5t108.5 -2.5q121 -13 258 0q39 1 63.5 -3t34.5 -14t12.5 -19.5t2.5 -25.5q0 -47 -38 -64t-100 -6q-95 15 -190 15h-43.5h-52t-53 -0.5t-61.5 -2t-61.5 -3.5t-69.5 -5.5 t-68.5 -8.5t-75.5 -11q-91 -19 -91 57zM438 289q0 56 31.5 92.5t95.5 36.5q49 0 79 -30t30 -79q0 -26 -7 -52t-34 -51.5t-70 -25.5q-57 0 -91 31t-34 78zM565 1065q0 56 31.5 92.5t95.5 36.5q50 0 79.5 -30t29.5 -79q0 -26 -7 -52t-34 -51.5t-70 -25.5q-57 0 -91 31t-34 78z " />
<glyph unicode="&#xf8;" horiz-adv-x="970" d="M-44 -117q-1 10 5 21q33 62 131 200q-69 81 -69 220q0 105 30.5 211t87.5 196.5t131.5 161t167.5 111t191 40.5q110 0 184 -53q105 114 174 166q26 6 56 -14.5t34 -48.5q-71 -62 -190 -181q51 -82 51 -202q0 -122 -52 -247.5t-137 -224t-204 -161t-244 -62.5 q-75 0 -135 31q-28 -37 -127 -174q-18 -25 -54 -19q-30 5 -31 29zM182 332q0 -46 13 -90q262 348 524 645q-37 24 -92 24q-102 0 -189 -58t-141 -147t-84.5 -187.5t-30.5 -186.5zM252 160q41 -23 88 -23q89 0 177 54.5t150 136.5t101 179t39 181q0 64 -21 117 q-228 -247 -534 -645z" />
<glyph unicode="&#xf9;" horiz-adv-x="1122" d="M66 260q0 170 78.5 413t150.5 365q113 -5 113 -94q0 -25 -25.5 -95t-55.5 -147t-55.5 -180t-25.5 -186q0 -65 16.5 -105.5t48.5 -40.5q40 0 85 31.5t91 92t85.5 121.5t84.5 148.5t71.5 142t62.5 133t43 93.5q16 34 42.5 61.5t57.5 26.5q28 0 57.5 -40.5t26.5 -61.5 q-4 -22 -34 -105.5t-55.5 -202.5t-31.5 -268q-2 -85 12.5 -145.5t53.5 -120.5q-14 -27 -43 -47t-58 -20q-67 0 -104 56.5t-40 171.5t34 290q-256 -524 -521 -524q-80 0 -122.5 60.5t-42.5 176.5zM352 1464q0 41 38 67t91 23q45 -106 119.5 -181t194.5 -126q0 -17 -22.5 -33 t-59.5 -16q-59 0 -144 39.5t-151 103.5t-66 123z" />
<glyph unicode="&#xfa;" horiz-adv-x="1122" d="M66 260q0 170 78.5 413t150.5 365q113 -5 113 -94q0 -25 -25.5 -95t-55.5 -147t-55.5 -180t-25.5 -186q0 -65 16.5 -105.5t48.5 -40.5q40 0 85 31.5t91 92t85.5 121.5t84.5 148.5t71.5 142t62.5 133t43 93.5q16 34 42.5 61.5t57.5 26.5q28 0 57.5 -40.5t26.5 -61.5 q-4 -22 -34 -105.5t-55.5 -202.5t-31.5 -268q-2 -85 12.5 -145.5t53.5 -120.5q-14 -27 -43 -47t-58 -20q-67 0 -104 56.5t-40 171.5t34 290q-256 -524 -521 -524q-80 0 -122.5 60.5t-42.5 176.5zM512 1237q116 63 182 133.5t131 183.5q54 3 93.5 -23.5t35.5 -66.5 q-5 -59 -77.5 -123t-165 -103.5t-158.5 -39.5q-19 0 -30 11.5t-11 27.5z" />
<glyph unicode="&#xfb;" horiz-adv-x="1122" d="M66 260q0 170 78.5 413t150.5 365q113 -5 113 -94q0 -25 -25.5 -95t-55.5 -147t-55.5 -180t-25.5 -186q0 -65 16.5 -105.5t48.5 -40.5q40 0 85 31.5t91 92t85.5 121.5t84.5 148.5t71.5 142t62.5 133t43 93.5q16 34 42.5 61.5t57.5 26.5q28 0 57.5 -40.5t26.5 -61.5 q-4 -22 -34 -105.5t-55.5 -202.5t-31.5 -268q-2 -85 12.5 -145.5t53.5 -120.5q-14 -27 -43 -47t-58 -20q-67 0 -104 56.5t-40 171.5t34 290q-256 -524 -521 -524q-80 0 -122.5 60.5t-42.5 176.5zM356 1223q4 14 37 34q89 47 180 125t144 142q12 15 32.5 16t28.5 -16 q46 -70 120 -168t126 -148q-22 -43 -63 -43q-39 -2 -87 32t-83.5 76t-67.5 91q-122 -122 -240 -166q-93 -25 -110 -6q-21 17 -17 31z" />
<glyph unicode="&#xfc;" horiz-adv-x="1122" d="M66 260q0 170 78.5 413t150.5 365q113 -5 113 -94q0 -25 -25.5 -95t-55.5 -147t-55.5 -180t-25.5 -186q0 -65 16.5 -105.5t48.5 -40.5q40 0 85 31.5t91 92t85.5 121.5t84.5 148.5t71.5 142t62.5 133t43 93.5q16 34 42.5 61.5t57.5 26.5q28 0 57.5 -40.5t26.5 -61.5 q-4 -22 -34 -105.5t-55.5 -202.5t-31.5 -268q-2 -85 12.5 -145.5t53.5 -120.5q-14 -27 -43 -47t-58 -20q-67 0 -104 56.5t-40 171.5t34 290q-256 -524 -521 -524q-80 0 -122.5 60.5t-42.5 176.5zM399 1307q0 47 13 79t36.5 46.5t46 20t52.5 5.5q44 0 64 -26t20 -66 q0 -55 -43.5 -111.5t-102.5 -56.5q-86 0 -86 109zM788 1309q0 88 44.5 127t105.5 39q40 0 61 -28.5t21 -66.5q0 -55 -43.5 -108t-114.5 -53q-30 0 -52 25.5t-22 64.5z" />
<glyph unicode="&#xfd;" horiz-adv-x="1163" d="M-111 -289q0 30 18.5 50t47.5 20q35 0 93 -26.5t127 -53.5t130 -27q67 0 125 22t102.5 59t82.5 95.5t65.5 120t52.5 145t42 158.5t36 172q-104 -186 -261 -319t-278 -133q-88 0 -132 84t-44 223q0 142 38.5 313.5t106 299.5t138.5 128q41 0 58.5 -17t15.5 -48 q-2 -22 -25 -78q-71 -158 -119.5 -339t-48.5 -314q0 -103 49 -103q95 0 213 118.5t222 310t163 399.5q13 47 49 47q32 0 55 -50t23 -96q0 -164 -98 -593q-22 -94 -43 -167.5t-52 -154.5t-66 -140.5t-84.5 -116t-107 -92t-134 -56.5t-166.5 -21q-83 0 -172.5 21.5 t-155.5 64.5t-66 94zM543 1237q116 63 182 133.5t131 183.5q54 3 93.5 -23.5t35.5 -66.5q-5 -59 -77.5 -123t-165 -103.5t-158.5 -39.5q-19 0 -30 11.5t-11 27.5z" />
<glyph unicode="&#xfe;" horiz-adv-x="1019" d="M-45 -428q0 46 20 168q39 231 138.5 744t132.5 663q67 311 139 358q34 21 59 21q49 0 52 -45q5 -75 -74 -353l-78 -292q69 73 173 120.5t204 47.5q235 0 235 -299q0 -121 -36 -233t-94.5 -195t-132 -146t-151 -95t-147.5 -32q-130 0 -200 82l-9 -51l-82 -492 q-5 -18 -36.5 -26.5t-61.5 -8.5q-51 0 -51 64zM229 279q24 -69 74.5 -111.5t114.5 -42.5q51 0 113 41.5t118.5 111.5t94.5 176.5t38 221.5q0 90 -26 142t-97 52q-91 0 -203 -71.5t-165 -167.5l-2 -4v2z" />
<glyph unicode="&#xff;" horiz-adv-x="1163" d="M-111 -289q0 30 18.5 50t47.5 20q35 0 93 -26.5t127 -53.5t130 -27q67 0 125 22t102.5 59t82.5 95.5t65.5 120t52.5 145t42 158.5t36 172q-104 -186 -261 -319t-278 -133q-88 0 -132 84t-44 223q0 142 38.5 313.5t106 299.5t138.5 128q41 0 58.5 -17t15.5 -48 q-2 -22 -25 -78q-71 -158 -119.5 -339t-48.5 -314q0 -103 49 -103q95 0 213 118.5t222 310t163 399.5q13 47 49 47q32 0 55 -50t23 -96q0 -164 -98 -593q-22 -94 -43 -167.5t-52 -154.5t-66 -140.5t-84.5 -116t-107 -92t-134 -56.5t-166.5 -21q-83 0 -172.5 21.5 t-155.5 64.5t-66 94zM430 1307q0 47 13 79t36.5 46.5t46 20t52.5 5.5q44 0 64 -26t20 -66q0 -55 -43.5 -111.5t-102.5 -56.5q-86 0 -86 109zM819 1309q0 88 44.5 127t105.5 39q40 0 61 -28.5t21 -66.5q0 -55 -43.5 -108t-114.5 -53q-30 0 -52 25.5t-22 64.5z" />
<glyph unicode="&#x152;" horiz-adv-x="1927" d="M88 467q0 145 34.5 287t101 264.5t156 217t208 148.5t248.5 54q126 0 210.5 -62.5t120.5 -173.5q73 92 164 139q74 41 176.5 60.5t153.5 19.5q82 0 138 -13t81 -35.5t34 -45.5t7 -51q-3 -65 -53 -94q-30 34 -93.5 52.5t-142.5 18.5q-92 0 -160.5 -19t-114 -51t-80 -88.5 t-55.5 -116t-44 -149.5l-31 -116q32 3 139 10t156.5 12t130.5 20t145 36q34 -26 31 -70q-2 -45 -49 -70.5t-124 -33t-157 -9.5t-168 -6.5t-137 -17.5l-33 -123q-33 -121 -32.5 -194.5t40.5 -105.5t132 -32q112 0 313.5 39t212.5 39q42 0 39 -60q-2 -42 -74 -77t-173 -54.5 t-194 -30t-155 -10.5q-210 0 -287 74q-42 42 -39 162q-202 -209 -438 -209q-75 0 -135 29t-97.5 75.5t-62 109.5t-34 124.5t-9.5 126.5zM274 459q0 -160 43.5 -237t131.5 -77q139 0 275.5 134t221 338.5t84.5 402.5q0 55 -9 97.5t-30 77t-60 53t-95 18.5q-104 0 -197 -52.5 t-158 -137.5t-113 -191.5t-71 -216t-23 -209.5z" />
<glyph unicode="&#x153;" horiz-adv-x="1654" d="M12 324q0 132 47 262.5t125 231.5t188 163.5t228 62.5q110 0 185 -52t106 -148q94 90 212.5 140t237.5 50q106 0 169 -55t63 -141q0 -129 -104.5 -236t-268 -161t-336.5 -42v-37q0 -100 66.5 -160.5t154.5 -60.5q116 0 213 52.5t193 168.5q18 -3 27.5 -19.5t5.5 -41.5 q-10 -50 -52 -102.5t-108 -97t-160.5 -73t-197.5 -28.5q-42 0 -85 10t-88 32.5t-82 65.5t-57 101q-85 -90 -188 -141.5t-213 -51.5q-130 0 -205.5 83.5t-75.5 224.5zM193 332q0 -185 137 -185q121 0 231 105t168 250q41 96 41 186q0 89 -44 146t-130 57q-92 0 -171.5 -59 t-128 -146.5t-76 -181.5t-27.5 -172zM877 494q106 -4 205.5 25.5t166.5 77.5t107.5 106.5t40.5 111.5q0 98 -97 98q-143 0 -265 -117t-158 -302z" />
<glyph unicode="&#x178;" horiz-adv-x="1198" d="M94 139q0 48 25.5 70t66.5 22q24 0 47 -13.5t46 -33.5t50 -39.5t70 -33.5t95 -15q47 -1 90.5 17t79.5 48.5t70 78t61 98t53 118t45.5 128t39.5 137t34 137t30 135.5q-57 -117 -114.5 -204t-107 -139t-102 -83t-94.5 -42t-87 -11q-125 0 -199 103.5t-74 285.5 q0 124 32.5 252t80.5 227q33 68 74 96.5t79 28.5q54 0 76 -34q-80 -115 -119 -264.5t-39 -278.5q0 -279 129 -279q58 0 122.5 48t119 121t107 164.5t89.5 173t62 153.5l35 98q10 30 33.5 44.5t52.5 12.5q38 -3 60.5 -27.5t15.5 -60.5l-127 -567q-25 -112 -44 -186.5 t-51 -172.5t-65 -161.5t-83.5 -132.5t-109.5 -108.5t-139 -65t-176 -25.5q-126 0 -233 55.5t-107 124.5zM557 1726q0 47 13 79t36.5 47t46.5 20.5t52 5.5q44 0 63.5 -26t19.5 -66q0 -55 -43 -111.5t-102 -56.5q-86 0 -86 108zM946 1729q0 88 44.5 126.5t105.5 38.5 q40 0 61 -28t21 -66q0 -55 -43.5 -108.5t-114.5 -53.5q-30 0 -52 26t-22 65z" />
<glyph unicode="&#x2c6;" d="M139 1223q4 14 37 34q89 47 180 125t144 142q12 15 32.5 16t28.5 -16q46 -70 120 -168t126 -148q-21 -43 -64 -43q-56 -3 -120.5 58t-116.5 141q-122 -122 -240 -166q-93 -25 -110 -6q-21 17 -17 31z" />
<glyph unicode="&#x2dc;" d="M207 1292q0 76 55 124t131 48q44 0 87 -20t71 -43.5t60 -43.5t57 -20q53 0 80.5 35.5t29.5 95.5q64 -18 64 -90q0 -50 -22 -85.5t-54.5 -51.5t-58 -22.5t-45.5 -6.5q-43 0 -82 18.5t-64 41t-58 41t-65 18.5q-40 0 -70.5 -33t-48.5 -92q-67 15 -67 86z" />
<glyph unicode="&#x2000;" horiz-adv-x="1004" />
<glyph unicode="&#x2001;" horiz-adv-x="2009" />
<glyph unicode="&#x2002;" horiz-adv-x="1004" />
<glyph unicode="&#x2003;" horiz-adv-x="2009" />
<glyph unicode="&#x2004;" horiz-adv-x="669" />
<glyph unicode="&#x2005;" horiz-adv-x="502" />
<glyph unicode="&#x2006;" horiz-adv-x="334" />
<glyph unicode="&#x2007;" horiz-adv-x="334" />
<glyph unicode="&#x2008;" horiz-adv-x="251" />
<glyph unicode="&#x2009;" horiz-adv-x="401" />
<glyph unicode="&#x200a;" horiz-adv-x="111" />
<glyph unicode="&#x2010;" horiz-adv-x="714" d="M61 498q2 88 160 88q35 0 105.5 -6.5t76.5 -6.5q83 -8 232 13q24 -9 24 -41q0 -48 -73 -72q-50 -17 -165.5 -26t-203.5 -9q-30 0 -51.5 1.5t-49 7t-42 18.5t-13.5 33z" />
<glyph unicode="&#x2011;" horiz-adv-x="714" d="M61 498q2 88 160 88q35 0 105.5 -6.5t76.5 -6.5q83 -8 232 13q24 -9 24 -41q0 -48 -73 -72q-50 -17 -165.5 -26t-203.5 -9q-30 0 -51.5 1.5t-49 7t-42 18.5t-13.5 33z" />
<glyph unicode="&#x2012;" horiz-adv-x="714" d="M61 498q2 88 160 88q35 0 105.5 -6.5t76.5 -6.5q83 -8 232 13q24 -9 24 -41q0 -48 -73 -72q-50 -17 -165.5 -26t-203.5 -9q-30 0 -51.5 1.5t-49 7t-42 18.5t-13.5 33z" />
<glyph unicode="&#x2013;" horiz-adv-x="1144" d="M61 487q0 19 3 33t10.5 23t13.5 15t17.5 9t17 4.5t18 2.5t15.5 1q114 12 271.5 12t246.5 -9q151 -14 299 0q39 1 63 -2.5t34 -14t12.5 -19.5t2.5 -26q0 -47 -37.5 -64t-99.5 -6q-69 11 -231 15l-209 6q-185 6 -356 -37q-91 -22 -91 57z" />
<glyph unicode="&#x2014;" horiz-adv-x="1761" d="M20 498q0 94 156 94q104 0 182 -4q403 -10 691 -15q57 -1 153 -2.5t154 -2t141 0t158 4.5q29 1 47.5 -3.5t26.5 -16t10 -21.5t2 -26q0 -47 -64.5 -64t-165.5 -6q-164 15 -391 15h-350q-111 0 -312 -14.5t-286 -16.5q-152 -3 -152 78z" />
<glyph unicode="&#x2018;" horiz-adv-x="389" d="M176 1122q0 137 74 239.5t174 125.5q40 9 74.5 -8.5t33.5 -51.5q-179 -46 -188 -167q-7 -87 62 -175q11 -11 4 -34q-10 -32 -41.5 -59t-73.5 -27q-56 0 -87.5 44t-31.5 113z" />
<glyph unicode="&#x2019;" horiz-adv-x="389" d="M53 1028q180 46 189 168q7 86 -62 174q-11 11 -4 35q10 32 41.5 59t73.5 27q56 0 87.5 -44t31.5 -114q0 -137 -74 -239t-174 -125q-40 -9 -75 8t-34 51z" />
<glyph unicode="&#x201a;" horiz-adv-x="407" d="M-23 -236q53 17 88.5 40.5t50.5 49.5t20 46.5t5 44.5q0 89 -73 170q-10 11 -7 35q9 33 38 62t71 32q56 3 90 -39t39 -111q9 -137 -54 -244.5t-155 -136.5q-40 -13 -76 2t-37 49z" />
<glyph unicode="&#x201c;" horiz-adv-x="618" d="M137 1176q0 124 60 215t151 120q27 9 55.5 10.5t49.5 -8.5t20 -32q-159 -51 -168 -189q-7 -81 41 -153q10 -15 4 -35q-11 -32 -41.5 -59t-72.5 -27q-46 0 -72.5 44.5t-26.5 113.5zM424 1176q0 129 61 219t146 112q27 3 51.5 3.5t41 -7t15.5 -22.5q-138 -45 -147 -168 q-3 -84 41 -174q8 -20 4 -35q-10 -32 -41.5 -59t-73.5 -27q-46 0 -72 44t-26 114z" />
<glyph unicode="&#x201d;" horiz-adv-x="659" d="M115 1028q138 45 147 168q3 84 -41 174q-8 20 -4 35q10 32 41.5 59t73.5 27q46 0 72 -44t26 -114q0 -129 -61 -219.5t-146 -112.5q-27 -3 -51 -3t-41 7.5t-16 22.5zM401 1069q159 51 168 188q7 82 -41 154q-10 15 -4 35q10 32 41.5 59t73.5 27q46 0 72 -44t26 -114 q0 -124 -60 -215.5t-151 -120.5q-27 -9 -55.5 -10t-49.5 9t-20 32z" />
<glyph unicode="&#x201e;" horiz-adv-x="638" d="M-20 -227q117 45 126 168q3 86 -40 174q-9 21 -5 35q10 32 41.5 59t73.5 27q60 0 79 -39t19 -119q0 -129 -55 -220t-131 -112q-27 -3 -51 -3t-41 7.5t-16 22.5zM246 -248q151 50 160 189q4 86 -33 153q-10 15 -4 35q11 32 41.5 59t72.5 27t66 -44.5t24 -113.5 q0 -124 -57.5 -215.5t-144.5 -120.5q-27 -9 -55.5 -10t-49.5 9t-20 32z" />
<glyph unicode="&#x2022;" horiz-adv-x="518" d="M45 520q0 38 11.5 74.5t35.5 69.5t67.5 53t100.5 20q72 0 126 -51t54 -143q0 -81 -55.5 -149t-142.5 -68q-88 0 -142.5 53.5t-54.5 140.5z" />
<glyph unicode="&#x2026;" horiz-adv-x="1349" d="M-2 96q0 50 32 84.5t95 34.5q49 0 78.5 -27t29.5 -71q0 -18 -5 -37t-17.5 -41.5t-40.5 -36.5t-68 -14q-45 0 -74.5 36t-29.5 72zM508 104q0 49 30.5 82t92.5 33q47 0 75.5 -27t28.5 -71q0 -18 -4 -37t-13 -41.5t-29.5 -36.5t-49.5 -14q-60 0 -95.5 31.5t-35.5 80.5z M1004 117q0 55 29 92t87 37q45 0 73 -29.5t28 -77.5q0 -20 -4 -40.5t-14 -44.5t-32 -39t-53 -15q-53 0 -83.5 33t-30.5 84z" />
<glyph unicode="&#x202f;" horiz-adv-x="401" />
<glyph unicode="&#x2039;" horiz-adv-x="860" d="M104 520q0 61 47.5 102.5t139.5 82.5q42 18 109.5 45t101.5 42.5t80.5 41t82.5 58.5t72 79q78 -55 35 -136.5t-164 -136.5q-24 -11 -157 -60t-193 -89q48 -18 91.5 -40.5t70 -39t76.5 -49.5q61 -42 84 -58.5t52.5 -43t38.5 -46.5t9 -45q0 -31 -22.5 -52t-57.5 -21 q-32 0 -69.5 23t-67.5 59q-50 60 -101 101t-87 60.5t-127 62.5q-20 10 -31 15q-13 21 -13 45z" />
<glyph unicode="&#x203a;" horiz-adv-x="901" d="M111 213.5q11 53.5 59 104.5t117 85q37 18 113 47.5t130 56t86 58.5q-75 20 -129 50.5t-137 99.5q-98 82 -149 174q8 26 32.5 42.5t59.5 16.5q70 0 139 -82q93 -112 161.5 -158t188.5 -73q13 -21 13 -45q0 -119 -191 -193q-163 -63 -268 -124t-197 -160q-39 47 -28 100.5 z" />
<glyph unicode="&#x205f;" horiz-adv-x="502" />
<glyph unicode="&#x20ac;" horiz-adv-x="1384" d="M41 793q2 30 28.5 48t65.5 5q132 -34 221 -45q64 181 193.5 325t290.5 219.5t319 69.5q197 -9 191 -164q-2 -44 -29.5 -108t-73 -115t-88.5 -49q-57 3 -57 82q2 35 20 70.5t36 57.5t61 71q-41 8 -99 8q-184 1 -353 -134t-251 -348q125 -5 216 10.5t200 63.5 q15 -52 -12 -89.5t-91 -58.5t-150.5 -29.5t-197.5 -6.5q-19 -87 -22 -174q195 -6 387 41q104 24 104 -37q0 -59 -155 -80q-149 -23 -332 -25q14 -140 86.5 -211t218.5 -71q138 0 245.5 56t172.5 159q71 3 71 -70q0 -42 -37 -88t-99.5 -84.5t-157.5 -64t-199 -25.5 q-220 0 -332 99t-129 311q-102 13 -223 49q-4 14 -4 41q2 33 20 49.5t45 7.5q117 -34 160 -41q3 79 23 172q-166 24 -275 70q-8 13 -8 33z" />
<glyph unicode="&#x2122;" horiz-adv-x="1241" d="M141 1362q0 54 110 94.5t232.5 57t216.5 16.5q115 0 115 -49q0 -13 -17 -22.5t-48.5 -16t-62.5 -10.5t-73.5 -9.5t-66.5 -9.5q-35 -93 -51 -182q-50 -231 -50 -379q-11 -14 -32.5 -22.5t-36.5 -8.5q-58 0 -51 68q1 31 42 224.5t42 279.5q-39 -7 -111.5 -34t-112.5 -36 q-45 -11 -45 39zM547 922q0 20 26.5 58t78.5 102t77 98q94 127 129 190q49 86 71 109.5t56 23.5q10 0 20.5 -7.5t10.5 -20.5q0 -32 -40.5 -185.5t-51.5 -277.5q18 28 49 77.5t57 89.5t51 76q85 131 138 131q19 0 26.5 -14.5t7.5 -28.5q0 -22 -11.5 -106.5t-10.5 -138.5 q5 -138 39 -246q-15 -10 -43 -10q-42 -1 -68 49t-29 129q-3 55 3 143q-20 -27 -37 -52t-43.5 -68.5t-38.5 -61.5q-13 -23 -29.5 -47t-44 -53t-45.5 -29q-74 0 -74 119q0 115 39 252q-72 -126 -150 -243.5t-102 -117.5q-25 0 -43 17.5t-18 42.5z" />
<glyph unicode="&#x25fc;" horiz-adv-x="1044" d="M0 0v1044h1044v-1044h-1044z" />
</font>
</defs>
</svg>
