<?xml version="1.0" standalone="no"?>
<!DOCTYPE svg PUBLIC "-//W3C//DTD SVG 1.1//EN" "http://www.w3.org/Graphics/SVG/1.1/DTD/svg11.dtd">
<svg xmlns="http://www.w3.org/2000/svg">
<metadata>Generated by Fontastic.me</metadata>
<defs>
<font id="telefonica" horiz-adv-x="512">
<font-face font-family="telefonica" units-per-em="512" ascent="480" descent="-32"/>
<missing-glyph horiz-adv-x="512" />

<glyph glyph-name="arrow-down" unicode="&#57344;" d="M46 319c17-18 181-195 181-195 9-10 21-14 33-14 11 0 23 4 32 14 0 0 171 189 187 206 17 17 39 42 21 60-18 19-43-3-65-23l-175-146-181 150c-22 20-51 43-69 24-18-18 19-59 36-76z"/>
<glyph glyph-name="arrow-left" unicode="&#57345;" d="M319 466c-18-17-195-181-195-181-10-9-14-21-14-33 0-11 4-23 14-32 0 0 189-170 206-187 17-17 42-39 60-21 19 18-3 43-23 65l-146 175 150 181c20 22 43 51 24 69-18 18-59-19-76-36z"/>
<glyph glyph-name="arrow-right" unicode="&#57346;" d="M193 46c18 17 195 181 195 181 10 9 14 21 14 33 0 11-4 23-14 32 0 0-189 171-206 187-17 17-42 39-60 21-19-18 3-43 23-65l146-175-150-181c-20-22-43-51-25-69 19-18 60 19 77 36z"/>
<glyph glyph-name="arrow-up" unicode="&#57347;" d="M466 193c-17 18-181 195-181 195-9 10-21 14-33 14-11 0-23-4-32-14 0 0-171-189-187-206-17-17-39-42-21-60 18-19 43 3 65 23l175 146 181-150c22-20 51-43 69-25 18 19-19 60-36 77z"/>
<glyph glyph-name="global-connectivity" unicode="&#57348;" d="M309 268c-4 0-9 1-12 5-3 3-5 8-5 12l0 21-46 0c-5 0-10 4-10 9 0 6 5 10 10 10l56 0c5 0 9-4 9-10l0-25 49 49c0 0 0 0 1 0 1 2 2 3 2 5 0 2-1 4-2 5l-50 50 1-26c0-5-5-10-10-10l-37 0c-5 0-10 5-10 10 0 5 5 10 10 10l27 0 0 19c0 6 2 10 5 14 7 6 18 6 25 0l52-53c6-5 8-12 8-19 0-7-2-13-7-18 0-1 0-1-1-1l-52-52c-3-4-8-5-13-5z m118 86c-5 0-9 1-12 5l-53 52c-5 5-8 12-8 19 0 7 3 14 8 19l52 52c4 4 8 5 13 5 5 0 9-2 12-5 4-3 5-7 5-12l0-21 49 0c5 0 9-4 9-9 0-6-4-10-9-10l-58 0c-6 0-10 4-10 10l0 25-49-49c-2-2-2-3-2-5 0-2 0-4 2-5 0 0 0-1 1-1l48-49 0 27c0 5 4 9 9 9l37 0c6 0 10-4 10-9 0-6-4-10-10-10l-27 0 0-20c0-6-2-10-5-13-3-4-7-5-12-5z m-214-348c-47 0-94 15-132 47-5 4-9 7-13 11-1 1-3 3-5 4-1 1-2 3-4 5-69 76-74 193-7 274 43 52 108 80 175 75 8 0 15-7 14-15-1-8-8-14-16-14-51 4-101-15-138-51 0 0 0-1-1-1-5-8 5-42 34-85 7 9 15 18 23 27 14 13 28 25 44 36 6 4 15 3 20-4 5-6 3-16-4-20-14-10-27-21-39-33-10-10-19-20-27-31 12-16 27-32 44-49 16-16 32-30 47-42 10 8 21 17 31 27 19 20 36 43 50 68 4 8 13 10 20 6 7-4 10-13 6-20-15-28-34-53-56-75-8-8-17-16-26-23 43-28 78-38 86-36 4 5 8 9 12 13 38 47 51 109 33 167-3 8 2 16 10 18 7 3 16-2 18-9 20-68 6-140-38-194-4-5-9-10-13-14-1-1-1-1-1-1-1-1-2-2-2-2-39-39-92-59-145-59z m-91 54c59-35 131-33 187 3-11 3-23 8-33 13-16 8-32 18-48 28-36-23-74-39-106-44z m-36 27c14-5 64 4 117 36-15 12-29 25-43 38-14 15-28 30-40 45-33-52-43-101-37-115 1-1 2-3 3-4z m-25 222c-35-56-36-125-5-181 6 31 22 68 46 103-20 28-34 55-41 78z"/>
<glyph glyph-name="innovation" unicode="&#57349;" d="M400 289c-12 0-23 3-33 7-5 3-7 8-5 13 2 5 8 7 12 5 16-7 35-7 51 0 5 2 10 0 13-5 2-5 0-10-5-13-10-4-22-7-33-7z m0 34c-11 0-23 2-33 7-4 1-6 4-6 8l0 4c0 6 5 10 10 10 4 0 8-3 9-7 13-4 27-4 39 0l0 18c0 4 3 7 6 9 22 9 36 31 36 55 0 33-27 61-61 61-33 0-60-28-60-61 0-17 7-34 20-46 4-3 5-9 1-13-3-4-9-5-13-1-17 15-27 37-27 60 0 44 35 79 79 79 44 0 80-35 80-79 0-29-16-56-41-70l0-18c0 0 0-1 0-1 0-4-3-7-6-8-11-5-22-7-33-7z m22-317l-375 0c-8 0-15 6-15 14 0 62 28 120 77 158 6 5 15 4 20-2 5-7 4-16-3-20-38-30-61-74-65-122l346 0c-4 48-27 91-65 122-7 4-8 13-3 20 5 6 14 7 20 2 49-38 77-96 77-158 0-8-6-14-14-14z m-188 187c-64 0-117 52-118 117-1 65 51 119 116 120 19 1 39-4 56-13 7-4 10-12 6-19-3-7-12-10-19-6-13 6-28 10-42 10-50-1-90-42-89-92 1-49 41-88 90-88 1 0 1 0 2 0 36 1 69 23 82 58 3 7 11 11 18 8 8-3 11-11 9-19-18-45-61-75-109-76-1 0-1 0-2 0z"/>
<glyph glyph-name="office-large" unicode="&#57350;" d="M390 6l-26 0c-17 0-32 13-32 28l0 60c0 0-1 1-2 1l-33 0c-1 0-2-1-2-1l0-60c0-16-14-28-32-28l-140 0c-18 0-32 13-32 28 0 8 7 14 15 14 7 0 13-5 14-12 1-1 2-1 3-1l141 0c1 0 1 0 2 1l0 60c0 15 14 28 31 28l34 0c17 0 31-13 31-28l0-60c0-1 1-1 2-1l26 0c1 0 2 0 2 1l0 336c0 5-1 8-7 10l-262 91c-1 0-1 0-1 0-1-1-2-3-2-3l0-391c0-8-6-14-14-14-8 0-15 6-15 14l0 391c0 9 4 18 12 24 7 6 16 9 25 8 1 0 2 0 3-1l263-91c1 0 1-1 1-1 17-7 26-19 26-37l0-338c0-15-14-28-31-28z m-28 28z m-30 62z m6 49l-47 0c-14 0-25 9-25 20l0 21c0 12 11 21 25 21l47 0c14 0 25-9 25-21l0-21c0-11-11-20-25-20z m-52 21c0-1 2-2 5-2l47 0c3 0 5 1 5 2l0 20c0 0-2 2-5 2l-47 0c-3 0-5-2-5-2z m-69-21l-47 0c-14 0-25 9-25 20l0 21c0 12 11 21 25 21l47 0c14 0 25-9 25-21l0-21c0-11-11-20-25-20z m-52 21c0-1 2-2 5-2l47 0c3 0 5 1 5 2l0 20c0 0-2 2-5 2l-47 0c-3 0-5-2-5-2z m173 62l-47 0c-14 0-25 9-25 21l0 20c0 12 11 21 25 21l47 0c14 0 25-9 25-21l0-20c0-12-11-21-25-21z m-52 21c0-1 2-2 5-2l47 0c3 0 5 1 5 2l0 20c0 0-2 2-5 2l-47 0c-3 0-5-2-5-2z m-69-21l-47 0c-14 0-25 9-25 21l0 20c0 12 11 21 25 21l47 0c14 0 25-9 25-21l0-20c0-12-11-21-25-21z m-52 21c0-1 2-2 5-2l47 0c3 0 5 1 5 2l0 20c0 0-2 2-5 2l-47 0c-3 0-5-2-5-2z m173 62l-47 0c-14 0-25 9-25 21l0 21c0 11 11 21 25 21l47 0c14 0 25-10 25-21l0-21c0-12-11-21-25-21z m-52 21c0 0 2-1 5-1l47 0c3 0 5 1 5 1l0 20c0 1-2 2-5 2l-47 0c-3 0-5-1-5-2z m-69-21l-47 0c-14 0-25 9-25 21l0 21c0 11 11 21 25 21l47 0c14 0 25-10 25-21l0-21c0-12-11-21-25-21z m-52 21c0 0 2-1 5-1l47 0c3 0 5 1 5 1l0 20c0 1-2 2-5 2l-47 0c-3 0-5-1-5-2z m52-270l-47 0c-14 0-25 9-25 21l0 21c0 12 11 21 25 21l47 0c14 0 25-9 25-21l0-21c0-12-11-21-25-21z m-52 21c0 0 2-1 5-1l47 0c3 0 5 1 5 1l0 20c0 1-2 2-5 2l-47 0c-3 0-5-1-5-2z"/>
<glyph glyph-name="youtube-play" unicode="&#57351;" d="M366 256c0 7-3 12-9 15l-146 92c-6 4-12 4-19 0-6-3-9-8-9-16l0-182c0-8 3-13 9-16 3-2 6-3 9-3 4 0 7 1 10 3l146 92c6 3 9 8 9 15z m146 0c0-18 0-33 0-43 0-10-1-23-3-39-1-16-3-30-6-42-3-14-10-26-20-35-10-10-22-15-35-17-43-4-106-7-192-7-86 0-149 3-192 7-13 2-25 7-35 17-10 9-17 21-20 35-3 12-5 26-6 42-2 16-3 29-3 39 0 10 0 25 0 43 0 18 0 33 0 43 0 10 1 23 3 39 1 16 3 30 6 42 3 14 10 26 20 35 10 10 22 15 35 17 43 4 106 7 192 7 86 0 149-3 192-7 13-2 25-7 35-17 10-9 17-21 20-35 3-12 5-26 6-42 2-16 3-29 3-39 0-10 0-25 0-43z"/>
<glyph glyph-name="twitter" unicode="&#57352;" d="M481 395c-13-18-28-34-46-47 0-3 0-7 0-12 0-25-3-50-11-74-7-25-18-49-33-71-14-23-32-43-52-61-21-17-45-31-74-41-29-11-60-16-92-16-52 0-99 14-142 42 7-1 14-2 22-2 43 0 81 14 115 40-20 0-38 6-54 18-16 12-27 27-33 46 7-1 13-2 18-2 8 0 16 1 24 4-21 4-39 15-53 31-14 17-21 37-21 59l0 1c13-7 27-11 42-11-13 8-23 19-30 32-8 14-11 29-11 44 0 17 4 33 12 47 23-28 51-51 84-68 33-17 69-27 107-29-2 8-3 15-3 22 0 25 9 47 27 65 18 18 40 27 66 27 26 0 49-10 67-29 21 4 40 11 59 22-7-22-21-39-41-51 18 2 35 7 53 14z"/>
<glyph glyph-name="reply" unicode="&#57353;" d="M512 192c0-32-12-75-36-129-1-1-2-3-3-7-2-3-3-6-4-8-1-3-3-5-4-7-2-3-5-4-8-4-3 0-5 1-7 2-1 2-2 5-2 8 0 1 0 4 1 7 0 3 0 6 0 7 1 13 2 25 2 35 0 19-2 36-5 52-3 15-8 28-14 39-6 11-14 21-23 29-9 8-19 15-30 20-11 5-23 9-38 12-15 3-29 5-44 6-15 1-31 2-50 2l-64 0 0-73c0-5-2-9-6-13-3-4-7-5-12-5-5 0-10 1-13 5l-147 146c-3 4-5 8-5 13 0 5 2 9 5 13l147 146c3 4 8 6 13 6 5 0 9-2 12-6 4-3 6-8 6-13l0-73 64 0c136 0 219-38 250-115 10-25 15-57 15-95z"/>
<glyph glyph-name="retweet" unicode="&#57354;" d="M347 82c0-2 0-4-2-6-2-2-4-3-7-3l-274 0c-2 0-3 0-4 1-1 0-2 1-2 2-1 1-2 1-2 2 0 1-1 2-1 3 0 2 0 3 0 4l0 171-55 0c-5 0-9 2-13 5-3 4-5 8-5 13 0 5 1 9 4 12l91 110c4 4 9 6 14 6 6 0 11-2 14-6l92-110c3-3 4-7 4-12 0-5-2-9-5-13-4-3-8-5-13-5l-55 0 0-110 165 0c3 0 5-1 7-3l45-55c2-2 2-4 2-6z m183 119c0-4-1-8-4-12l-91-109c-4-5-9-7-14-7-6 0-11 2-14 7l-92 109c-3 4-4 8-4 12 0 5 2 9 5 13 4 4 8 5 13 5l55 0 0 110-165 0c-3 0-5 1-7 4l-45 54c-2 2-2 4-2 6 0 3 0 5 2 7 2 1 4 2 7 2l274 0c2 0 3 0 4 0 1-1 2-1 2-2 1-1 2-2 2-3 0 0 1-1 1-3 0-1 0-3 0-3l0-172 55 0c5 0 9-1 13-5 3-4 5-8 5-13z"/>
<glyph glyph-name="star" unicode="&#57355;" d="M494 327c0-4-3-9-8-14l-103-101 24-143c0-1 0-3 0-5 0-4-1-8-3-10-2-3-4-5-8-5-4 0-8 2-12 4l-128 67-128-67c-4-2-8-4-12-4-4 0-7 2-9 5-2 2-3 6-3 10 0 1 0 3 1 5l24 143-104 101c-4 6-7 10-7 14 0 7 6 12 16 13l144 21 64 130c4 8 8 12 14 12 6 0 10-4 14-12l64-130 144-21c10-1 16-6 16-13z"/>
<glyph glyph-name="facebook" unicode="&#57356;" d="M384 509l0-76-45 0c-17 0-28-3-33-10-6-7-9-17-9-31l0-54 84 0-11-85-73 0 0-216-87 0 0 216-73 0 0 85 73 0 0 62c0 36 10 63 29 83 20 19 47 29 80 29 28 0 49-1 65-3z"/>
<glyph glyph-name="linkedin" unicode="&#57357;" d="M136 333l0-283-94 0 0 283z m6 88c0-14-4-26-14-35-10-9-23-14-39-14l0 0c-16 0-29 5-38 14-10 9-14 21-14 35 0 14 4 26 14 35 10 9 23 14 39 14 16 0 28-5 38-14 9-9 14-21 14-35z m333-208l0-163-94 0 0 152c0 20-3 35-11 47-8 11-20 17-36 17-12 0-22-4-30-10-9-7-15-15-19-25-2-5-3-13-3-23l0-158-94 0c1 76 1 138 1 185 0 47 0 76 0 85l-1 13 94 0 0-41 0 0c4 6 7 12 11 16 4 5 10 10 17 15 6 5 15 10 24 13 10 3 21 4 33 4 33 0 59-11 79-32 20-22 29-54 29-95z"/>
<glyph glyph-name="home" unicode="&#57358;" d="M3 503l507 0 0-493-507 0z m395-493l-51 0c-25 0-45 20-45 44l0 151c0 6-5 11-11 11l-71 0c-6 0-11-5-11-11l0-151c0-24-20-44-45-44l-50 0c-25 0-44 20-44 44l0 151c0 6-5 11-11 11l-12 0c-25 0-44 20-44 44 0 11 4 21 11 29 0 1 1 1 1 1 0 1 0 1 0 1 1 0 1 0 1 0l190 191c14 13 31 20 50 20 19 0 36-7 49-20l191-190c0-1 0-1 1-1 8-8 13-20 13-31 0-24-20-44-44-44l-12 0c-6 0-11-5-11-11l0-87c0-10-8-17-17-17-9 0-16 7-16 17l0 87c0 24 19 44 44 44l12 0c6 0 11 5 11 11 0 3-2 5-3 7 0 0-1 0-1 1l-191 191c-14 14-38 14-51 0l-192-192c-1-2-2-4-2-7 0-6 4-11 10-11l12 0c25 0 45-20 45-44l0-151c0-6 5-11 11-11l50 0c6 0 11 5 11 11l0 151c0 25 20 45 45 45l71 0c24 0 44-20 44-45l0-150c0-7 5-11 11-11l52 0c6 0 11 4 11 11 0 9 7 16 16 16 9 0 17-7 17-16-1-25-20-45-45-45z"/>
<glyph glyph-name="home-2" unicode="&#57360;" d="M398 10l-51 0c-25 0-45 20-45 44l0 151c0 6-5 11-11 11l-71 0c-6 0-11-5-11-11l0-151c0-24-20-44-45-44l-50 0c-25 0-44 20-44 44l0 151c0 6-5 11-11 11l-12 0c-25 0-44 20-44 44 0 11 4 21 11 29 0 1 1 1 1 1 0 1 0 1 0 1 1 0 1 0 1 0l190 191c14 13 31 20 50 20 19 0 36-7 49-20l191-190c0-1 0-1 1-1 8-8 13-20 13-31 0-24-20-44-44-44l-12 0c-6 0-11-5-11-11l0-87c0-10-8-17-17-17-9 0-16 7-16 17l0 87c0 24 19 44 44 44l12 0c6 0 11 5 11 11 0 3-2 5-3 7 0 0-1 0-1 1l-191 191c-14 14-38 14-51 0l-192-192c-1-2-2-4-2-7 0-6 4-11 10-11l12 0c25 0 45-20 45-44l0-151c0-6 5-11 11-11l50 0c6 0 11 5 11 11l0 151c0 25 20 45 45 45l71 0c24 0 44-20 44-45l0-150c0-7 5-11 11-11l52 0c6 0 11 4 11 11 0 9 7 16 16 16 9 0 17-7 17-16-1-25-20-45-45-45z"/>
<glyph glyph-name="search" unicode="&#57359;" d="M71 5c-8 0-16 2-22 8l-36 37c-7 6-11 15-11 25 0 9 4 18 11 25l184 184c-24 61-10 132 35 178 31 31 72 48 115 48 43 0 84-17 115-48 63-63 63-166 0-229-50-49-125-62-187-31-7 4-11 13-7 21 4 7 13 10 21 7 50-25 111-15 151 25 51 51 51 134 0 186-25 25-58 38-93 38-35 0-68-13-93-38-39-40-49-102-25-153 3-6 2-13-2-18l-193-192c-1-1-1-2-1-3 0-1 0-2 1-3l37-37c1 0 9 2 12 5l147 147c6 6 16 6 22 0 6-6 6-15 0-21l-148-147c-7-8-20-14-33-14z"/>
<glyph glyph-name="language" unicode="&#57361;" d="M402 441l11 0-11 0c-1 0-1 0 0 0z m54-60l11 0-11 0c0 0 0 0 0 0z m36-141c-10 2-19-5-20-15-13-87-78-157-160-179 33 46 63 125 63 210 0 128-68 253-119 253 0 0 0 0-1 0-139 0-253-113-253-253 0-140 114-254 254-254 125 0 233 94 251 218 1 10-6 19-15 20z m-236-202c-17 7-74 88-80 200l162 0c-6-112-65-193-82-200z m82 236l-162 0c6 115 61 198 80 200 19-2 77-87 82-200z m-139 192c-30-44-55-116-58-192l-102 0c7 92 73 169 160 192z m-160-228l102 0c3-79 30-150 60-193-88 23-155 100-162 193z m417 119c13 0 24 11 24 24 0 13-11 24-24 24-13 0-24-11-24-24 0-13 11-24 24-24z m11 24l-11 0c0 0 0 0 0 0z m-4-77c0-13 11-24 24-24 13 0 24 11 24 24 0 13-11 24-24 24-13-1-24-11-24-24z m-61 113c13 0 23 11 23 24 0 13-11 24-23 24-14 0-24-11-24-24 0-13 10-24 24-24z m11 24l-11 0c0 0-1 0-1 0z"/>
<glyph glyph-name="close-circle" unicode="&#57362;" d="M154 145c-3 0-5 1-7 3-5 4-5 11 0 15l93 93-94 94c-4 4-4 11 0 15 4 4 11 4 15 0l94-93 93 93c4 4 11 4 15 0 4-4 4-11 0-15l-93-93 93-94c5-4 5-11 0-15-4-4-10-4-15 0l-93 93-93-93c-2-2-5-3-8-3z m102-145c-4 0-9 0-13 0-49 3-96 19-136 48-7 5-9 15-4 23 6 7 16 9 23 4 35-25 76-39 118-42 123-6 228 89 235 211 6 123-88 228-211 235-123 6-228-88-235-211-2-51 12-99 41-140 5-8 3-18-4-23-7-6-18-4-23 4-33 47-49 103-46 160 7 141 128 250 269 243 140-8 249-128 242-269-8-137-121-243-256-243z"/>
<glyph glyph-name="sort" unicode="&#57363;" d="M402 201c0-5-2-9-5-13l-128-128c-4-3-8-5-13-5-5 0-9 2-13 5l-128 128c-3 4-5 8-5 13 0 5 2 9 5 13 4 4 8 5 13 5l256 0c5 0 9-1 13-5 3-4 5-8 5-13z m0 110c0-5-2-9-5-13-4-4-8-5-13-5l-256 0c-5 0-9 1-13 5-3 4-5 8-5 13 0 5 2 9 5 13l128 128c4 3 8 5 13 5 5 0 9-2 13-5l128-128c3-4 5-8 5-13z"/>
<glyph glyph-name="plus" unicode="&#57364;" d="M389 282c10 0 15-9 15-26 0-17-5-26-15-26 0 0-107 0-107 0 0 0 0-107 0-107 0-10-9-15-26-15-17 0-26 5-26 15 0 0 0 107 0 107 0 0-107 0-107 0-10 0-15 9-15 26 0 17 5 26 15 26 0 0 107 0 107 0 0 0 0 107 0 107 0 10 9 15 26 15 17 0 26-5 26-15 0 0 0-107 0-107 0 0 107 0 107 0"/>
<glyph glyph-name="minus" unicode="&#57365;" d="M389 282c10 0 15-9 15-26 0-17-5-26-15-26 0 0-266 0-266 0-10 0-15 9-15 26 0 17 5 26 15 26 0 0 266 0 266 0"/>
<glyph glyph-name="close" unicode="&#57367;" d="M30 7c-6 0-13 2-17 7-9 9-9 24 0 33l209 210-210 210c-9 9-9 24 0 34 10 9 25 9 34 0l209-210 210 210c9 10 24 10 33 0 9-9 9-24 0-33l-209-210 210-210c10-9 10-24 0-34-9-9-24-9-33 0l-209 209-210-209c-5-5-11-7-17-7z"/>
<glyph glyph-name="location" unicode="&#57366;" d="M258 3c-1 0-3 0-5 1-2 1-5 3-7 5-21 21-41 40-58 56-6 6-7 16-1 22 6 7 16 7 22 1 15-14 32-30 49-47 24 23 47 45 68 64 42 39 78 73 95 101 35 57 36 122 5 177-33 59-97 96-168 96-70 0-135-37-168-96-31-55-29-120 5-177 14-23 40-49 66-73 7-6 7-16 1-23-6-6-16-6-22 0-28 26-56 54-72 80-39 67-41 143-5 209 39 68 114 111 195 111 82 0 157-43 195-111 37-66 35-142-5-209-20-32-57-67-101-108-24-22-50-46-77-74-1-1-2-1-3-2-3-2-6-3-9-3z"/>
<glyph glyph-name="location-arrow" unicode="&#57368;" d="M455 412l-183-365c-3-7-8-10-16-10-1 0-2 0-4 0-4 1-8 3-10 7-3 3-4 7-4 11l0 164-165 0c-4 0-8 2-11 4-3 3-6 6-7 10-1 5 0 9 2 12 1 4 4 7 8 9l366 183c2 1 5 2 8 2 5 0 9-2 13-6 3-2 4-6 5-9 1-4 0-8-2-12z"/>
<glyph glyph-name="calendar" unicode="&#57369;" d="M55 37l82 0 0 82-82 0z m100 0l92 0 0 82-92 0z m-100 100l82 0 0 92-82 0z m100 0l92 0 0 92-92 0z m-100 110l82 0 0 82-82 0z m210-210l92 0 0 82-92 0z m-110 210l92 0 0 82-92 0z m220-210l82 0 0 82-82 0z m-110 100l92 0 0 92-92 0z m-100 247l0 82c0 3-1 5-3 7-2 2-4 2-7 2l-18 0c-2 0-4 0-6-2-2-2-3-4-3-7l0-82c0-2 1-5 3-6 2-2 4-3 6-3l18 0c3 0 5 1 7 3 2 1 3 4 3 6z m210-247l82 0 0 92-82 0z m-110 110l92 0 0 82-92 0z m110 0l82 0 0 82-82 0z m9 137l0 82c0 3-1 5-3 7-2 2-4 2-6 2l-18 0c-3 0-5 0-7-2-2-2-3-4-3-7l0-82c0-2 1-5 3-6 2-2 4-3 7-3l18 0c2 0 4 1 6 3 2 1 3 4 3 6z m110 18l0-365c0-10-4-19-11-26-7-7-16-11-26-11l-402 0c-10 0-19 4-26 11-7 7-11 16-11 26l0 365c0 10 4 19 11 26 7 7 16 11 26 11l36 0 0 27c0 13 5 24 14 33 9 9 20 13 32 13l18 0c13 0 24-4 33-13 9-9 13-20 13-33l0-27 110 0 0 27c0 13 4 24 13 33 9 9 20 13 33 13l18 0c12 0 23-4 32-13 9-9 14-20 14-33l0-27 36 0c10 0 19-4 26-11 7-7 11-16 11-26z"/>
<glyph glyph-name="share-alt" unicode="&#57370;" d="M384 219c25 0 47-8 65-26 18-18 26-40 26-65 0-25-8-47-26-65-18-18-40-26-65-26-25 0-47 8-65 26-18 18-26 40-26 65 0 2 0 6 0 10l-103 51c-17-16-38-24-62-24-25 0-47 8-65 26-18 18-26 40-26 65 0 25 8 47 26 65 18 18 40 26 65 26 24 0 45-8 62-24l103 51c0 4 0 8 0 10 0 25 8 47 26 65 18 18 40 26 65 26 25 0 47-8 65-26 18-18 26-40 26-65 0-25-8-47-26-65-18-18-40-26-65-26-24 0-45 8-62 24l-103-51c0-4 0-8 0-10 0-2 0-6 0-10l103-51c17 16 38 24 62 24z"/>
<glyph glyph-name="map-marker" unicode="&#57371;" d="M329 329c0 20-7 38-21 52-15 14-32 21-52 21-20 0-37-7-52-21-14-14-21-32-21-52 0-20 7-37 21-52 15-14 32-21 52-21 20 0 37 7 52 21 14 15 21 32 21 52z m73 0c0-21-3-38-9-51l-104-221c-3-6-8-11-14-15-6-4-12-5-19-5-7 0-13 1-19 5-6 4-11 9-14 15l-104 221c-6 13-9 30-9 51 0 41 14 75 43 104 28 28 63 42 103 42 40 0 75-14 103-42 29-29 43-63 43-104z"/>
<glyph glyph-name="tag" unicode="&#57372;" d="M165 384c0 10-4 19-11 26-7 7-16 11-26 11-10 0-19-4-26-11-7-7-11-16-11-26 0-10 4-19 11-26 7-7 16-11 26-11 10 0 19 4 26 11 7 7 11 16 11 26z m304-165c0-10-3-18-10-25l-140-141c-8-7-17-10-26-10-11 0-19 3-26 10l-204 205c-8 7-14 16-19 29-5 12-7 23-7 33l0 119c0 10 3 18 10 26 8 7 16 10 26 10l119 0c10 0 21-2 33-7 13-5 22-11 30-19l204-204c7-7 10-16 10-26z"/>
<glyph glyph-name="quote" unicode="&#57373;" d="M223 393c-56-36-106-105-111-161 2 0 14 2 22 2 49 0 84-37 84-88 0-51-40-92-92-92-57 0-107 47-107 131 0 106 60 203 140 260z m276 0c-55-36-103-105-110-161 1 0 13 2 22 2 49 0 85-37 85-88 0-51-41-92-93-92-57 0-107 47-107 131 0 106 60 203 140 260z"/>
<glyph glyph-name="external-link" unicode="&#57374;" d="M402 247l0-92c0-22-8-42-24-58-16-16-35-24-58-24l-238 0c-22 0-42 8-58 24-16 16-24 36-24 58l0 238c0 23 8 42 24 58 16 16 36 24 58 24l201 0c3 0 5 0 7-2 2-2 3-4 3-7l0-18c0-3-1-5-3-7-2-1-4-2-7-2l-201 0c-12 0-23-5-32-14-9-9-13-19-13-32l0-238c0-12 4-23 13-32 9-9 20-13 32-13l238 0c13 0 23 4 32 13 9 9 14 20 14 32l0 92c0 3 1 5 2 6 2 2 4 3 7 3l18 0c3 0 5-1 7-3 1-1 2-3 2-6z m110 247l0-147c0-5-2-9-5-12-4-4-8-6-13-6-5 0-10 2-13 6l-50 50-187-186c-2-2-4-3-6-3-3 0-5 1-7 3l-32 32c-2 2-3 4-3 7 0 2 1 4 3 6l186 187-50 50c-4 3-6 8-6 13 0 5 2 9 6 13 3 3 7 5 12 5l147 0c5 0 9-2 13-5 3-4 5-8 5-13z"/>
<glyph glyph-name="check" unicode="&#57375;" d="M477 350c0-7-2-14-8-19l-206-207-39-39c-6-5-12-8-20-8-7 0-14 3-19 8l-142 142c-6 6-8 12-8 20 0 7 2 14 8 19l38 39c6 5 12 8 20 8 7 0 14-3 19-8l84-84 188 188c5 5 12 8 19 8 8 0 14-3 20-8l38-39c6-6 8-12 8-20z"/>
<glyph glyph-name="clone" unicode="&#57376;" d="M475 46l0 311c0 2 0 4-2 6-2 2-4 3-7 3l-311 0c-2 0-4-1-6-3-2-2-3-4-3-6l0-311c0-3 1-5 3-7 2-2 4-2 6-2l311 0c3 0 5 0 7 2 2 2 2 4 2 7z m37 311l0-311c0-13-4-24-13-33-9-9-20-13-33-13l-311 0c-12 0-23 4-32 13-9 9-13 20-13 33l0 311c0 12 4 23 13 32 9 9 20 13 32 13l311 0c13 0 24-4 33-13 9-9 13-20 13-32z m-110 109l0-45-36 0 0 45c0 3-1 5-3 7-2 2-4 2-6 2l-311 0c-3 0-5 0-7-2-2-2-2-4-2-7l0-311c0-2 0-4 2-6 2-2 4-3 7-3l45 0 0-36-45 0c-13 0-24 4-33 13-9 9-13 20-13 32l0 311c0 13 4 24 13 33 9 9 20 13 33 13l311 0c12 0 23-4 32-13 9-9 13-20 13-33z"/>
<glyph glyph-name="filter" unicode="&#57377;" d="M456 428c3-8 2-15-4-20l-141-141 0-212c0-8-4-14-11-17-3-1-5-1-7-1-6 0-10 1-13 5l-73 73c-4 4-6 8-6 13l0 139-141 141c-6 5-7 12-4 20 4 7 9 11 17 11l366 0c8 0 13-4 17-11z"/>
<glyph glyph-name="download" unicode="&#57378;" d="M384 128c0 5-2 9-5 13-4 3-8 5-13 5-5 0-10-2-13-5-4-4-6-8-6-13 0-5 2-9 6-13 3-3 8-5 13-5 5 0 9 2 13 5 3 4 5 8 5 13z m73 0c0 5-2 9-5 13-4 3-8 5-13 5-5 0-9-2-13-5-4-4-5-8-5-13 0-5 1-9 5-13 4-3 8-5 13-5 5 0 9 2 13 5 3 4 5 8 5 13z m37 64l0-91c0-8-3-15-8-20-6-5-12-8-20-8l-420 0c-8 0-14 3-20 8-5 5-8 12-8 20l0 91c0 8 3 14 8 19 6 6 12 8 20 8l133 0 38-38c11-11 24-16 39-16 15 0 28 5 39 16l39 38 132 0c8 0 14-2 20-8 5-5 8-11 8-19z m-93 163c3-8 2-15-4-20l-128-128c-4-4-8-6-13-6-5 0-9 2-13 6l-128 128c-6 5-7 12-4 20 3 7 9 11 17 11l73 0 0 128c0 5 2 9 6 13 3 3 7 5 12 5l74 0c5 0 9-2 12-5 4-4 6-8 6-13l0-128 73 0c8 0 14-4 17-11z"/>
<glyph glyph-name="business" unicode="&#57380;" d="M325 406c-8 0-14 6-14 14 0 30-25 55-55 55-30 0-55-25-55-55 0-8-6-14-14-14-8 0-14 6-14 14 0 46 37 83 83 83 46 0 83-37 83-83 0-8-6-14-14-14z m131-397l-400 0c-26 0-47 21-47 47l0 152c0 8 6 14 14 14 8 0 14-6 14-14l0-152c0-10 8-19 19-19l401 0c10 0 19 9 19 19l0 200c-44-34-134-52-220-52-120 0-247 35-247 102l0 81c0 26 21 47 47 47l401 0c25 0 47-21 47-47l0-331c-1-26-22-47-48-47z m-400 397c-11 0-19-8-19-19l0-82c0-16 22-35 58-49 43-16 100-24 161-24 61 0 118 8 160 24 37 14 59 33 59 49 0 1 0 1 0 1l0 81c0 10-8 19-19 19z m200-145c-27 0-49 23-49 49 0 5 4 10 10 10 5 0 9-4 9-10 0-16 14-30 30-30 17 0 31 14 31 30 0 5 4 10 9 10 5 0 10-4 10-10-1-26-23-49-50-49z"/>
<glyph glyph-name="commcentre" unicode="&#57381;" d="M146 6c-30 0-56 9-75 27l-1 2c-23 23-32 57-26 99 6 39 23 82 51 125 5 8 15 10 23 5 7-5 9-15 5-23-50-77-62-151-30-183l2-2c45-45 166-1 263 96 50 49 86 105 103 157 16 47 13 86-7 107l-2 1c-32 32-103 21-179-27-8-5-18-2-23 5-5 8-2 18 5 23 92 57 176 66 220 22l2-2c30-30 35-80 15-140-19-56-58-117-111-170-78-78-168-122-235-122z m74 125c-7 0-13 4-15 10l-104 251c-3 6-1 13 3 18 5 4 12 6 18 3l246-102c8-3 12-13 9-21-4-8-14-12-22-9l-209 87 89-215c3-8-1-18-9-21-2-1-4-1-6-1z m-183 316c-16 0-29 13-29 30 0 16 13 29 29 29 16 0 30-13 30-29 0-17-13-30-30-30z m0 33c-2 0-3-2-3-3 0-2 1-4 3-4 2 0 3 2 3 4 0 1-1 3-3 3z"/>
<glyph glyph-name="connectionmanager" unicode="&#57382;" d="M490 244c-8 0-14 7-14 15 0 119-98 216-217 216-8 0-14 7-14 14 0 8 6 15 14 15 135 0 245-110 245-245 0-8-6-15-14-15z m-85 32c-6 0-12 5-14 11-13 62-69 107-132 107-8 0-14 6-14 14 0 8 6 14 14 14 76 0 144-54 160-129 2-7-3-15-11-17-1 0-2 0-3 0z m-71-170c-6 0-12 2-17 7 0 0-1 1-1 1l-64 65c0 0-1 0-1 1-7 6-10 15-10 24 0 9 4 18 11 25l65 66c5 4 11 7 17 7 7 0 13-3 17-7 5-5 7-11 7-17l0-24 51 0c8 0 14-6 14-14 0-8-6-14-14-14l-65 0c-8 0-14 6-14 14l0 27-58-58c-2-2-3-4-3-5 0-1 1-3 3-5 0-1 0-1 0-1l58-58 0 28c0 8 6 14 14 14l122 0c7 0 14-6 14-14 0-8-7-14-14-14l-108 0 0-24c0-6-2-12-7-17-4-4-10-7-17-7z m-4 24c0 0 0 0 0 0z m0 147z m-76-271c-135 0-245 110-245 246 0 7 7 14 14 14 8 0 14-7 14-14 0-120 98-218 217-218 8 0 14-6 14-14 0-7-6-14-14-14z m-70 208c-6 0-12 2-17 6-4 5-7 11-7 18l0 23-48 0 0-8c0-8-6-14-14-14-8 0-14 6-14 14l0 23c0 7 6 14 14 14l77 0c7 0 14-7 14-14l0-28 58 58c2 2 2 4 2 5 0 1 0 3-1 5-1 0-1 0-1 0l-58 59 0-28c0-8-7-14-14-14l-126 0c-8 0-14 6-14 14 0 8 6 14 14 14l111 0 0 25c0 5 3 11 7 16 9 9 25 9 34 0l65-65c0 0 1-1 1-1 7-7 10-15 10-25 0-9-3-18-10-25l-66-66c-4-4-11-6-17-6z m5 172l0-1c0 0 0 0 0 1z m65-305c-94 0-171 77-171 171 0 8 7 14 14 14 8 0 14-6 14-14 0-79 64-143 143-143 8 0 14-6 14-14 0-8-6-14-14-14z"/>
<glyph glyph-name="contactus" unicode="&#57383;" d="M187 163c-59 0-107 48-107 107 0 59 48 107 107 107 59 0 107-48 107-107 0-59-48-107-107-107z m0 175c-38 0-69-30-69-68 0-38 31-68 69-68 37 0 68 30 68 68 0 37-31 68-68 68z m156-332l-313 0c-10 0-19 9-19 20 0 55 25 106 69 139 8 7 20 5 27-3 6-9 5-21-4-28-29-22-47-54-52-89l272 0c-5 35-24 67-53 89-8 7-10 19-3 28 6 8 18 10 27 3 44-33 69-84 69-139 0-11-9-20-20-20z m136 130l-104 0c-11 0-19 9-19 20 0 10 8 19 19 19l83 0c-4 36-23 68-52 90-8 6-10 18-4 27 7 8 19 10 28 3 43-33 68-84 68-139 1-11-8-20-19-20z m-139 158c-9 0-17 6-18 15-3 11 4 21 15 23 31 7 54 35 54 67 0 38-30 68-68 68-31 0-58-20-66-50-3-11-13-17-24-14-10 2-16 13-13 23 12 47 54 80 103 80 59 0 107-48 107-107 0-51-36-95-86-105-1 0-2 0-4 0z"/>
<glyph glyph-name="mobileinternet" unicode="&#57384;" d="M207 188l-90 0c-20 0-36 16-36 36l0 119c0 8 7 14 15 14 8 0 15-6 15-14l0-119c0-3 3-6 6-6l90 0c8 0 15-7 15-15 0-8-7-15-15-15z m61 75c-8 0-15 7-15 15l0 86c0 4-2 6-6 6l-130 0c-20 0-36 16-36 36l0 18c0 20 16 36 36 36l164 0c33 0 60-27 60-60l0-99c0-8-7-14-15-14-8 0-15 6-15 14l0 99c0 17-13 30-29 30l-165 0c-3 0-6-3-6-6l0-18c0-3 3-6 6-6l130 0c20 0 36-16 36-36l0-86c0-8-7-15-15-15z m-41-258l-145 0c-33 0-59 27-59 59l0 426c0 8 6 15 14 15 9 0 15-7 15-15l0-426c0-16 13-29 30-29l145 0c8 0 15-7 15-15 0-8-7-15-15-15z m144 1c-70 0-127 57-127 127 0 70 57 127 127 127 5 0 10-5 10-10 0-6-5-10-10-10-59 0-107-48-107-107 0-59 48-107 107-107 53 0 98 40 105 92 1 5 6 9 12 8 5 0 9-6 8-11-9-62-63-109-125-109z m114 136c-8 0-14 7-14 15 0 8 6 14 14 14 8 0 15-6 15-14 0-8-7-15-15-15z m0 20c-3 0-5-3-5-5 0-3 2-6 5-6 3 0 5 3 5 6 0 2-2 5-5 5z m-15 18c-8 0-15 7-15 15 0 8 7 14 15 14 8 0 14-6 14-14 0-8-6-15-14-15z m0 20c-3 0-6-2-6-5 0-3 3-6 6-6 3 0 5 3 5 6 0 3-2 5-5 5z m-27 10c-8 0-15 7-15 15 0 8 7 14 15 14 8 0 14-6 14-14 0-8-6-15-14-15z m0 20c-3 0-6-2-6-5 0-3 3-6 6-6 3 0 5 3 5 6 0 3-2 5-5 5z m-23-107l-166 0c-6 0-10 4-10 10 0 6 4 10 10 10l166 0c5 0 10-4 10-10 0-6-5-10-10-10z m-49-117c-25 0-58 64-58 127 0 65 32 127 58 127 26 0 60-62 60-127 0-40-13-72-21-87-5-9-22-40-39-40z m0 20z m0 214c-3-1-13-9-23-30-6-13-16-41-16-77 0-59 30-102 39-106 9 4 40 47 40 106 0 59-30 104-40 107z"/>
<glyph glyph-name="multipleoffices" unicode="&#57385;" d="M454 4l-26 0c-17 0-31 13-31 28l0 60c0 0-1 0-2 0l-33 0c0 0-1 0-1 0l0-60c0-15-14-28-31-28l-140 0c-17 0-31 13-31 28 0 8 7 14 14 14 8 0 14-5 15-13 0 0 1 0 2 0l140 0c1 0 1 0 2 0l0 60c0 15 14 28 30 28l33 0c17 0 31-13 31-28l0-60c1 0 1 0 2 0l26 0c1 0 2 0 2 0l0 175c0 5-1 8-7 10l-258 90c-1 0-1 0-2 0 0-1-1-2-1-3l0-228c0-8-6-15-14-15-8 0-15 7-15 15l0 228c0 9 5 18 12 24 7 6 16 9 25 8 1 0 2 0 2-1l261-91c0 0 0 0 1 0 17-7 25-19 25-37l0-176c0-15-14-28-31-28z m-28 28z m-29 61z m6 48l-47 0c-13 0-24 9-24 21l0 20c0 12 11 21 24 21l47 0c14 0 24-9 24-21l0-20c0-12-10-21-24-21z m-52 21c1 0 3-2 5-2l47 0c3 0 5 2 6 2l0 20c-1 0-3 2-6 2l-47 0c-2 0-4-2-5-2z m-67-21l-48 0c-13 0-24 9-24 21l0 20c0 12 11 21 24 21l48 0c13 0 24-9 24-21l0-20c0-12-11-21-24-21z m-52 21c0 0 2-2 5-2l47 0c2 0 4 2 5 2l0 20c-1 0-3 2-5 2l-48 0c-2 0-4-2-5-2l0-20z m52-102l-48 0c-13 0-24 9-24 20l0 21c0 11 11 21 24 21l48 0c13 0 24-9 24-21l0-21c0-11-11-20-24-20z m-52 21c0-1 2-2 5-2l47 0c2 0 4 1 5 2l0 20c-1 0-3 1-5 1l-48 0c-2 0-4-1-5-1l0-20z m-104 8c-17 0-31 12-31 27l-1 273c0 9 5 18 12 25 7 6 16 8 25 7 1 0 2 0 3-1l260-90c0 0 1 0 1 0 12-5 20-13 23-23 3-8-1-16-9-19-7-2-16 2-18 9 0 1-1 3-7 6l-258 90c-1 0-1-1-1-1-1-1-2-2-2-3l1-271c0 0 1-1 2-1 8 0 14-6 14-14 0-8-7-14-14-14z m-63 82c-17 0-30 13-30 28l-1 273c0 9 5 18 12 24 7 6 16 9 25 8 1 0 2 0 2-1l261-91c0 0 0 0 1 0 12-5 20-12 23-23 2-7-2-16-9-18-8-2-16 1-18 9 0 1-1 3-7 5l-258 90c-1 0-1 0-1 0-1-1-2-2-2-3l0-272c1 0 1 0 2 0 8 0 15-7 15-14 0-8-7-15-15-15z"/>
<glyph glyph-name="smarterselling" unicode="&#57386;" d="M497 279c-6 9-11 17-18 25-3 5-4 8 1 12 10 11 10 19-1 29-50 51-101 101-151 152-11 10-19 10-29 0-94-94-187-187-281-281-11-11-11-18 0-29 22-22 44-45 67-66 13-12 18-23 17-40-2-16 5-29 18-38 7-5 15-10 24-13 38-17 78-20 127-22 17 2 42 4 67 8 23 4 46 11 66 26 14 9 21 22 21 40-1 37 0 75 0 112 0 6 1 10 7 14 20 14 41 29 61 44 11 8 12 16 4 27z m-382-56c-10-8-14-19-14-32 0-12 0-25 0-37-1-1-2-1-3-1-15 15-30 30-45 45-1 1 0 5 0 7 1 2 3 4 5 5 82 82 164 165 246 247 3 2 6 5 9 8 3-2 5-4 8-7 40-40 80-80 121-120 6-6 5-9-1-15-23-23-46-46-69-70-5-4-9-5-15-3-42 11-85 13-128 10-27-2-54-6-79-17-13-5-24-12-35-20z m278-28c0-19-58-34-130-34-72 0-130 15-130 34 0 19 58 34 130 34 72 0 130-15 130-34z m-264-53c5 4 8 9 16 6 49-19 99-22 151-18 30 2 59 7 86 19 7 2 11-3 13-7 2-3 3-10 1-12-5-6-10-10-17-14-22-12-46-16-70-19-16-2-32-3-40-3-44 0-79 3-112 17-9 4-18 10-26 16-5 4-6 10-2 15z m266-73c-6-6-13-11-21-15-25-12-51-16-78-18-11-1-22-2-31-2-37 1-72 4-105 16-9 4-18 10-27 15-5 4-9 10-4 16 5 6 9 11 18 7 33-13 67-18 102-19 45-1 90 2 132 20 7 3 11-2 14-6 4-5 5-10 0-14z m61 197c-15-11-30-22-45-33-5-4-9-5-15 2 9 9 18 18 27 26 6 6 13 12 19 18 6 7 10 6 15-1 2-2 4-4 6-6-3-3-5-5-7-6z"/>
<glyph glyph-name="thinkbigpeople" unicode="&#57387;" d="M256 94c-19 0-37 3-54 10-8 3-11 11-8 19 3 7 11 11 18 8 14-6 29-9 44-9 15 0 30 3 44 8 7 3 15 0 18-8 3-7 0-15-8-18-17-7-35-10-54-10z m-115 39c-40 0-72 32-72 72 0 39 32 72 72 72 40 0 72-33 72-72 0-40-32-72-72-72z m0 116c-24 0-44-20-44-44 0-24 20-44 44-44 24 0 44 20 44 44 0 24-20 44-44 44z m87-209l-207 0c-8 0-14 7-14 15 0 36 17 71 46 93 6 5 15 4 20-3 5-6 3-15-3-19-18-15-30-35-34-57l177 0c-2 14-8 28-17 40-5 6-4 15 2 20 7 5 15 3 20-3 16-21 24-45 24-71 0-8-6-15-14-15z m143 93c-40 0-72 32-72 72 0 39 32 72 72 72 40 0 72-33 72-72 0-40-32-72-72-72z m0 116c-24 0-44-20-44-44 0-24 20-44 44-44 24 0 44 20 44 44 0 24-20 44-44 44z m120-209l-207 0c-8 0-14 7-14 15 0 25 8 50 24 71 5 6 13 8 20 3 6-5 7-14 2-20-9-12-14-26-17-40l177 0c-3 22-15 42-34 57-6 5-7 13-2 20 4 6 13 7 19 2 30-22 46-56 46-93 0-8-6-15-14-15z m-236 291c-40 0-72 33-72 73 0 39 32 72 72 72 40 0 72-33 72-72 0-40-32-73-72-73z m0 117c-24 0-44-20-44-44 0-25 20-44 44-44 24 0 44 19 44 44 0 24-20 44-44 44z m118-158c-5 0-10 3-12 8-14 25-37 44-64 55-7 2-11 10-8 18 3 7 11 11 18 8 34-12 62-37 79-68 3-7 1-16-6-19-2-1-5-2-7-2z m-235-1c-2 0-4 1-6 2-7 4-10 12-6 19 16 31 44 56 77 68 7 3 15 0 18-8 3-7-1-15-8-18-27-10-48-30-62-55-3-5-8-8-13-8z"/>
<glyph glyph-name="voip" unicode="&#57388;" d="M144 12c-74 0-134 60-134 134 0 74 60 134 134 134 6 0 10-4 10-10 0-6-4-11-10-11-62 0-113-50-113-113 0-62 51-113 113-113 56 0 104 42 112 97 1 6 6 10 12 9 6-1 9-6 9-12-10-65-67-115-133-115z m121 144c-9 0-16 7-16 15 0 9 7 16 16 16 8 0 15-7 15-16 0-8-7-15-15-15z m0 21c-3 0-6-3-6-6 0-3 3-6 6-6 3 0 5 3 5 6 0 3-2 6-5 6z m-16 19c-9 0-16 7-16 16 0 8 7 15 16 15 8 0 15-7 15-15 0-9-7-16-15-16z m0 21c-4 0-6-2-6-5 0-4 2-6 6-6 3 0 5 2 5 6 0 2-2 5-5 5z m-29 11c-8 0-15 6-15 15 0 9 7 16 15 16 9 0 16-7 16-16 0-9-7-15-16-15z m0 21c-3 0-5-3-5-6 0-3 2-6 5-6 3 0 6 3 6 6 0 3-3 6-6 6z m-24-114l-176 0c-5 0-10 5-10 11 0 6 5 10 10 10l176 0c6 0 10-4 10-10 1-6-4-11-10-11z m-52-123c-26 0-62 67-62 134 0 69 35 134 62 134 28 0 63-65 63-134 0-43-14-76-22-92-4-10-22-42-41-42z m1 21z m-1 226c-3-1-13-10-24-32-6-14-17-43-17-81 0-62 31-108 41-113 10 5 42 51 42 113 0 62-31 110-42 113z m232-188c-21 0-43 8-59 24l-10 10c-6 6-6 16 0 23 6 6 16 6 22 0l10-10c21-21 54-21 75 0l51 51-66 66-43-42c-2-3-7-5-11-5-4 0-8 2-11 5l-143 143c-3 3-5 7-5 11 0 4 2 8 5 11l42 42-67 67-50-51c-21-21-21-54 0-75l11-11c6-7 6-17 0-23-6-6-16-6-22 0l-12 12c-32 33-32 86 0 119l62 62c3 3 7 5 11 5 4 0 8-2 11-5l89-89c3-3 5-7 5-11 0-4-2-8-5-11l-42-42 121-121 42 42c3 3 7 5 12 5 4 0 8-2 11-5l88-88c3-3 5-7 5-12 0-4-2-8-5-11l-62-62c-17-16-38-24-60-24z"/>
<glyph glyph-name="carousel-arrow" unicode="&#57389;" d="M279 272l228-272-500 0 228 272c11 14 33 14 44 0z"/>
<glyph glyph-name="business-1" unicode="&#57390;" d="M324 399c-11 0-20 9-20 19 0 27-22 49-49 49-27 0-49-22-49-49 0-10-9-19-20-19-11 0-20 9-20 19 0 49 40 89 89 89 48 0 88-40 88-89 1-11-8-19-19-19z m131-397l-400 0c-29 0-53 24-53 53l0 152c0 11 9 20 20 20 11 0 20-9 20-20l0-152c0-7 6-13 13-13l400 0c7 0 13 6 13 13l0 189c-11-8-25-15-41-21-46-17-107-26-172-26-65 0-126 9-172 26-52 20-81 49-81 81l0 81c0 29 24 53 53 53l400 0c29 0 53-24 53-53l0-330c0-29-24-53-53-53z m-400 397c-7 0-13-6-13-13l0-82c0-28 83-68 213-68 130 0 213 40 213 68 0 0 0 1 0 1l0 80c0 8-6 13-13 13l-400 0z m200-149c-33 0-59 26-59 59 0 11 9 20 20 20 11 0 20-9 20-20 0-11 8-20 19-20 11 0 20 9 20 20 0 11 9 20 20 20 11 0 20-9 20-20 0-33-27-59-60-59z"/>
<glyph glyph-name="play-arrow" unicode="&#57391;" d="M255 8c-136 0-247 111-247 247 0 136 111 247 247 247 137 0 248-111 248-247 0-136-111-247-248-247z m0 461c-117 0-213-96-213-214 0-117 96-213 213-213 118 0 214 96 214 213 0 118-96 214-214 214z m-59-359l0 279 174-140z m32 213l0-147 91 74z"/>
<glyph glyph-name="broadband" unicode="&#57379;" d="M483 236l0 1 0-1c-1 0 0 0 0 0z m-6 57c0 9-7 17-17 17-9 0-17-8-17-17 0-10 8-17 17-17 10 0 17 7 17 17z m-17-1z m23-38c-10 0-18-8-18-17 0-10 8-17 18-17 9 0 17 7 17 17 0 9-8 17-17 17z m0-18c0 0-1 0 0 0l0 1z m-62 117c-10 0-17-7-17-17 0-9 7-17 17-17 9 0 17 8 17 17 0 10-8 17-17 17z m0-17c0 0 0 0 0 0z m-213 141c7 3 10 10 8 17-3 7-10 10-17 8-87-34-154-102-186-190-2-6 1-14 8-16 1-1 3-1 4-1 6 0 10 4 12 9 29 80 92 143 171 173z m278-287c-7 1-13-3-14-10 0-3-1-5-1-7-1-1-1-1-1-2 0-2-1-3-1-5 0-1 0-1 0-2-1-2-1-3-2-5 0 0 0-1 0-2-1-1-1-3-2-4 0-1 0-1 0-2-1-2-2-4-2-6-1-1-1-1-1-1-1-2-1-3-2-5 0-1 0-1-1-2-1-2-1-3-2-4 0-1 0-2-1-2 0-2-1-3-2-4 0-1-1-1-1-2-1-1-2-3-3-5 0 0 0 0 0 0-1-2-2-4-4-6 0 0 0-1-1-1-1-2-2-3-2-4-1-1-1-1-2-2 0-1-1-2-2-3-1-1-1-2-2-2-1-1-2-2-3-4 0 0-1 0-1-1-1-2-3-3-4-5 0 0 0 0 0 0-2-1-3-3-4-4-1-1-1-1-2-1-1-1-2-2-3-3-1-1-1-1-2-2-1-1-2-2-3-3-1 0-1-1-2-1-1-1-3-2-4-3 0 0-1-1-1-1-2-1-4-2-6-3 0-1 0-1-1-1-1-1-2-2-4-3-1 0-1-1-2-1-1-1-2-2-4-2 0-1-1-1-2-1-1-1-2-2-4-2 0-1-1-1-1-1-4-2-8-4-12-5-1-1-2-1-2-1-2-1-3-1-4-2-1 0-2 0-3 0-1-1-2-1-4-2-1 0-1 0-2 0-1 0-1-1-1-1 0 1 0 1 0 1 1 1 1 2 2 3 0 0 0 1 1 1 0 1 1 2 2 3 0 0 0 0 0 1 2 2 3 4 4 6 0 0 0 1 0 1 1 1 2 2 2 3 0 0 0 0 0 0 1 1 1 2 2 3 0 0 0 0 0 0 1 0 1 1 1 2 0 0 0 0 0 1 1 0 1 1 1 2 12 22 31 68 31 126 0 60-19 105-29 127-5 10-21 40-41 52 0 0-1 1-2 1 0 0 0 0 0 0-1 1-1 1-2 1 0 0 0 0 0 1-1 0-2 0-3 1 0 0 0 0 0 0-1 0-2 0-2 0 0 0-1 1-1 1 0 0-1 0-1 0-1 0-1 0-2 0 0 0-1 0-1 0-1 0-1 0-1 0-1 0-1 0-2 0-98 0-179-77-183-174-1-3-1-6-1-9 0-102 83-184 184-184 45 0 88 16 121 45 34 29 55 69 61 113 1 6-4 12-11 13z m-219-138c-2 0-4 1-5 1-1 1-2 1-3 1-1 1-3 1-4 2-1 0-2 0-2 1-2 1-5 2-7 3 0 0 0 0 0 0-2 1-4 2-6 3-1 0-1 0-2 1-1 0-3 1-4 2-1 1-1 1-2 1-2 1-3 2-4 3-1 1-1 1-2 1-2 1-4 3-5 4-1 1-1 1-1 1-2 1-3 2-5 3 0 1-1 1-2 2-1 1-2 2-3 3-1 1-1 1-2 2-1 1-2 2-3 3-1 1-1 1-2 2-2 1-3 3-5 5 0 0-1 0-1 1-1 1-2 3-3 4-1 1-1 1-2 2-1 1-2 2-3 4 0 0-1 1-1 2-1 1-2 2-3 4-1 0-1 1-1 1-2 2-3 4-4 6 0 1-1 1-1 2-1 1-2 3-3 4 0 1 0 2-1 2-1 2-1 3-2 5 0 0-1 1-1 2-1 1-2 3-2 5-1 0-1 1-1 1-1 2-2 4-3 7 0 0 0 1 0 2-1 1-1 3-2 4 0 1 0 2-1 3 0 1-1 3-1 5 0 0-1 1-1 2 0 2-1 4-1 6 0 0 0 1 0 1-1 2-1 4-2 7 0 0 0 1 0 2 0 1 0 3 0 5 0 1-1 2-1 2 0 1 0 2 0 2l74 0c0-3 0-6 0-9 4-48 19-85 28-104 1-1 1-2 1-2 0-1 0-1 0-1 1-1 1-1 2-2 0 0 0 0 0-1 0 0 1-1 1-2 0 0 0 0 0-1 1-1 1-2 2-3 0 0 0 0 0 0 1-1 2-2 2-3 0 0 0-1 1-1 0-1 1-2 1-3 0 0 1 0 1 0 0-2 1-2 2-4 0 0 0 0 0 0 1-1 2-3 3-4-2 1-5 1-7 2 0 0-1 0-1 1z m-109 167c0 2 0 4 1 5 0 1 0 2 0 3 0 2 1 4 1 7 0 0 0 0 0 1 1 1 1 3 2 5 0 1 0 2 1 3 0 1 1 3 1 4 0 1 0 2 1 3 0 1 1 3 1 5 0 0 1 1 1 1 0 3 1 5 2 7 1 0 1 1 1 2 1 1 2 3 2 4 1 1 1 2 1 2 1 2 2 3 2 5 1 0 1 1 2 2 1 1 2 3 3 5 0 0 0 0 0 1 1 2 2 4 4 6 0 0 0 1 1 1 1 2 2 3 3 4 0 1 1 2 1 2 1 2 2 3 3 4 0 1 1 1 1 2 2 2 3 3 5 5 0 0 0 0 0 1 2 1 3 3 4 4 1 1 2 1 2 2 1 1 2 2 3 3 1 0 2 1 2 2 1 1 3 2 4 3 0 0 1 1 1 1 2 2 4 3 6 4 0 1 1 1 1 1 2 1 3 2 4 3 1 1 2 1 2 2 1 1 3 1 4 2 1 1 1 1 2 2 2 1 3 1 5 2 0 1 1 1 1 1 2 1 4 2 6 3 1 0 1 1 2 1 1 1 3 2 4 2 1 0 2 1 2 1 2 1 3 1 5 2 1 0 2 0 2 0 2 1 4 2 7 3 0 0 0 0 1 0 1 0 3 1 4 1 0 0 0-1 0-1-1-1-2-3-3-4-1-1-1-2-1-2-1-2-2-3-3-5 0 0 0-1-1-2-1-1-2-3-3-5 0 0 0-1 0-1-1-3-2-5-4-7 0-1 0-1-1-2 0-2-1-4-2-5 0-1-1-2-1-3-1-2-1-3-2-5 0-1-1-2-1-3-1-2-2-4-2-6-1 0-1-1-1-2-1-2-2-5-3-8 0 0 0-1 0-2-1-2-1-4-2-6 0-1-1-2-1-3 0-2-1-4-1-6-1-1-1-2-1-3-1-2-1-4-2-6 0-1 0-2 0-3-1-3-1-6-2-9 0 0 0-1 0-1 0-3-1-5-1-8 0-1 0-2-1-3 0-2 0-4 0-7-1-1-1-2-1-3 0-2 0-4-1-6 0-1 0-2 0-3 0-4 0-7 0-10l-73 0c0 1 0 1 0 2 0 2 0 3 0 3z m157-175c-5 2-19 15-33 46-9 18-22 54-25 99l118 0c-4-82-47-140-60-145z m60 171l-117 0c0 9 1 17 2 25 5 35 15 61 22 76 4 8 7 15 11 20 0 1 0 1 0 1 1 1 2 2 3 3 0 0 0 1 0 1 1 1 2 2 2 3 1 0 1 1 1 1 0 1 1 1 2 2 0 0 0 0 0 1 1 1 1 1 2 2 0 0 1 0 1 1 0 0 1 1 1 1 1 1 1 1 1 1 1 1 1 1 1 1 0 0 1 1 1 1 0 0 1 1 1 1 0 0 1 0 1 0 0 1 1 1 1 1 0 0 0 0 1 1 0 0 0 0 0 0 1 0 1 0 1 0 0 1 0 1 1 1 0 0 0 0 0 0 0 0 1 0 1 0 0 0 0 0 0 0 0 0 0 0 0 0 0 0 1 0 1 0 0 0 0 0 0 0 1 0 1 0 1 0 0 0 0 0 0 0 1 0 1 0 1 0 0-1 1-1 1-1 0 0 0 0 1 0 0-1 0-1 0-1 1 0 1 0 1-1 1 0 1 0 1 0 1-1 1-1 1-1 0-1 1-1 1-1 1 0 1-1 1-1 1 0 1-1 1-1 1-1 1-1 2-2 0 0 0 0 1-1 0 0 1-1 1-1 0-1 1-1 1-1 0-1 1-2 2-2 0-1 0-1 1-2 0 0 1-1 1-2 1-1 1-1 1-1 1-1 2-2 2-3 1-1 1-1 1-1 1-1 1-2 2-4 0 0 0-1 1-1 1-1 1-2 2-4 0 0 1-1 1-1 1-1 1-3 2-4 0-1 0-1 1-1 1-2 2-4 3-6 8-17 22-53 24-100z m-167 194c6 3 9 11 6 17-3 6-11 9-18 6-48-25-88-66-112-114-4-7-1-15 5-18 2-1 4-1 6-1 5 0 10 2 12 7 22 44 58 80 101 103z"/>
<glyph glyph-name="security" unicode="&#57392;" d="M275 85l-43 0c-6 0-12 5-12 12l0 84c-15 18-13 44 4 60 18 16 46 15 62-3 0 0 0 0 0 0 15-16 15-41 1-57l0-84c0-7-5-12-12-12z m-31 24l19 0 0 77c0 3 2 6 4 8 1 1 1 1 1 2 7 7 7 19 0 26 0 0 0 1 0 1-8 8-20 8-28 1-8-8-9-20-1-28 0-1 1-1 1-2 3-2 4-5 4-8z m115 221l-193 0 0 101c0 23 18 41 41 41l93 0c22 0 41-19 41-41l0-51c0-10 8-18 18-18 10 0 18 8 18 18l0 51c0 42-35 76-77 76l-93 0c-42 0-76-34-76-76l0-103c-31-8-54-36-54-69l0-182c0-39 32-71 72-71l210 0c39 0 71 32 71 71l0 182c0 39-32 71-71 71z m35-253c0-20-16-36-35-36l-210 0c-20 0-36 16-36 36l0 182c0 19 16 35 36 35l210 0c19 0 35-16 35-35z"/>
<glyph glyph-name="cloud" unicode="&#57393;" d="M409 312c-6 0-11 4-12 10-5 41-39 73-80 77-6 0-11 6-10 12 0 7 6 12 12 11 52-5 94-45 101-97 1-6-3-12-10-13 0 0-1 0-1 0z m63 0c-6 0-11 5-12 11-6 75-67 134-143 139-6 0-11 5-11 12 1 6 6 11 13 11 86-5 157-74 164-160 1-7-4-12-10-13 0 0-1 0-1 0z m-122-115c-2 0-3 1-5 1-9 3-15 13-12 22 2 8 3 16 3 24 0 46-38 84-84 84-46 0-84-37-85-83 0-9-8-17-18-17-9 0-17 8-17 18 2 65 55 117 120 117 66 0 120-53 120-119 0-12-2-23-5-34-2-7-9-13-17-13z m20-172l-67 0c-10 0-18 8-18 18 0 9 8 17 18 17l67 0c46 0 84 38 84 85 0 46-38 84-84 84-5 0-9 0-14-1-9-1-18 6-20 15-1 10 5 19 15 20 6 1 12 2 19 2 66 0 119-54 119-120 0-66-53-120-119-120z m-154 0l-83 0c-66 0-120 54-120 120 0 66 54 120 120 120 23 0 46-7 66-20 8-5 10-16 5-24-6-8-16-11-25-5-14 9-30 14-46 14-47 0-85-38-85-85 0-47 38-84 85-84l83 0c10 0 18-8 18-18 0-10-8-18-18-18z"/>
</font>
</defs>
</svg>
